SplineFontDB: 3.2
FontName: Azbuki-Regular
FullName: Azbuki Regular
FamilyName: Azbuki
Weight: Book
Copyright: copyright missing
Version: 1.000;hotconv 1.0.109;makeotfexe 2.5.65596
ItalicAngle: 0
UnderlinePosition: -97
UnderlineWidth: 48
Ascent: 819
Descent: 205
InvalidEm: 0
sfntRevision: 0x00010000
LayerCount: 2
Layer: 0 1 "Back" 1
Layer: 1 1 "Fore" 0
XUID: [1021 513 -1838672878 15266]
StyleMap: 0x0040
FSType: 8
OS2Version: 4
OS2_WeightWidthSlopeOnly: 0
OS2_UseTypoMetrics: 1
CreationTime: 1670233942
ModificationTime: 1733683602
PfmFamily: 81
TTFWeight: 400
TTFWidth: 5
LineGap: 0
VLineGap: 0
Panose: 0 0 5 0 0 0 0 0 0 0
OS2TypoAscent: 717
OS2TypoAOffset: 0
OS2TypoDescent: -205
OS2TypoDOffset: 0
OS2TypoLinegap: 307
OS2WinAscent: 1024
OS2WinAOffset: 0
OS2WinDescent: 205
OS2WinDOffset: 0
HheadAscent: 1024
HheadAOffset: 0
HheadDescent: -205
HheadDOffset: 0
OS2SubXSize: 666
OS2SubYSize: 614
OS2SubXOff: 0
OS2SubYOff: 76
OS2SupXSize: 666
OS2SupYSize: 614
OS2SupXOff: 0
OS2SupYOff: 358
OS2StrikeYSize: 49
OS2StrikeYPos: 263
OS2CapHeight: 683
OS2XHeight: 440
OS2Vendor: 'UKWN'
OS2CodePages: 00000087.00000000
OS2UnicodeRanges: 00000207.00000000.00000000.00000000
MarkAttachClasses: 1
DEI: 91125
ShortTable: maxp 16
  1
  0
  523
  88
  7
  0
  0
  2
  0
  1
  1
  0
  64
  0
  0
  0
EndShort
LangName: 1033 "" "" "" "1.000;UKWN;Azbuki-Regular" "" "Version 1.000;hotconv 1.0.109;makeotfexe 2.5.65596" "" "" "Brandly Collective" "Anita Rupova" "" "https://brandlycollective.com/" "https://rupovart.com/"
GaspTable: 1 65535 2 0
Encoding: UnicodeBmp
Compacted: 1
UnicodeInterp: none
NameList: AGL For New Fonts
DisplaySize: -36
AntiAlias: 1
FitToEm: 0
WinInfo: 0 20 9
Grid
-1024 467.699951172 m 0
 2048 467.699951172 l 1024
EndSplineSet
BeginChars: 65561 523

StartChar: exclam
Encoding: 33 33 4
Width: 184
GlyphClass: 2
Flags: W
LayerCount: 2
Fore
SplineSet
39 696 m 1,0,-1
 123 696 l 1,1,2
 130 675 130 675 131.5 657.5 c 128,-1,3
 133 640 133 640 133 580 c 2,4,-1
 133 284 l 2,5,6
 133 231 133 231 139 156 c 1,7,-1
 55 156 l 1,8,9
 50 182 50 182 50 284 c 2,10,-1
 50 585 l 2,11,12
 50 663 50 663 39 696 c 1,0,-1
94 -10 m 0,13,14
 72 -11 72 -11 58 3 c 128,-1,15
 44 17 44 17 45 39 c 0,16,17
 44 60 44 60 58 74.5 c 128,-1,18
 72 89 72 89 94 89 c 0,19,20
 115 89 115 89 129.5 74.5 c 128,-1,21
 144 60 144 60 145 39 c 0,22,23
 144 17 144 17 129.5 3 c 128,-1,24
 115 -11 115 -11 94 -10 c 0,13,14
EndSplineSet
Validated: 33
EndChar

StartChar: quotedbl
Encoding: 34 34 5
Width: 301
GlyphClass: 2
Flags: W
LayerCount: 2
Fore
SplineSet
145 713 m 1,0,-1
 106 730 l 1,1,2
 83 717 83 717 61 686 c 0,3,4
 40 653 40 653 32.5 625.5 c 128,-1,5
 25 598 25 598 23 552 c 1,6,-1
 89 552 l 1,7,8
 89 617 89 617 117 669 c 0,9,10
 133 705 133 705 145 713 c 1,0,-1
279 713 m 1,11,-1
 240 730 l 1,12,13
 216 716 216 716 195 686 c 0,14,15
 160 638 160 638 156 552 c 1,16,-1
 223 552 l 1,17,18
 223 615 223 615 251 669 c 0,19,20
 272 707 272 707 279 713 c 1,11,-1
EndSplineSet
Validated: 9
EndChar

StartChar: numbersign
Encoding: 35 35 6
Width: 968
GlyphClass: 2
Flags: W
LayerCount: 2
Fore
SplineSet
936 502 m 1,0,-1
 891 423 l 1,1,-1
 686 423 l 1,2,-1
 634 284 l 1,3,-1
 852 284 l 1,4,-1
 809 201 l 1,5,-1
 604 202 l 1,6,-1
 529 0 l 1,7,-1
 435 0 l 1,8,-1
 510 203 l 1,9,-1
 332 204 l 1,10,-1
 256 0 l 1,11,-1
 162 0 l 1,12,-1
 237 205 l 1,13,-1
 33 206 l 1,14,-1
 68 284 l 1,15,-1
 266 284 l 1,16,-1
 317 423 l 1,17,-1
 106 423 l 1,18,-1
 139 507 l 1,19,-1
 348 505 l 1,20,-1
 429 725 l 1,21,-1
 523 725 l 1,22,-1
 442 505 l 1,23,-1
 621 503 l 1,24,-1
 702 725 l 1,25,-1
 797 725 l 1,26,-1
 715 503 l 1,27,-1
 936 502 l 1,0,-1
360 284 m 1,28,-1
 540 284 l 1,29,-1
 591 423 l 1,30,-1
 413 423 l 1,31,-1
 360 284 l 1,28,-1
EndSplineSet
Validated: 1
EndChar

StartChar: dollar
Encoding: 36 36 7
Width: 556
GlyphClass: 2
Flags: W
LayerCount: 2
Fore
SplineSet
340 638 m 1,0,-1
 340 369 l 1,1,2
 380 348 380 348 404 333 c 128,-1,3
 428 318 428 318 457 294 c 128,-1,4
 486 270 486 270 499.5 241 c 128,-1,5
 513 212 513 212 513 178 c 0,6,7
 513 98 513 98 464 50 c 128,-1,8
 415 2 415 2 341 -8 c 1,9,10
 341 -28 341 -28 343 -57.5 c 128,-1,11
 345 -87 345 -87 345 -100 c 1,12,-1
 262 -100 l 1,13,14
 256 -69 256 -69 256 -6 c 1,15,16
 221 1 221 1 186.5 19 c 128,-1,17
 152 37 152 37 128 57 c 128,-1,18
 104 77 104 77 84.5 97.5 c 128,-1,19
 65 118 65 118 55.5 130 c 128,-1,20
 46 142 46 142 45 145 c 2,21,-1
 117 212 l 2,22,23
 118 212 118 212 135 180 c 128,-1,24
 152 148 152 148 185 108 c 128,-1,25
 218 68 218 68 256 53 c 1,26,-1
 256 331 l 1,27,28
 217 349 217 349 194 361 c 128,-1,29
 171 373 171 373 143.5 394 c 128,-1,30
 116 415 116 415 102.5 441.5 c 128,-1,31
 89 468 89 468 89 502 c 0,32,33
 90 581 90 581 138 631 c 128,-1,34
 186 681 186 681 256 692 c 1,35,36
 255 757 255 757 245 769 c 1,37,-1
 329 769 l 1,38,39
 339 737 339 737 340 692 c 1,40,41
 389 684 389 684 432 658.5 c 128,-1,42
 475 633 475 633 493 614.5 c 128,-1,43
 511 596 511 596 513 591 c 1,44,-1
 440 523 l 1,45,-1
 435 532 l 2,46,47
 430 542 430 542 422 556 c 128,-1,48
 414 570 414 570 403 585.5 c 128,-1,49
 392 601 392 601 375 615.5 c 128,-1,50
 358 630 358 630 340 638 c 1,0,-1
184 518 m 0,51,52
 184 464 184 464 256 416 c 1,53,-1
 256 639 l 1,54,55
 224 627 224 627 204 595.5 c 128,-1,56
 184 564 184 564 184 518 c 0,51,52
340 290 m 1,57,-1
 340 52 l 1,58,59
 373 66 373 66 395 101.5 c 128,-1,60
 417 137 417 137 419 178 c 0,61,62
 418 243 418 243 340 290 c 1,57,-1
EndSplineSet
Validated: 1
EndChar

StartChar: percent
Encoding: 37 37 8
Width: 607
GlyphClass: 2
Flags: W
LayerCount: 2
Fore
SplineSet
151 390 m 0,0,1
 95 391 95 391 58.5 433.5 c 128,-1,2
 22 476 22 476 23 541 c 0,3,4
 21 603 21 603 58.5 647 c 128,-1,5
 96 691 96 691 151 691 c 0,6,7
 199 691 199 691 233 646 c 128,-1,8
 267 601 267 601 267 541 c 0,9,10
 267 476 267 476 233.5 433.5 c 128,-1,11
 200 391 200 391 151 390 c 0,0,1
490 680 m 1,12,-1
 585 680 l 1,13,14
 575 641 575 641 502 536.5 c 128,-1,15
 429 432 429 432 346 327.5 c 128,-1,16
 263 223 263 223 192.5 125.5 c 128,-1,17
 122 28 122 28 117 0 c 1,18,-1
 23 0 l 1,19,20
 31 33 31 33 100.5 127.5 c 128,-1,21
 170 222 170 222 250 320.5 c 128,-1,22
 330 419 330 419 403.5 524 c 128,-1,23
 477 629 477 629 490 680 c 1,12,-1
151 458 m 0,24,25
 176 458 176 458 194 481 c 128,-1,26
 212 504 212 504 212 541 c 0,27,28
 212 575 212 575 194 600 c 128,-1,29
 176 625 176 625 151 625 c 0,30,31
 120 625 120 625 101.5 600.5 c 128,-1,32
 83 576 83 576 84 541 c 0,33,34
 83 507 83 507 102 482.5 c 128,-1,35
 121 458 121 458 151 458 c 0,24,25
462 -6 m 0,36,37
 407 -6 407 -6 371 36 c 128,-1,38
 335 78 335 78 335 145 c 0,39,40
 335 206 335 206 372 251 c 128,-1,41
 409 296 409 296 462 296 c 0,42,43
 509 296 509 296 547.5 250 c 128,-1,44
 586 204 586 204 585 145 c 0,45,46
 586 81 586 81 548.5 37.5 c 128,-1,47
 511 -6 511 -6 462 -6 c 0,36,37
462 61 m 0,48,49
 487 61 487 61 505 84.5 c 128,-1,50
 523 108 523 108 523 145 c 0,51,52
 523 177 523 177 505 200 c 128,-1,53
 487 223 487 223 462 223 c 0,54,55
 433 223 433 223 416.5 201 c 128,-1,56
 400 179 400 179 400 145 c 0,57,58
 400 110 400 110 416.5 85.5 c 128,-1,59
 433 61 433 61 462 61 c 0,48,49
EndSplineSet
Validated: 33
EndChar

StartChar: ampersand
Encoding: 38 38 9
Width: 601
GlyphClass: 2
Flags: W
LayerCount: 2
Fore
SplineSet
574 0 m 1,0,-1
 462 0 l 1,1,-1
 401 72 l 1,2,3
 314 0 314 0 240 0 c 0,4,5
 144 0 144 0 86.5 53 c 128,-1,6
 29 106 29 106 29 201 c 0,7,8
 29 259 29 259 62 305.5 c 128,-1,9
 95 352 95 352 154 401 c 1,10,11
 89 518 89 518 89 596 c 0,12,13
 89 659 89 659 136 694.5 c 128,-1,14
 183 730 183 730 240 730 c 0,15,16
 294 730 294 730 336.5 692 c 128,-1,17
 379 654 379 654 379 591 c 0,18,19
 379 554 379 554 359.5 515 c 128,-1,20
 340 476 340 476 320 456 c 2,21,-1
 301 435 l 2,22,23
 286 420 286 420 258 399 c 1,24,25
 290 351 290 351 415 191 c 1,26,27
 428 211 428 211 440 231.5 c 128,-1,28
 452 252 452 252 457 262 c 2,29,-1
 462 273 l 1,30,-1
 529 217 l 1,31,32
 504 178 504 178 463 132 c 1,33,34
 479 113 479 113 502.5 85 c 128,-1,35
 526 57 526 57 543.5 36 c 128,-1,36
 561 15 561 15 574 0 c 1,0,-1
173 591 m 0,37,38
 173 540 173 540 221 461 c 1,39,40
 221 462 221 462 221.5 462 c 128,-1,41
 222 462 222 462 223 462 c 0,42,43
 246 482 246 482 259.5 496 c 128,-1,44
 273 510 273 510 287 537 c 128,-1,45
 301 564 301 564 301 591 c 0,46,47
 301 640 301 640 282.5 665.5 c 128,-1,48
 264 691 264 691 240 691 c 0,49,50
 213 691 213 691 193 664.5 c 128,-1,51
 173 638 173 638 173 591 c 0,37,38
240 50 m 0,52,53
 294 50 294 50 359 120 c 1,54,55
 241 262 241 262 188 344 c 1,56,57
 117 278 117 278 117 201 c 0,58,59
 117 129 117 129 152.5 89.5 c 128,-1,60
 188 50 188 50 240 50 c 0,52,53
EndSplineSet
Validated: 1
EndChar

StartChar: quotesingle
Encoding: 39 39 10
Width: 165
GlyphClass: 2
Flags: W
LayerCount: 2
Fore
SplineSet
23 568 m 1,0,-1
 61 552 l 1,1,2
 87 568 87 568 106 596 c 0,3,4
 128 626 128 626 135 653.5 c 128,-1,5
 142 681 142 681 145 730 c 1,6,-1
 78 730 l 1,7,8
 75 662 75 662 50 613 c 0,9,10
 48 610 48 610 42 599 c 128,-1,11
 36 588 36 588 30.5 579.5 c 128,-1,12
 25 571 25 571 23 568 c 1,0,-1
EndSplineSet
Validated: 9
EndChar

StartChar: parenleft
Encoding: 40 40 11
Width: 350
GlyphClass: 2
Flags: W
LayerCount: 2
Fore
SplineSet
117 340 m 0,0,1
 117 250 117 250 139 168.5 c 128,-1,2
 161 87 161 87 193.5 35 c 128,-1,3
 226 -17 226 -17 261 -47.5 c 128,-1,4
 296 -78 296 -78 323 -78 c 1,5,-1
 323 -123 l 1,6,7
 284 -123 284 -123 235.5 -92.5 c 128,-1,8
 187 -62 187 -62 140 -7 c 128,-1,9
 93 48 93 48 61 140 c 128,-1,10
 29 232 29 232 29 340 c 0,11,12
 29 435 29 435 50 515 c 128,-1,13
 71 595 71 595 103.5 645.5 c 128,-1,14
 136 696 136 696 176 731.5 c 128,-1,15
 216 767 216 767 251.5 782 c 128,-1,16
 287 797 287 797 317 797 c 1,17,-1
 317 758 l 1,18,19
 298 758 298 758 273 742.5 c 128,-1,20
 248 727 248 727 220.5 692.5 c 128,-1,21
 193 658 193 658 170 611 c 128,-1,22
 147 564 147 564 132 492.5 c 128,-1,23
 117 421 117 421 117 340 c 0,0,1
EndSplineSet
Validated: 1
EndChar

StartChar: parenright
Encoding: 41 41 12
Width: 350
GlyphClass: 2
Flags: W
LayerCount: 2
Fore
SplineSet
33 758 m 1,0,-1
 33 797 l 1,1,2
 63 797 63 797 99 782 c 128,-1,3
 135 767 135 767 175.5 731.5 c 128,-1,4
 216 696 216 696 248.5 645.5 c 128,-1,5
 281 595 281 595 302 515 c 128,-1,6
 323 435 323 435 323 340 c 0,7,8
 323 232 323 232 291.5 140 c 128,-1,9
 260 48 260 48 213 -7 c 128,-1,10
 166 -62 166 -62 117 -92.5 c 128,-1,11
 68 -123 68 -123 29 -123 c 1,12,-1
 29 -78 l 1,13,14
 56 -78 56 -78 91 -47.5 c 128,-1,15
 126 -17 126 -17 158.5 35 c 128,-1,16
 191 87 191 87 212.5 168.5 c 128,-1,17
 234 250 234 250 234 340 c 0,18,19
 234 421 234 421 219 492.5 c 128,-1,20
 204 564 204 564 181 611 c 128,-1,21
 158 658 158 658 130.5 692.5 c 128,-1,22
 103 727 103 727 77.5 742.5 c 128,-1,23
 52 758 52 758 33 758 c 1,0,-1
EndSplineSet
Validated: 1
EndChar

StartChar: asterisk
Encoding: 42 42 13
Width: 327
GlyphClass: 2
Flags: W
LayerCount: 2
Fore
SplineSet
273 646 m 1,0,-1
 296 602 l 1,1,-1
 210 559 l 1,2,-1
 290 518 l 1,3,-1
 262 479 l 1,4,-1
 186 522 l 1,5,-1
 189 445 l 1,6,-1
 139 445 l 1,7,-1
 143 524 l 1,8,-1
 55 479 l 1,9,-1
 33 518 l 1,10,-1
 123 557 l 1,11,-1
 33 602 l 1,12,-1
 61 646 l 1,13,-1
 143 596 l 1,14,-1
 139 669 l 1,15,-1
 189 669 l 1,16,-1
 186 590 l 1,17,-1
 273 646 l 1,0,-1
EndSplineSet
Validated: 1
EndChar

StartChar: plus
Encoding: 43 43 14
Width: 534
GlyphClass: 2
Flags: W
LayerCount: 2
Fore
SplineSet
296 267 m 1,0,-1
 507 267 l 1,1,-1
 507 217 l 1,2,-1
 296 217 l 1,3,-1
 296 6 l 1,4,-1
 245 6 l 1,5,-1
 245 217 l 1,6,-1
 29 217 l 1,7,-1
 29 267 l 1,8,-1
 245 267 l 1,9,-1
 245 474 l 1,10,-1
 296 474 l 1,11,-1
 296 267 l 1,0,-1
EndSplineSet
Validated: 1
EndChar

StartChar: comma
Encoding: 44 44 15
Width: 144
GlyphClass: 2
Flags: W
LayerCount: 2
Fore
SplineSet
10 -100 m 1,0,-1
 50 -117 l 1,1,2
 63 -110 63 -110 76 -95.5 c 128,-1,3
 89 -81 89 -81 94 -72 c 0,4,5
 132 -23 132 -23 133 61 c 1,6,-1
 68 61 l 1,7,8
 70 1 70 1 39 -55 c 0,9,10
 36 -64 36 -64 26 -80 c 128,-1,11
 16 -96 16 -96 10 -100 c 1,0,-1
EndSplineSet
Validated: 41
EndChar

StartChar: hyphen
Encoding: 45 45 16
Width: 434
GlyphClass: 2
Flags: W
LayerCount: 2
Fore
SplineSet
55 279 m 1,0,-1
 361 279 l 1,1,-1
 361 228 l 1,2,-1
 55 228 l 1,3,-1
 55 279 l 1,0,-1
EndSplineSet
Validated: 1
EndChar

StartChar: period
Encoding: 46 46 17
Width: 149
GlyphClass: 2
Flags: W
LayerCount: 2
Fore
SplineSet
78 -10 m 0,0,1
 56 -10 56 -10 43 3.5 c 128,-1,2
 30 17 30 17 29 39 c 0,3,4
 30 61 30 61 43 75 c 128,-1,5
 56 89 56 89 78 89 c 0,6,7
 101 89 101 89 114.5 75 c 128,-1,8
 128 61 128 61 128 39 c 128,-1,9
 128 17 128 17 114.5 3.5 c 128,-1,10
 101 -10 101 -10 78 -10 c 0,0,1
EndSplineSet
Validated: 1
EndChar

StartChar: slash
Encoding: 47 47 18
Width: 490
GlyphClass: 2
Flags: W
LayerCount: 2
Fore
SplineSet
368 725 m 1,0,-1
 462 725 l 1,1,2
 448 665 448 665 289.5 275 c 128,-1,3
 131 -115 131 -115 123 -156 c 1,4,-1
 29 -156 l 1,5,6
 39 -113 39 -113 194.5 265 c 128,-1,7
 350 643 350 643 368 725 c 1,0,-1
EndSplineSet
Validated: 1
EndChar

StartChar: zero
Encoding: 48 48 19
Width: 584
GlyphClass: 2
Flags: W
LayerCount: 2
Fore
SplineSet
296 -10 m 0,0,1
 182 -11 182 -11 113.5 84.5 c 128,-1,2
 45 180 45 180 45 340 c 0,3,4
 45 494 45 494 113.5 589.5 c 128,-1,5
 182 685 182 685 296 686 c 0,6,7
 405 685 405 685 472.5 589.5 c 128,-1,8
 540 494 540 494 541 340 c 0,9,10
 540 181 540 181 472.5 85 c 128,-1,11
 405 -11 405 -11 296 -10 c 0,0,1
296 39 m 0,12,13
 362 40 362 40 401.5 120.5 c 128,-1,14
 441 201 441 201 445 340 c 1,15,16
 441 474 441 474 401.5 553.5 c 128,-1,17
 362 633 362 633 296 635 c 0,18,19
 226 633 226 633 184 553 c 128,-1,20
 142 473 142 473 139 340 c 1,21,22
 142 201 142 201 184 120.5 c 128,-1,23
 226 40 226 40 296 39 c 0,12,13
EndSplineSet
Validated: 33
EndChar

StartChar: one
Encoding: 49 49 20
Width: 322
GlyphClass: 2
Flags: W
LayerCount: 2
Fore
SplineSet
167 691 m 1,0,-1
 251 691 l 1,1,-1
 251 0 l 1,2,-1
 167 0 l 1,3,-1
 167 603 l 1,4,5
 115 560 115 560 45 557 c 1,6,-1
 45 618 l 1,7,8
 96 618 96 618 167 691 c 1,0,-1
EndSplineSet
Validated: 1
EndChar

StartChar: two
Encoding: 50 50 21
Width: 473
GlyphClass: 2
Flags: W
LayerCount: 2
Fore
SplineSet
173 50 m 1,0,1
 420 50 420 50 440 61 c 1,2,-1
 440 10 l 1,3,4
 435 6 435 6 412.5 3.5 c 128,-1,5
 390 1 390 1 352.5 0 c 128,-1,6
 315 -1 315 -1 283.5 -1 c 128,-1,7
 252 -1 252 -1 206.5 -0.5 c 128,-1,8
 161 0 161 0 145 0 c 2,9,-1
 45 0 l 1,10,11
 46 2 46 2 68.5 41 c 128,-1,12
 91 80 91 80 120 130.5 c 128,-1,13
 149 181 149 181 180.5 236.5 c 128,-1,14
 212 292 212 292 238 339.5 c 128,-1,15
 264 387 264 387 273 407 c 0,16,17
 303 464 303 464 308.5 517.5 c 128,-1,18
 314 571 314 571 295.5 603 c 128,-1,19
 277 635 277 635 240 635 c 0,20,21
 208 635 208 635 180 610.5 c 128,-1,22
 152 586 152 586 140 561 c 2,23,-1
 128 536 l 1,24,-1
 61 596 l 1,25,26
 70 606 70 606 86 621 c 128,-1,27
 102 636 102 636 150 661 c 128,-1,28
 198 686 198 686 245 686 c 0,29,30
 353 686 353 686 388.5 612 c 128,-1,31
 424 538 424 538 361 400 c 0,32,33
 335 349 335 349 173 50 c 1,0,1
EndSplineSet
Validated: 33
EndChar

StartChar: three
Encoding: 51 51 22
Width: 495
GlyphClass: 2
Flags: W
LayerCount: 2
Fore
SplineSet
307 388 m 1,0,1
 321 384 321 384 335 378 c 128,-1,2
 349 372 349 372 370 356.5 c 128,-1,3
 391 341 391 341 406.5 320.5 c 128,-1,4
 422 300 422 300 433.5 265.5 c 128,-1,5
 445 231 445 231 445 189 c 0,6,7
 445 103 445 103 380.5 46 c 128,-1,8
 316 -11 316 -11 228 -10 c 0,9,10
 189 -10 189 -10 152.5 3.5 c 128,-1,11
 116 17 116 17 90.5 36.5 c 128,-1,12
 65 56 65 56 46.5 75.5 c 128,-1,13
 28 95 28 95 18.5 109 c 128,-1,14
 9 123 9 123 10 123 c 2,15,-1
 84 173 l 1,16,17
 82 171 82 171 96 139 c 128,-1,18
 110 107 110 107 145.5 73 c 128,-1,19
 181 39 181 39 228 39 c 0,20,21
 283 39 283 39 322 80.5 c 128,-1,22
 361 122 361 122 361 184 c 0,23,24
 361 229 361 229 341.5 261 c 128,-1,25
 322 293 322 293 294.5 307 c 128,-1,26
 267 321 267 321 239.5 328 c 128,-1,27
 212 335 212 335 192 335 c 2,28,-1
 173 335 l 1,29,-1
 173 390 l 1,30,31
 255 407 255 407 301 483 c 0,32,33
 341 548 341 548 322 600 c 0,34,35
 305 646 305 646 245 646 c 0,36,37
 210 646 210 646 179.5 618 c 128,-1,38
 149 590 149 590 136 565 c 128,-1,39
 123 540 123 540 123 536 c 1,40,-1
 61 591 l 2,41,42
 60 591 60 591 69 602 c 128,-1,43
 78 613 78 613 95 628.5 c 128,-1,44
 112 644 112 644 134 659 c 128,-1,45
 156 674 156 674 185.5 685 c 128,-1,46
 215 696 215 696 245 696 c 0,47,48
 338 696 338 696 380.5 644 c 128,-1,49
 423 592 423 592 402.5 519 c 128,-1,50
 382 446 382 446 307 388 c 1,0,1
EndSplineSet
Validated: 33
EndChar

StartChar: four
Encoding: 52 52 23
Width: 456
GlyphClass: 2
Flags: W
LayerCount: 2
Fore
SplineSet
390 563 m 2,0,-1
 390 123 l 2,1,2
 389 65 389 65 396 0 c 1,3,-1
 312 0 l 1,4,5
 305 29 305 29 306 123 c 2,6,-1
 306 290 l 1,7,-1
 39 290 l 1,8,9
 39 355 39 355 64.5 415.5 c 128,-1,10
 90 476 90 476 127.5 517.5 c 128,-1,11
 165 559 165 559 202 592 c 128,-1,12
 239 625 239 625 266.5 647.5 c 128,-1,13
 294 670 294 670 296 680 c 1,14,-1
 379 680 l 1,15,-1
 379 679 l 1,16,17
 389 643 389 643 390 563 c 2,0,-1
126 340 m 1,18,-1
 306 340 l 1,19,-1
 306 568 l 2,20,21
 306 591 306 591 304 617 c 1,22,23
 234 569 234 569 185.5 505 c 128,-1,24
 137 441 137 441 126 340 c 1,18,-1
EndSplineSet
Validated: 33
EndChar

StartChar: five
Encoding: 53 53 24
Width: 556
GlyphClass: 2
Flags: W
LayerCount: 2
Fore
SplineSet
490 267 m 0,0,1
 490 204 490 204 467.5 150 c 128,-1,2
 445 96 445 96 409 62 c 128,-1,3
 373 28 373 28 330 9 c 128,-1,4
 287 -10 287 -10 245 -10 c 0,5,6
 193 -10 193 -10 143 14.5 c 128,-1,7
 93 39 93 39 69 64 c 2,8,-1
 45 89 l 1,9,-1
 106 145 l 1,10,11
 106 140 106 140 124 115 c 128,-1,12
 142 90 142 90 176.5 64.5 c 128,-1,13
 211 39 211 39 245 39 c 0,14,15
 269 39 269 39 296 52 c 128,-1,16
 323 65 323 65 348.5 90 c 128,-1,17
 374 115 374 115 390.5 158.5 c 128,-1,18
 407 202 407 202 407 256 c 0,19,20
 407 321 407 321 377.5 366.5 c 128,-1,21
 348 412 348 412 307.5 428 c 128,-1,22
 267 444 267 444 224 437.5 c 128,-1,23
 181 431 181 431 156 400 c 1,24,-1
 72 400 l 1,25,-1
 72 674 l 1,26,-1
 156 674 l 2,27,28
 170 674 170 674 245.5 675 c 128,-1,29
 321 676 321 676 365 674 c 128,-1,30
 409 672 409 672 419 664 c 1,31,-1
 419 613 l 1,32,33
 392 625 392 625 156 625 c 1,34,-1
 156 468 l 1,35,36
 187 489 187 489 231 493.5 c 128,-1,37
 275 498 275 498 320 484.5 c 128,-1,38
 365 471 365 471 403.5 443.5 c 128,-1,39
 442 416 442 416 466 369.5 c 128,-1,40
 490 323 490 323 490 267 c 0,0,1
EndSplineSet
Validated: 33
EndChar

StartChar: six
Encoding: 54 54 25
Width: 539
GlyphClass: 2
Flags: W
LayerCount: 2
Fore
SplineSet
273 468 m 0,0,1
 370 468 370 468 433.5 403 c 128,-1,2
 497 338 497 338 497 234 c 0,3,4
 497 123 497 123 436.5 56 c 128,-1,5
 376 -11 376 -11 279 -10 c 0,6,7
 175 -11 175 -11 110.5 56 c 128,-1,8
 46 123 46 123 45 234 c 0,9,10
 42 297 42 297 45 358.5 c 128,-1,11
 48 420 48 420 57.5 472 c 128,-1,12
 67 524 67 524 97 572 c 128,-1,13
 127 620 127 620 178 657 c 0,14,15
 232 692 232 692 291.5 688 c 128,-1,16
 351 684 351 684 398 668 c 128,-1,17
 445 652 445 652 445 646 c 1,18,-1
 351 607 l 1,19,20
 352 608 352 608 345.5 613.5 c 128,-1,21
 339 619 339 619 326.5 624.5 c 128,-1,22
 314 630 314 630 299 633.5 c 128,-1,23
 284 637 284 637 264.5 633.5 c 128,-1,24
 245 630 245 630 228 618 c 0,25,26
 147 568 147 568 125 420 c 1,27,28
 184 468 184 468 273 468 c 0,0,1
279 39 m 0,29,30
 339 41 339 41 377 92.5 c 128,-1,31
 415 144 415 144 413 234 c 0,32,33
 415 318 415 318 374 368.5 c 128,-1,34
 333 419 333 419 273 419 c 0,35,36
 221 419 221 419 174.5 380 c 128,-1,37
 128 341 128 341 128 296 c 2,38,-1
 128 234 l 2,39,40
 129 144 129 144 171.5 92.5 c 128,-1,41
 214 41 214 41 279 39 c 0,29,30
EndSplineSet
Validated: 33
EndChar

StartChar: seven
Encoding: 55 55 26
Width: 478
GlyphClass: 2
Flags: W
LayerCount: 2
Fore
SplineSet
390 686 m 2,0,-1
 445 686 l 1,1,2
 424 637 424 637 342 454 c 128,-1,3
 260 271 260 271 212 152.5 c 128,-1,4
 164 34 164 34 162 0 c 1,5,-1
 72 0 l 1,6,7
 74 24 74 24 90.5 73.5 c 128,-1,8
 107 123 107 123 139 198 c 128,-1,9
 171 273 171 273 199 335 c 128,-1,10
 227 397 227 397 271 493.5 c 128,-1,11
 315 590 315 590 335 635 c 1,12,13
 69 635 69 635 45 625 c 1,14,-1
 45 674 l 1,15,16
 52 679 52 679 82 682 c 128,-1,17
 112 685 112 685 159 685.5 c 128,-1,18
 206 686 206 686 243 686.5 c 128,-1,19
 280 687 280 687 331 686.5 c 128,-1,20
 382 686 382 686 390 686 c 2,0,-1
EndSplineSet
Validated: 33
EndChar

StartChar: eight
Encoding: 56 56 27
Width: 556
GlyphClass: 2
Flags: W
LayerCount: 2
Fore
SplineSet
371 380 m 1,0,1
 438 357 438 357 476 306.5 c 128,-1,2
 514 256 514 256 513 189 c 0,3,4
 512 98 512 98 446 43.5 c 128,-1,5
 380 -11 380 -11 273 -10 c 0,6,7
 170 -11 170 -11 107 43.5 c 128,-1,8
 44 98 44 98 45 189 c 0,9,10
 44 255 44 255 78.5 305.5 c 128,-1,11
 113 356 113 356 175 379 c 1,12,13
 77 421 77 421 78 529 c 0,14,15
 79 600 79 600 133 645.5 c 128,-1,16
 187 691 187 691 273 691 c 0,17,18
 357 691 357 691 409.5 645 c 128,-1,19
 462 599 462 599 462 529 c 0,20,21
 462 422 462 422 371 380 c 1,0,1
156 529 m 0,22,23
 154 464 154 464 185.5 429.5 c 128,-1,24
 217 395 217 395 273 396 c 0,25,26
 327 395 327 395 358 429.5 c 128,-1,27
 389 464 389 464 390 529 c 0,28,29
 391 583 391 583 356.5 612 c 128,-1,30
 322 641 322 641 273 641 c 128,-1,31
 224 641 224 641 190.5 612.5 c 128,-1,32
 157 584 157 584 156 529 c 0,22,23
273 39 m 0,33,34
 339 41 339 41 380.5 80.5 c 128,-1,35
 422 120 422 120 423 189 c 0,36,37
 422 260 422 260 380.5 302 c 128,-1,38
 339 344 339 344 273 345 c 0,39,40
 212 344 212 344 172.5 302 c 128,-1,41
 133 260 133 260 133 189 c 128,-1,42
 133 118 133 118 172 78.5 c 128,-1,43
 211 39 211 39 273 39 c 0,33,34
EndSplineSet
Validated: 33
EndChar

StartChar: nine
Encoding: 57 57 28
Width: 539
GlyphClass: 2
Flags: W
LayerCount: 2
Fore
SplineSet
497 445 m 0,0,1
 498 367 498 367 494.5 317.5 c 128,-1,2
 491 268 491 268 477.5 209 c 128,-1,3
 464 150 464 150 432.5 104.5 c 128,-1,4
 401 59 401 59 351 23 c 0,5,6
 296 -13 296 -13 236.5 -9.5 c 128,-1,7
 177 -6 177 -6 130 10.5 c 128,-1,8
 83 27 83 27 84 33 c 1,9,-1
 178 72 l 1,10,11
 174 70 174 70 191 59 c 0,12,13
 241 27 241 27 292 56 c 0,14,15
 297 58 297 58 301 61 c 0,16,17
 377 115 377 115 408 254 c 1,18,19
 352 210 352 210 267 212 c 0,20,21
 169 210 169 210 106.5 275 c 128,-1,22
 44 340 44 340 45 445 c 0,23,24
 44 554 44 554 104 621.5 c 128,-1,25
 164 689 164 689 262 691 c 0,26,27
 365 689 365 689 430.5 621.5 c 128,-1,28
 496 554 496 554 497 445 c 0,0,1
267 262 m 0,29,30
 319 260 319 260 366 298.5 c 128,-1,31
 413 337 413 337 413 384 c 2,32,-1
 413 445 l 2,33,34
 412 533 412 533 369 585.5 c 128,-1,35
 326 638 326 638 262 641 c 1,36,37
 202 638 202 638 164 586 c 128,-1,38
 126 534 126 534 128 445 c 0,39,40
 126 360 126 360 166.5 310 c 128,-1,41
 207 260 207 260 267 262 c 0,29,30
EndSplineSet
Validated: 33
EndChar

StartChar: colon
Encoding: 58 58 29
Width: 144
GlyphClass: 2
Flags: W
LayerCount: 2
Fore
SplineSet
72 379 m 0,0,1
 51 379 51 379 37 393 c 128,-1,2
 23 407 23 407 23 429 c 0,3,4
 23 450 23 450 37 464.5 c 128,-1,5
 51 479 51 479 72 479 c 0,6,7
 94 479 94 479 108.5 464.5 c 128,-1,8
 123 450 123 450 123 429 c 0,9,10
 123 407 123 407 108.5 393 c 128,-1,11
 94 379 94 379 72 379 c 0,0,1
72 -10 m 0,12,13
 51 -11 51 -11 37 3 c 128,-1,14
 23 17 23 17 23 39 c 0,15,16
 23 60 23 60 37 74.5 c 128,-1,17
 51 89 51 89 72 89 c 0,18,19
 94 89 94 89 108.5 74.5 c 128,-1,20
 123 60 123 60 123 39 c 0,21,22
 123 17 123 17 108.5 3 c 128,-1,23
 94 -11 94 -11 72 -10 c 0,12,13
EndSplineSet
Validated: 33
EndChar

StartChar: semicolon
Encoding: 59 59 30
Width: 184
GlyphClass: 2
Flags: W
LayerCount: 2
Fore
SplineSet
112 379 m 0,0,1
 91 379 91 379 76 393 c 128,-1,2
 61 407 61 407 61 429 c 0,3,4
 61 449 61 449 76 464 c 128,-1,5
 91 479 91 479 112 479 c 128,-1,6
 133 479 133 479 147.5 464.5 c 128,-1,7
 162 450 162 450 162 429 c 0,8,9
 162 407 162 407 148 393 c 128,-1,10
 134 379 134 379 112 379 c 0,0,1
23 -100 m 1,11,-1
 61 -117 l 1,12,13
 79 -106 79 -106 106 -72 c 0,14,15
 139 -24 139 -24 145 61 c 1,16,-1
 78 61 l 1,17,18
 75 -6 75 -6 50 -55 c 0,19,20
 30 -91 30 -91 23 -100 c 1,11,-1
EndSplineSet
Validated: 9
EndChar

StartChar: less
Encoding: 60 60 31
Width: 545
GlyphClass: 2
Flags: W
LayerCount: 2
Fore
SplineSet
33 290 m 1,0,-1
 513 490 l 1,1,-1
 513 413 l 1,2,-1
 152 267 l 1,3,-1
 513 123 l 1,4,-1
 513 45 l 1,5,-1
 33 245 l 1,6,-1
 33 290 l 1,0,-1
EndSplineSet
Validated: 1
EndChar

StartChar: equal
Encoding: 61 61 32
Width: 556
GlyphClass: 2
Flags: W
LayerCount: 2
Fore
SplineSet
39 361 m 1,0,-1
 518 361 l 1,1,-1
 518 312 l 1,2,-1
 39 312 l 1,3,-1
 39 361 l 1,0,-1
39 234 m 1,4,-1
 518 234 l 1,5,-1
 518 184 l 1,6,-1
 39 184 l 1,7,-1
 39 234 l 1,4,-1
EndSplineSet
Validated: 1
EndChar

StartChar: greater
Encoding: 62 62 33
Width: 545
GlyphClass: 2
Flags: W
LayerCount: 2
Fore
SplineSet
33 413 m 1,0,-1
 33 490 l 1,1,-1
 513 290 l 1,2,-1
 513 245 l 1,3,-1
 33 45 l 1,4,-1
 33 123 l 1,5,-1
 395 267 l 1,6,-1
 33 413 l 1,0,-1
EndSplineSet
Validated: 1
EndChar

StartChar: question
Encoding: 63 63 34
Width: 384
GlyphClass: 2
Flags: W
LayerCount: 2
Fore
SplineSet
223 151 m 1,0,-1
 139 151 l 1,1,2
 139 197 139 197 168.5 274.5 c 128,-1,3
 198 352 198 352 234 419 c 0,4,5
 302 548 302 548 261 609 c 0,6,7
 234 648 234 648 182 635 c 0,8,9
 126 622 126 622 97 562 c 0,10,11
 93 552 93 552 89 541 c 1,12,-1
 23 607 l 1,13,14
 25 608 25 608 40 621.5 c 128,-1,15
 55 635 55 635 68 644.5 c 128,-1,16
 81 654 81 654 102.5 666 c 128,-1,17
 124 678 124 678 150.5 684.5 c 128,-1,18
 177 691 177 691 206 691 c 0,19,20
 316 691 316 691 344.5 621.5 c 128,-1,21
 373 552 373 552 312 413 c 0,22,23
 245 264 245 264 232 213 c 0,24,25
 223 177 223 177 223 151 c 1,0,-1
178 -10 m 0,26,27
 156 -11 156 -11 142 3 c 128,-1,28
 128 17 128 17 128 39 c 0,29,30
 128 60 128 60 142 74.5 c 128,-1,31
 156 89 156 89 178 89 c 0,32,33
 199 89 199 89 213.5 74.5 c 128,-1,34
 228 60 228 60 228 39 c 0,35,36
 228 17 228 17 213.5 3 c 128,-1,37
 199 -11 199 -11 178 -10 c 0,26,27
EndSplineSet
Validated: 33
EndChar

StartChar: at
Encoding: 64 64 35
Width: 919
GlyphClass: 2
Flags: W
LayerCount: 2
Fore
SplineSet
462 630 m 1,0,-1
 462 680 l 1,1,2
 645 678 645 678 768.5 554.5 c 128,-1,3
 892 431 892 431 897 245 c 1,4,5
 892 53 892 53 770.5 -62.5 c 128,-1,6
 649 -178 649 -178 462 -178 c 0,7,8
 265 -178 265 -178 144 -63 c 128,-1,9
 23 52 23 52 23 245 c 0,10,11
 23 396 23 396 125 485 c 128,-1,12
 227 574 227 574 379 574 c 0,13,14
 495 574 495 574 583 494.5 c 128,-1,15
 671 415 671 415 674 296 c 2,16,-1
 674 117 l 2,17,18
 672 22 672 22 686 -23 c 1,19,-1
 596 -23 l 1,20,21
 584 9 584 9 580 55 c 1,22,23
 544 19 544 19 483 -10 c 128,-1,24
 422 -39 422 -39 374 -39 c 0,25,26
 357 -39 357 -39 341.5 -37.5 c 128,-1,27
 326 -36 326 -36 301 -29 c 128,-1,28
 276 -22 276 -22 258 -9 c 128,-1,29
 240 4 240 4 226.5 29 c 128,-1,30
 213 54 213 54 212 89 c 0,31,32
 215 183 215 183 329 251 c 0,33,34
 378 281 378 281 463.5 312.5 c 128,-1,35
 549 344 549 344 568 361 c 1,36,37
 547 437 547 437 497 479 c 128,-1,38
 447 521 447 521 379 523 c 0,39,40
 267 521 267 521 190 442 c 128,-1,41
 113 363 113 363 112 245 c 0,42,43
 113 76 113 76 211.5 -28 c 128,-1,44
 310 -132 310 -132 462 -133 c 0,45,46
 601 -132 601 -132 700.5 -26.5 c 128,-1,47
 800 79 800 79 803 245 c 0,48,49
 805 404 805 404 701.5 516 c 128,-1,50
 598 628 598 628 462 630 c 1,0,-1
580 106 m 1,51,-1
 580 123 l 1,52,-1
 580 296 l 1,53,-1
 580 317 l 1,54,55
 566 303 566 303 517.5 281.5 c 128,-1,56
 469 260 469 260 424 240 c 128,-1,57
 379 220 379 220 342.5 181 c 128,-1,58
 306 142 306 142 306 94 c 0,59,60
 305 55 305 55 340 36 c 128,-1,61
 375 17 375 17 429 33 c 1,62,63
 518 50 518 50 580 106 c 1,51,-1
EndSplineSet
Validated: 33
EndChar

StartChar: A
Encoding: 65 65 36
Width: 607
GlyphClass: 2
Flags: W
LayerCount: 2
Fore
SplineSet
574 0 m 1,0,-1
 490 0 l 1,1,-1
 396 251 l 1,2,-1
 171 251 l 1,3,-1
 133 151 l 2,4,5
 94 49 94 49 100 0 c 1,6,-1
 33 0 l 1,7,8
 33 60 33 60 61 133 c 2,9,-1
 223 563 l 2,10,11
 239 604 239 604 253 644.5 c 128,-1,12
 267 685 267 685 267 686 c 1,13,-1
 306 686 l 1,14,-1
 574 0 l 1,0,-1
279 546 m 2,15,-1
 182 284 l 1,16,-1
 383 284 l 1,17,-1
 281 553 l 1,18,19
 281 550 281 550 279 546 c 2,15,-1
EndSplineSet
Validated: 33
EndChar

StartChar: B
Encoding: 66 66 37
Width: 562
GlyphClass: 2
Flags: W
LayerCount: 2
Fore
SplineSet
313 418 m 1,0,1
 402 412 402 412 465.5 358.5 c 128,-1,2
 529 305 529 305 529 212 c 0,3,4
 529 115 529 115 450 58 c 128,-1,5
 371 1 371 1 262 0 c 2,6,-1
 61 0 l 1,7,-1
 61 574 l 2,8,9
 61 662 61 662 50 686 c 1,10,-1
 234 686 l 2,11,12
 314 684 314 684 363 648.5 c 128,-1,13
 412 613 412 613 413 552 c 0,14,15
 411 472 411 472 313 418 c 1,0,1
139 646 m 1,16,-1
 139 604 l 1,17,-1
 139 563 l 1,18,-1
 139 419 l 1,19,20
 166 420 166 420 196.5 427 c 128,-1,21
 227 434 227 434 261 448 c 128,-1,22
 295 462 295 462 317.5 489.5 c 128,-1,23
 340 517 340 517 340 552 c 0,24,25
 339 589 339 589 315.5 617 c 128,-1,26
 292 645 292 645 240 646 c 0,27,28
 140 645 140 645 139 646 c 1,16,-1
234 45 m 0,29,30
 318 45 318 45 379 88 c 128,-1,31
 440 131 440 131 440 212 c 0,32,33
 440 297 440 297 399.5 336 c 128,-1,34
 359 375 359 375 296 374 c 0,35,36
 250 375 250 375 139 368 c 1,37,-1
 139 72 l 2,38,39
 141 59 141 59 170 52 c 128,-1,40
 199 45 199 45 234 45 c 0,29,30
EndSplineSet
Validated: 33
EndChar

StartChar: C
Encoding: 67 67 38
Width: 629
GlyphClass: 2
Flags: W
LayerCount: 2
Fore
SplineSet
345 -10 m 0,0,1
 209 -10 209 -10 120.5 86.5 c 128,-1,2
 32 183 32 183 33 340 c 0,3,4
 32 494 32 494 121 595 c 128,-1,5
 210 696 210 696 345 696 c 0,6,7
 434 696 434 696 490 654 c 128,-1,8
 546 612 546 612 596 523 c 1,9,-1
 518 474 l 1,10,11
 485 567 485 567 443.5 612 c 128,-1,12
 402 657 402 657 340 657 c 0,13,14
 251 657 251 657 184 565.5 c 128,-1,15
 117 474 117 474 117 340 c 0,16,17
 117 210 117 210 187 118.5 c 128,-1,18
 257 27 257 27 345 29 c 0,19,20
 393 30 393 30 432 58.5 c 128,-1,21
 471 87 471 87 490 133 c 1,22,-1
 591 133 l 1,23,24
 553 66 553 66 487.5 28 c 128,-1,25
 422 -10 422 -10 345 -10 c 0,0,1
EndSplineSet
Validated: 33
EndChar

StartChar: D
Encoding: 68 68 39
Width: 613
GlyphClass: 2
Flags: W
LayerCount: 2
Fore
SplineSet
256 686 m 0,0,1
 330 686 330 686 392.5 654 c 128,-1,2
 455 622 455 622 495.5 570 c 128,-1,3
 536 518 536 518 558 455 c 128,-1,4
 580 392 580 392 580 329 c 0,5,6
 580 248 580 248 549.5 182.5 c 128,-1,7
 519 117 519 117 471.5 78.5 c 128,-1,8
 424 40 424 40 370 20 c 128,-1,9
 316 0 316 0 262 0 c 2,10,-1
 55 0 l 1,11,-1
 55 574 l 2,12,13
 55 658 55 658 45 686 c 1,14,-1
 128 686 l 2,15,16
 143 686 143 686 161 686 c 128,-1,17
 179 686 179 686 207 686 c 128,-1,18
 235 686 235 686 256 686 c 0,0,1
234 39 m 0,19,20
 275 39 275 39 317.5 56 c 128,-1,21
 360 73 360 73 399.5 106 c 128,-1,22
 439 139 439 139 464.5 197.5 c 128,-1,23
 490 256 490 256 490 329 c 0,24,25
 490 409 490 409 467 477.5 c 128,-1,26
 444 546 444 546 389.5 593.5 c 128,-1,27
 335 641 335 641 256 641 c 2,28,-1
 139 641 l 1,29,-1
 139 601 l 1,30,-1
 139 563 l 1,31,-1
 139 68 l 2,32,33
 142 53 142 53 171 45.5 c 128,-1,34
 200 38 200 38 234 39 c 0,19,20
EndSplineSet
Validated: 33
EndChar

StartChar: E
Encoding: 69 69 40
Width: 490
GlyphClass: 2
Flags: W
LayerCount: 2
Fore
SplineSet
458 674 m 1,0,-1
 458 625 l 1,1,2
 398 635 398 635 351 635 c 2,3,-1
 135 635 l 1,4,-1
 139 568 l 1,5,-1
 139 396 l 1,6,-1
 384 396 l 1,7,-1
 384 351 l 1,8,-1
 139 351 l 1,9,-1
 139 50 l 1,10,-1
 458 50 l 1,11,-1
 458 0 l 1,12,-1
 61 0 l 1,13,-1
 61 574 l 2,14,15
 60 605 60 605 57 630.5 c 128,-1,16
 54 656 54 656 52 669 c 128,-1,17
 50 682 50 682 50 686 c 1,18,-1
 128 686 l 1,19,-1
 195 686 l 1,20,-1
 340 686 l 2,21,22
 386 686 386 686 458 674 c 1,0,-1
EndSplineSet
Validated: 1
EndChar

StartChar: F
Encoding: 70 70 41
Width: 517
GlyphClass: 2
Flags: W
LayerCount: 2
Fore
SplineSet
484 674 m 2,0,-1
 484 625 l 1,1,2
 482 626 482 626 469.5 628.5 c 128,-1,3
 457 631 457 631 431 633 c 128,-1,4
 405 635 405 635 379 635 c 2,5,-1
 166 635 l 1,6,7
 167 620 167 620 167 568 c 2,8,-1
 167 400 l 1,9,-1
 413 400 l 1,10,-1
 413 351 l 1,11,-1
 167 351 l 1,12,-1
 167 0 l 1,13,-1
 84 0 l 1,14,-1
 84 574 l 2,15,16
 84 599 84 599 82.5 620 c 128,-1,17
 81 641 81 641 79 651.5 c 128,-1,18
 77 662 77 662 74.5 673.5 c 128,-1,19
 72 685 72 685 72 686 c 1,20,-1
 156 686 l 1,21,-1
 223 686 l 1,22,-1
 368 686 l 2,23,24
 398 686 398 686 426.5 683 c 128,-1,25
 455 680 455 680 468.5 677.5 c 128,-1,26
 482 675 482 675 484 674 c 2,0,-1
EndSplineSet
Validated: 1
EndChar

StartChar: G
Encoding: 71 71 42
Width: 634
GlyphClass: 2
Flags: W
LayerCount: 2
Fore
SplineSet
374 345 m 1,0,-1
 580 345 l 1,1,-1
 580 133 l 1,2,3
 542 65 542 65 479.5 27.5 c 128,-1,4
 417 -10 417 -10 340 -10 c 0,5,6
 204 -10 204 -10 116 86 c 128,-1,7
 28 182 28 182 29 340 c 0,8,9
 28 494 28 494 116.5 595 c 128,-1,10
 205 696 205 696 340 696 c 0,11,12
 429 696 429 696 485 654 c 128,-1,13
 541 612 541 612 591 523 c 1,14,-1
 513 474 l 1,15,16
 451 651 451 651 335 652 c 0,17,18
 246 651 246 651 178.5 561.5 c 128,-1,19
 111 472 111 472 112 340 c 0,20,21
 111 211 111 211 181 123 c 128,-1,22
 251 35 251 35 340 33 c 0,23,24
 389 35 389 35 436 60 c 128,-1,25
 483 85 483 85 502 133 c 1,26,-1
 502 296 l 1,27,-1
 374 296 l 1,28,-1
 374 345 l 1,0,-1
EndSplineSet
Validated: 33
EndChar

StartChar: H
Encoding: 72 72 43
Width: 562
GlyphClass: 2
Flags: W
LayerCount: 2
Fore
SplineSet
507 123 m 2,0,1
 507 108 507 108 513 0 c 1,2,-1
 429 0 l 1,3,4
 424 21 424 21 423 123 c 2,5,-1
 423 323 l 1,6,-1
 145 323 l 1,7,-1
 145 123 l 2,8,9
 145 82 145 82 148 43 c 128,-1,10
 151 4 151 4 151 0 c 1,11,-1
 68 0 l 1,12,13
 61 38 61 38 61 123 c 2,14,-1
 61 574 l 2,15,16
 61 662 61 662 50 686 c 1,17,-1
 139 686 l 1,18,19
 145 659 145 659 145 568 c 2,20,-1
 145 374 l 1,21,-1
 423 374 l 1,22,23
 424 667 424 667 423 686 c 1,24,-1
 507 686 l 1,25,-1
 507 123 l 2,0,1
EndSplineSet
Validated: 33
EndChar

StartChar: I
Encoding: 73 73 44
Width: 239
GlyphClass: 2
Flags: W
LayerCount: 2
Fore
SplineSet
72 686 m 1,0,-1
 156 686 l 1,1,2
 162 659 162 659 162 568 c 2,3,-1
 162 123 l 2,4,5
 161 81 161 81 164 41 c 128,-1,6
 167 1 167 1 167 0 c 1,7,-1
 89 0 l 1,8,9
 84 33 84 33 84 123 c 2,10,-1
 84 574 l 2,11,12
 84 657 84 657 72 686 c 1,0,-1
EndSplineSet
Validated: 33
EndChar

StartChar: J
Encoding: 74 74 45
Width: 506
GlyphClass: 2
Flags: W
LayerCount: 2
Fore
SplineSet
368 691 m 1,0,-1
 452 691 l 1,1,2
 440 675 440 675 440 580 c 2,3,-1
 440 184 l 2,4,5
 440 134 440 134 421 97 c 128,-1,6
 402 60 402 60 371.5 39.5 c 128,-1,7
 341 19 341 19 307.5 9.5 c 128,-1,8
 274 0 274 0 240 0 c 128,-1,9
 206 0 206 0 173 9 c 128,-1,10
 140 18 140 18 107 37.5 c 128,-1,11
 74 57 74 57 53.5 95 c 128,-1,12
 33 133 33 133 33 184 c 1,13,-1
 117 206 l 1,14,15
 119 33 119 33 240 33 c 0,16,17
 300 33 300 33 328 74 c 128,-1,18
 356 115 356 115 357 206 c 2,19,-1
 357 574 l 2,20,21
 356 632 356 632 358 650 c 128,-1,22
 360 668 360 668 368 691 c 1,0,-1
EndSplineSet
Validated: 33
EndChar

StartChar: K
Encoding: 75 75 46
Width: 573
GlyphClass: 2
Flags: W
LayerCount: 2
Fore
SplineSet
268 378 m 1,0,-1
 452 145 l 2,1,2
 480 109 480 109 498.5 66.5 c 128,-1,3
 517 24 517 24 518 0 c 1,4,-1
 435 0 l 1,5,6
 432 40 432 40 368 133 c 1,7,-1
 226 321 l 1,8,-1
 167 242 l 1,9,-1
 167 123 l 2,10,11
 167 40 167 40 173 0 c 1,12,-1
 89 0 l 1,13,14
 84 18 84 18 84 123 c 2,15,-1
 84 574 l 2,16,17
 84 620 84 620 72 686 c 1,18,-1
 156 686 l 1,19,20
 165 660 165 660 167 568 c 2,21,-1
 167 346 l 1,22,-1
 317 552 l 2,23,24
 382 648 382 648 384 686 c 1,25,-1
 458 686 l 1,26,27
 456 663 456 663 436.5 620.5 c 128,-1,28
 417 578 417 578 390 541 c 2,29,-1
 268 378 l 1,0,-1
EndSplineSet
Validated: 1
EndChar

StartChar: L
Encoding: 76 76 47
Width: 484
GlyphClass: 2
Flags: W
LayerCount: 2
Fore
SplineSet
161 50 m 1,0,-1
 345 50 l 2,1,2
 372 50 372 50 397.5 52.5 c 128,-1,3
 423 55 423 55 436.5 57.5 c 128,-1,4
 450 60 450 60 452 61 c 1,5,-1
 452 10 l 1,6,7
 418 -1 418 -1 335 0 c 2,8,-1
 72 0 l 1,9,10
 72 1 72 1 75 40 c 128,-1,11
 78 79 78 79 78 123 c 2,12,-1
 78 686 l 1,13,-1
 162 686 l 1,14,-1
 162 123 l 2,15,16
 162 68 162 68 161 50 c 1,0,-1
EndSplineSet
Validated: 33
EndChar

StartChar: M
Encoding: 77 77 48
Width: 913
GlyphClass: 2
Flags: W
LayerCount: 2
Fore
SplineSet
686 686 m 1,0,-1
 881 0 l 1,1,-1
 797 0 l 1,2,-1
 655 541 l 1,3,-1
 479 0 l 1,4,-1
 413 0 l 1,5,-1
 245 547 l 1,6,-1
 245 546 l 1,7,-1
 133 151 l 2,8,9
 102 46 102 46 100 0 c 1,10,-1
 33 0 l 1,11,12
 42 81 42 81 61 133 c 2,13,-1
 234 686 l 1,14,-1
 273 686 l 1,15,-1
 447 103 l 1,16,-1
 646 686 l 1,17,-1
 686 686 l 1,0,-1
EndSplineSet
Validated: 1
EndChar

StartChar: N
Encoding: 78 78 49
Width: 594
GlyphClass: 2
Flags: W
LayerCount: 2
Fore
SplineSet
541 0 m 1,0,-1
 458 0 l 1,1,-1
 145 560 l 1,2,-1
 145 -6 l 1,3,-1
 61 -6 l 1,4,-1
 61 574 l 2,5,6
 61 626 61 626 50 686 c 1,7,-1
 133 686 l 1,8,-1
 452 115 l 1,9,-1
 452 123 l 1,10,-1
 452 574 l 2,11,12
 452 626 452 626 440 686 c 1,13,-1
 523 686 l 1,14,15
 536 647 536 647 536 568 c 2,16,-1
 536 123 l 2,17,18
 536 38 536 38 541 0 c 1,0,-1
EndSplineSet
Validated: 1
EndChar

StartChar: O
Encoding: 79 79 50
Width: 617
GlyphClass: 2
Flags: W
LayerCount: 2
Fore
SplineSet
312 -10 m 0,0,1
 174 -11 174 -11 88 85.5 c 128,-1,2
 2 182 2 182 6 340 c 1,3,4
 2 494 2 494 88.5 594.5 c 128,-1,5
 175 695 175 695 312 696 c 0,6,7
 438 695 438 695 523.5 594 c 128,-1,8
 609 493 609 493 613 340 c 1,9,10
 609 182 609 182 524.5 85.5 c 128,-1,11
 440 -11 440 -11 312 -10 c 0,0,1
312 29 m 0,12,13
 398 29 398 29 462 117 c 128,-1,14
 526 205 526 205 529 340 c 0,15,16
 529 470 529 470 462.5 564 c 128,-1,17
 396 658 396 658 312 657 c 0,18,19
 218 658 218 658 153 565.5 c 128,-1,20
 88 473 88 473 89 340 c 0,21,22
 88 204 88 204 152.5 116.5 c 128,-1,23
 217 29 217 29 312 29 c 0,12,13
EndSplineSet
Validated: 33
EndChar

StartChar: P
Encoding: 80 80 51
Width: 584
GlyphClass: 2
Flags: W
LayerCount: 2
Fore
SplineSet
290 686 m 2,0,1
 400 686 400 686 476 626 c 128,-1,2
 552 566 552 566 552 462 c 0,3,4
 552 364 552 364 485.5 310 c 128,-1,5
 419 256 419 256 323 251 c 1,6,-1
 167 251 l 1,7,-1
 167 0 l 1,8,-1
 84 0 l 1,9,-1
 84 574 l 2,10,11
 84 664 84 664 72 686 c 1,12,-1
 290 686 l 2,0,1
167 301 m 1,13,-1
 323 301 l 2,14,15
 388 301 388 301 428 339 c 128,-1,16
 468 377 468 377 468 462 c 0,17,18
 468 544 468 544 406 589.5 c 128,-1,19
 344 635 344 635 262 635 c 0,20,21
 173 635 173 635 167 613 c 1,22,-1
 167 570 l 1,23,-1
 167 568 l 1,24,-1
 167 301 l 1,13,-1
EndSplineSet
Validated: 1
EndChar

StartChar: Q
Encoding: 81 81 52
Width: 584
GlyphClass: 2
Flags: W
LayerCount: 2
Fore
SplineSet
613 340 m 1,0,1
 610 246 610 246 577 171.5 c 128,-1,2
 544 97 544 97 487 51 c 1,3,-1
 585 -78 l 1,4,-1
 497 -78 l 1,5,-1
 432 15 l 1,6,7
 379 -10 379 -10 312 -10 c 0,8,9
 173 -10 173 -10 87.5 86 c 128,-1,10
 2 182 2 182 6 340 c 1,11,12
 1 495 1 495 87.5 595.5 c 128,-1,13
 174 696 174 696 312 696 c 0,14,15
 437 696 437 696 523 595 c 128,-1,16
 609 494 609 494 613 340 c 1,0,1
312 33 m 0,17,18
 356 33 356 33 400 61 c 1,19,-1
 340 151 l 1,20,-1
 413 151 l 1,21,-1
 447 104 l 1,22,23
 519 190 519 190 523 340 c 0,24,25
 523 469 523 469 458.5 560.5 c 128,-1,26
 394 652 394 652 312 652 c 0,27,28
 220 652 220 652 157 562.5 c 128,-1,29
 94 473 94 473 94 340 c 0,30,31
 94 204 94 204 156 118.5 c 128,-1,32
 218 33 218 33 312 33 c 0,17,18
EndSplineSet
Validated: 33
EndChar

StartChar: R
Encoding: 82 82 53
Width: 584
GlyphClass: 2
Flags: W
LayerCount: 2
Fore
SplineSet
334 258 m 1,0,1
 406 237 406 237 479 157.5 c 128,-1,2
 552 78 552 78 552 0 c 1,3,-1
 462 0 l 1,4,5
 462 102 462 102 367 179 c 128,-1,6
 272 256 272 256 167 256 c 1,7,-1
 175 256 l 1,8,-1
 167 256 l 1,9,-1
 167 0 l 1,10,-1
 89 0 l 1,11,-1
 89 580 l 2,12,13
 89 666 89 666 78 686 c 1,14,-1
 273 686 l 2,15,16
 384 686 384 686 463.5 627.5 c 128,-1,17
 543 569 543 569 541 468 c 0,18,19
 543 376 543 376 483 321.5 c 128,-1,20
 423 267 423 267 334 258 c 1,0,1
167 568 m 1,21,-1
 167 306 l 1,22,-1
 306 306 l 1,23,24
 449 310 449 310 452 468 c 0,25,26
 453 561 453 561 393.5 603.5 c 128,-1,27
 334 646 334 646 245 646 c 0,28,29
 186 646 186 646 167 639 c 1,30,-1
 167 568 l 1,21,-1
EndSplineSet
Validated: 37
EndChar

StartChar: S
Encoding: 83 83 54
Width: 568
GlyphClass: 2
Flags: W
LayerCount: 2
Fore
SplineSet
518 591 m 2,0,-1
 452 529 l 2,1,2
 451 529 451 529 439.5 550.5 c 128,-1,3
 428 572 428 572 412 595.5 c 128,-1,4
 396 619 396 619 365.5 638.5 c 128,-1,5
 335 658 335 658 301 657 c 0,6,7
 254 657 254 657 219 617.5 c 128,-1,8
 184 578 184 578 184 518 c 0,9,10
 183 473 183 473 216.5 438.5 c 128,-1,11
 250 404 250 404 298.5 380 c 128,-1,12
 347 356 347 356 395.5 331.5 c 128,-1,13
 444 307 444 307 478 268 c 128,-1,14
 512 229 512 229 513 178 c 0,15,16
 512 87 512 87 453 38.5 c 128,-1,17
 394 -10 394 -10 306 -10 c 0,18,19
 264 -10 264 -10 222.5 6 c 128,-1,20
 181 22 181 22 151.5 43.5 c 128,-1,21
 122 65 122 65 98 88.5 c 128,-1,22
 74 112 74 112 62.5 127 c 128,-1,23
 51 142 51 142 50 145 c 2,24,-1
 117 206 l 2,25,26
 118 206 118 206 126.5 188 c 128,-1,27
 135 170 135 170 150.5 145 c 128,-1,28
 166 120 166 120 187 94.5 c 128,-1,29
 208 69 208 69 239.5 51 c 128,-1,30
 271 33 271 33 306 33 c 0,31,32
 357 33 357 33 393.5 78 c 128,-1,33
 430 123 430 123 429 178 c 0,34,35
 428 214 428 214 409.5 242.5 c 128,-1,36
 391 271 391 271 362 289.5 c 128,-1,37
 333 308 333 308 298 324 c 128,-1,38
 263 340 263 340 228.5 356.5 c 128,-1,39
 194 373 194 373 165 392 c 128,-1,40
 136 411 136 411 118 440 c 128,-1,41
 100 469 100 469 100 507 c 0,42,43
 100 597 100 597 159 646.5 c 128,-1,44
 218 696 218 696 301 696 c 0,45,46
 339 696 339 696 375 685 c 128,-1,47
 411 674 411 674 435 660 c 128,-1,48
 459 646 459 646 479.5 629 c 128,-1,49
 500 612 500 612 508 603 c 128,-1,50
 516 594 516 594 518 591 c 2,0,-1
EndSplineSet
Validated: 33
EndChar

StartChar: T
Encoding: 84 84 55
Width: 584
GlyphClass: 2
Flags: W
LayerCount: 2
Fore
SplineSet
440 686 m 2,0,1
 509 686 509 686 552 674 c 1,2,-1
 552 625 l 1,3,4
 505 635 505 635 429 635 c 2,5,-1
 329 635 l 1,6,-1
 329 0 l 1,7,-1
 256 0 l 1,8,-1
 256 635 l 1,9,-1
 156 635 l 2,10,11
 66 635 66 635 33 625 c 1,12,-1
 33 674 l 1,13,14
 70 686 70 686 145 686 c 2,15,-1
 167 686 l 1,16,-1
 435 686 l 1,17,-1
 440 686 l 2,0,1
EndSplineSet
Validated: 1
EndChar

StartChar: U
Encoding: 85 85 56
Width: 584
GlyphClass: 2
Flags: W
LayerCount: 2
Fore
SplineSet
541 181 m 1,0,-1
 541 173 l 2,1,2
 538 127 538 127 512 91.5 c 128,-1,3
 486 56 486 56 448 37 c 128,-1,4
 410 18 410 18 372.5 9 c 128,-1,5
 335 0 335 0 301 0 c 0,6,7
 266 0 266 0 227.5 9 c 128,-1,8
 189 18 189 18 148.5 37 c 128,-1,9
 108 56 108 56 81.5 94.5 c 128,-1,10
 55 133 55 133 55 184 c 2,11,-1
 55 580 l 2,12,13
 56 678 56 678 45 691 c 1,14,-1
 128 691 l 1,15,16
 137 669 137 669 138.5 651 c 128,-1,17
 140 633 140 633 139 574 c 2,18,-1
 139 206 l 2,19,20
 140 132 140 132 186 82.5 c 128,-1,21
 232 33 232 33 301 33 c 0,22,23
 366 33 366 33 412 76.5 c 128,-1,24
 458 120 458 120 458 206 c 2,25,-1
 458 696 l 1,26,-1
 541 696 l 1,27,-1
 541 184 l 1,28,-1
 541 181 l 1,0,-1
EndSplineSet
Validated: 33
EndChar

StartChar: V
Encoding: 86 86 57
Width: 584
GlyphClass: 2
Flags: W
LayerCount: 2
Fore
SplineSet
507 686 m 1,0,-1
 574 686 l 1,1,2
 574 625 574 625 546 552 c 2,3,-1
 384 123 l 2,4,5
 368 82 368 82 354 41.5 c 128,-1,6
 340 1 340 1 340 0 c 1,7,-1
 301 0 l 1,8,-1
 33 686 l 1,9,-1
 123 686 l 1,10,-1
 329 146 l 1,11,-1
 474 536 l 2,12,13
 513 641 513 641 507 686 c 1,0,-1
EndSplineSet
Validated: 33
EndChar

StartChar: W
Encoding: 87 87 58
Width: 913
GlyphClass: 2
Flags: W
LayerCount: 2
Fore
SplineSet
813 686 m 1,0,-1
 881 686 l 1,1,2
 873 608 873 608 852 552 c 2,3,-1
 680 -6 l 1,4,-1
 641 -6 l 1,5,-1
 466 582 l 1,6,-1
 267 -6 l 1,7,-1
 228 -6 l 1,8,-1
 33 686 l 1,9,-1
 117 686 l 1,10,-1
 258 145 l 1,11,-1
 435 686 l 1,12,-1
 502 686 l 1,13,-1
 669 139 l 1,14,-1
 780 536 l 2,15,16
 811 639 811 639 813 686 c 1,0,-1
EndSplineSet
Validated: 1
EndChar

StartChar: X
Encoding: 88 88 59
Width: 584
GlyphClass: 2
Flags: W
LayerCount: 2
Fore
SplineSet
311 359 m 1,0,1
 483 49 483 49 518 0 c 1,2,-1
 419 0 l 1,3,4
 409 9 409 9 260 273 c 1,5,6
 108 9 108 9 100 0 c 1,7,-1
 23 0 l 1,8,9
 66 66 66 66 224 338 c 1,10,11
 41 667 41 667 39 686 c 1,12,-1
 133 686 l 1,13,14
 134 675 134 675 274 425 c 1,15,16
 419 674 419 674 419 686 c 1,17,-1
 490 686 l 1,18,19
 487 666 487 666 311 359 c 1,0,1
EndSplineSet
Validated: 1
EndChar

StartChar: y
Encoding: 89 89 60
AltUni2: 000079.ffffffff.0
Width: 429
GlyphClass: 2
Flags: W
LayerCount: 2
Fore
SplineSet
340 440 m 1,0,-1
 407 440 l 1,1,2
 407 425 407 425 405.5 410.5 c 128,-1,3
 404 396 404 396 398.5 376.5 c 128,-1,4
 393 357 393 357 388.5 343 c 128,-1,5
 384 329 384 329 371.5 300 c 128,-1,6
 359 271 359 271 350.5 252.5 c 128,-1,7
 342 234 342 234 322.5 190 c 128,-1,8
 303 146 303 146 290 117 c 0,9,10
 285 108 285 108 268 70 c 128,-1,11
 251 32 251 32 242 15 c 128,-1,12
 233 -2 233 -2 210.5 -32.5 c 128,-1,13
 188 -63 188 -63 166.5 -77.5 c 128,-1,14
 145 -92 145 -92 110 -104.5 c 128,-1,15
 75 -117 75 -117 33 -117 c 1,16,-1
 33 -55 l 1,17,18
 100 -55 100 -55 141 -19.5 c 128,-1,19
 182 16 182 16 213 80 c 1,20,21
 39 284 39 284 33 440 c 1,22,-1
 106 440 l 1,23,24
 110 380 110 380 139 314.5 c 128,-1,25
 168 249 168 249 193.5 213 c 128,-1,26
 219 177 219 177 246 146 c 1,27,28
 340 339 340 339 340 440 c 1,0,-1
EndSplineSet
Validated: 1
EndChar

StartChar: Z
Encoding: 90 90 61
Width: 534
GlyphClass: 2
Flags: W
LayerCount: 2
Fore
SplineSet
168 50 m 1,0,-1
 379 50 l 2,1,2
 406 50 406 50 430.5 52 c 128,-1,3
 455 54 455 54 468.5 56.5 c 128,-1,4
 482 59 482 59 484 61 c 1,5,-1
 484 10 l 2,6,7
 482 8 482 8 467.5 5.5 c 128,-1,8
 453 3 453 3 425.5 1 c 128,-1,9
 398 -1 398 -1 368 0 c 2,10,-1
 39 0 l 1,11,12
 58 27 58 27 191.5 275.5 c 128,-1,13
 325 524 325 524 379 635 c 1,14,-1
 173 635 l 2,15,16
 146 635 146 635 120.5 633 c 128,-1,17
 95 631 95 631 82 628.5 c 128,-1,18
 69 626 69 626 68 625 c 1,19,-1
 68 674 l 2,20,21
 69 675 69 675 83.5 678 c 128,-1,22
 98 681 98 681 126 683.5 c 128,-1,23
 154 686 154 686 184 686 c 2,24,-1
 497 686 l 1,25,26
 494 669 494 669 367 424.5 c 128,-1,27
 240 180 240 180 168 50 c 1,0,-1
EndSplineSet
Validated: 33
EndChar

StartChar: bracketleft
Encoding: 91 91 62
Width: 266
GlyphClass: 2
Flags: W
LayerCount: 2
Fore
SplineSet
240 713 m 1,0,-1
 240 664 l 1,1,-1
 112 664 l 1,2,-1
 112 -106 l 1,3,-1
 240 -106 l 1,4,-1
 240 -156 l 1,5,-1
 29 -156 l 1,6,-1
 29 713 l 1,7,-1
 240 713 l 1,0,-1
EndSplineSet
Validated: 1
EndChar

StartChar: backslash
Encoding: 92 92 63
Width: 490
GlyphClass: 2
Flags: W
LayerCount: 2
Fore
SplineSet
29 725 m 1,0,-1
 123 725 l 1,1,2
 142 646 142 646 297.5 268 c 128,-1,3
 453 -110 453 -110 462 -156 c 1,4,-1
 368 -156 l 1,5,6
 360 -116 360 -116 201.5 273.5 c 128,-1,7
 43 663 43 663 29 725 c 1,0,-1
EndSplineSet
Validated: 1
EndChar

StartChar: bracketright
Encoding: 93 93 64
Width: 266
GlyphClass: 2
Flags: W
LayerCount: 2
Fore
SplineSet
240 713 m 1,0,-1
 240 -156 l 1,1,-1
 29 -156 l 1,2,-1
 29 -106 l 1,3,-1
 156 -106 l 1,4,-1
 156 664 l 1,5,-1
 29 664 l 1,6,-1
 29 713 l 1,7,-1
 240 713 l 1,0,-1
EndSplineSet
Validated: 1
EndChar

StartChar: asciicircum
Encoding: 94 94 65
Width: 495
GlyphClass: 2
Flags: W
LayerCount: 2
Fore
SplineSet
273 680 m 1,0,-1
 474 396 l 1,1,-1
 396 396 l 1,2,-1
 251 596 l 1,3,-1
 100 396 l 1,4,-1
 23 396 l 1,5,-1
 223 680 l 1,6,-1
 273 680 l 1,0,-1
EndSplineSet
Validated: 1
EndChar

StartChar: underscore
Encoding: 95 95 66
Width: 545
GlyphClass: 2
Flags: W
LayerCount: 2
Fore
SplineSet
33 50 m 1,0,-1
 513 50 l 1,1,-1
 513 0 l 1,2,-1
 33 0 l 1,3,-1
 33 50 l 1,0,-1
EndSplineSet
Validated: 1
EndChar

StartChar: grave
Encoding: 96 96 67
Width: 311
GlyphClass: 2
Flags: W
LayerCount: 2
Fore
SplineSet
251 748 m 1,0,-1
 290 774 l 1,1,-1
 201 903 l 1,2,-1
 151 869 l 1,3,-1
 251 748 l 1,0,-1
EndSplineSet
Validated: 9
EndChar

StartChar: a
Encoding: 97 97 68
Width: 429
GlyphClass: 2
Flags: W
LayerCount: 2
Fore
SplineSet
396 0 m 1,0,-1
 323 0 l 1,1,2
 314 29 314 29 313 59 c 1,3,4
 282 33 282 33 234.5 11.5 c 128,-1,5
 187 -10 187 -10 151 -10 c 0,6,7
 137 -10 137 -10 124.5 -9 c 128,-1,8
 112 -8 112 -8 92.5 -2 c 128,-1,9
 73 4 73 4 59 13.5 c 128,-1,10
 45 23 45 23 34 42.5 c 128,-1,11
 23 62 23 62 23 89 c 0,12,13
 24 167 24 167 112 217 c 0,14,15
 154 242 154 242 224 267.5 c 128,-1,16
 294 293 294 293 308 307 c 1,17,18
 294 411 294 411 212 413 c 0,19,20
 197 413 197 413 182 407.5 c 128,-1,21
 167 402 167 402 155.5 393.5 c 128,-1,22
 144 385 144 385 133 375 c 128,-1,23
 122 365 122 365 114.5 355 c 128,-1,24
 107 345 107 345 101 336.5 c 128,-1,25
 95 328 95 328 92 322 c 2,26,-1
 89 317 l 1,27,-1
 45 361 l 1,28,29
 57 374 57 374 72.5 389.5 c 128,-1,30
 88 405 88 405 130.5 428.5 c 128,-1,31
 173 452 173 452 212 452 c 0,32,33
 381 452 381 452 384 256 c 2,34,-1
 384 251 l 1,35,-1
 384 112 l 2,36,37
 385 41 385 41 396 0 c 1,0,-1
195 45 m 0,38,39
 252 58 252 58 312 100 c 1,40,-1
 312 117 l 1,41,-1
 312 251 l 1,42,-1
 312 267 l 1,43,44
 302 258 302 258 263.5 241.5 c 128,-1,45
 225 225 225 225 189 209.5 c 128,-1,46
 153 194 153 194 123.5 163 c 128,-1,47
 94 132 94 132 94 94 c 0,48,49
 94 64 94 64 122.5 49 c 128,-1,50
 151 34 151 34 195 45 c 0,38,39
EndSplineSet
Validated: 33
EndChar

StartChar: b
Encoding: 98 98 69
Width: 529
GlyphClass: 2
Flags: W
LayerCount: 2
Fore
SplineSet
256 452 m 0,0,1
 351 452 351 452 411.5 389 c 128,-1,2
 472 326 472 326 474 223 c 0,3,4
 472 124 472 124 411 62.5 c 128,-1,5
 350 1 350 1 256 0 c 0,6,7
 183 2 183 2 117 0 c 2,8,-1
 45 0 l 1,9,10
 56 43 56 43 55 100 c 2,11,-1
 55 144 l 2,12,13
 55 156 55 156 55 170 c 128,-1,14
 55 184 55 184 55 199.5 c 128,-1,15
 55 215 55 215 55 223 c 2,16,-1
 55 680 l 1,17,-1
 128 680 l 1,18,-1
 128 400 l 1,19,20
 185 452 185 452 256 452 c 0,0,1
251 39 m 0,21,22
 319 40 319 40 359 85.5 c 128,-1,23
 399 131 399 131 400 223 c 0,24,25
 399 311 399 311 359 362 c 128,-1,26
 319 413 319 413 256 413 c 0,27,28
 215 413 215 413 172 380 c 128,-1,29
 129 347 129 347 128 306 c 2,30,-1
 128 106 l 1,31,-1
 128 94 l 1,32,-1
 128 68 l 2,33,34
 129 39 129 39 251 39 c 0,21,22
EndSplineSet
Validated: 33
EndChar

StartChar: c
Encoding: 99 99 70
Width: 461
GlyphClass: 2
Flags: W
LayerCount: 2
Fore
SplineSet
429 329 m 2,0,-1
 361 312 l 1,1,2
 361 315 361 315 359.5 323.5 c 128,-1,3
 358 332 358 332 350.5 348 c 128,-1,4
 343 364 343 364 331.5 378 c 128,-1,5
 320 392 320 392 297.5 402.5 c 128,-1,6
 275 413 275 413 245 413 c 0,7,8
 185 413 185 413 148.5 361.5 c 128,-1,9
 112 310 112 310 112 223 c 0,10,11
 112 133 112 133 151 81 c 128,-1,12
 190 29 190 29 251 29 c 0,13,14
 284 29 284 29 308.5 42.5 c 128,-1,15
 333 56 333 56 342 69 c 128,-1,16
 351 82 351 82 351 89 c 1,17,-1
 419 89 l 1,18,19
 418 58 418 58 372 24 c 128,-1,20
 326 -10 326 -10 251 -10 c 0,21,22
 154 -10 154 -10 93.5 55 c 128,-1,23
 33 120 33 120 33 223 c 0,24,25
 33 323 33 323 94 387.5 c 128,-1,26
 155 452 155 452 251 452 c 0,27,28
 290 452 290 452 322.5 439 c 128,-1,29
 355 426 355 426 374 409 c 128,-1,30
 393 392 393 392 406 373 c 128,-1,31
 419 354 419 354 424 342.5 c 128,-1,32
 429 331 429 331 429 329 c 2,0,-1
EndSplineSet
Validated: 1
EndChar

StartChar: d
Encoding: 100 100 71
Width: 529
GlyphClass: 2
Flags: W
LayerCount: 2
Fore
SplineSet
462 125 m 1,0,-1
 462 100 l 2,1,2
 462 48 462 48 474 0 c 1,3,-1
 400 0 l 2,4,5
 335 2 335 2 262 0 c 0,6,7
 168 1 168 1 107.5 62.5 c 128,-1,8
 47 124 47 124 45 223 c 0,9,10
 47 327 47 327 107.5 389.5 c 128,-1,11
 168 452 168 452 262 452 c 0,12,13
 334 452 334 452 390 401 c 1,14,-1
 390 680 l 1,15,-1
 462 680 l 1,16,-1
 462 223 l 1,17,-1
 462 125 l 1,0,-1
390 68 m 0,18,19
 390 73 390 73 391 82 c 0,20,21
 390 89 390 89 390 106 c 2,22,-1
 390 308 l 2,23,24
 388 349 388 349 345.5 381 c 128,-1,25
 303 413 303 413 262 413 c 0,26,27
 199 413 199 413 159 362 c 128,-1,28
 119 311 119 311 117 223 c 0,29,30
 119 131 119 131 159.5 85.5 c 128,-1,31
 200 40 200 40 267 39 c 0,32,33
 390 39 390 39 390 68 c 0,18,19
EndSplineSet
Validated: 33
EndChar

StartChar: e
Encoding: 101 101 72
Width: 467
GlyphClass: 2
Flags: W
LayerCount: 2
Fore
SplineSet
435 228 m 0,0,1
 435 227 435 227 434 227 c 1,2,-1
 435 223 l 2,3,4
 434 222 434 222 434 223 c 1,5,-1
 106 223 l 1,6,7
 105 139 105 139 145 84.5 c 128,-1,8
 185 30 185 30 240 29 c 0,9,10
 317 30 317 30 351 78 c 1,11,-1
 419 78 l 1,12,13
 361 -10 361 -10 240 -10 c 0,14,15
 149 -10 149 -10 90.5 57.5 c 128,-1,16
 32 125 32 125 33 228 c 0,17,18
 32 327 32 327 90 389.5 c 128,-1,19
 148 452 148 452 240 452 c 0,20,21
 327 452 327 452 380 390.5 c 128,-1,22
 433 329 433 329 435 228 c 0,0,1
240 413 m 0,23,24
 190 412 190 412 152.5 371 c 128,-1,25
 115 330 115 330 108 262 c 1,26,-1
 359 262 l 1,27,28
 352 333 352 333 320.5 372.5 c 128,-1,29
 289 412 289 412 240 413 c 0,23,24
EndSplineSet
Validated: 33
EndChar

StartChar: f
Encoding: 102 102 73
Width: 356
GlyphClass: 2
Flags: W
LayerCount: 2
Fore
SplineSet
245 580 m 0,0,1
 270 580 270 580 291.5 573.5 c 128,-1,2
 313 567 313 567 325.5 558 c 128,-1,3
 338 549 338 549 346.5 540 c 128,-1,4
 355 531 355 531 358.5 524.5 c 128,-1,5
 362 518 362 518 361 518 c 2,6,-1
 301 497 l 1,7,8
 299 502 299 502 295.5 509.5 c 128,-1,9
 292 517 292 517 277.5 529 c 128,-1,10
 263 541 263 541 245 541 c 0,11,12
 208 541 208 541 196.5 510.5 c 128,-1,13
 185 480 185 480 184 407 c 1,14,-1
 262 407 l 1,15,-1
 262 368 l 1,16,-1
 184 368 l 1,17,-1
 184 0 l 1,18,-1
 112 0 l 1,19,-1
 112 368 l 1,20,-1
 45 368 l 1,21,-1
 45 407 l 1,22,-1
 112 407 l 1,23,-1
 112 413 l 2,24,25
 112 436 112 436 113.5 452.5 c 128,-1,26
 115 469 115 469 122.5 495 c 128,-1,27
 130 521 130 521 143 537.5 c 128,-1,28
 156 554 156 554 182.5 567 c 128,-1,29
 209 580 209 580 245 580 c 0,0,1
EndSplineSet
Validated: 1
EndChar

StartChar: g
Encoding: 103 103 74
Width: 484
GlyphClass: 2
Flags: W
LayerCount: 2
Fore
SplineSet
390 440 m 1,0,-1
 462 440 l 1,1,2
 452 390 452 390 452 329 c 2,3,-1
 452 23 l 2,4,5
 451 -88 451 -88 389 -147 c 128,-1,6
 327 -206 327 -206 234 -206 c 0,7,8
 191 -206 191 -206 153 -195.5 c 128,-1,9
 115 -185 115 -185 95.5 -174 c 128,-1,10
 76 -163 76 -163 50 -145 c 1,11,-1
 94 -100 l 1,12,13
 94 -102 94 -102 111.5 -117 c 128,-1,14
 129 -132 129 -132 164 -149 c 128,-1,15
 199 -166 199 -166 234 -167 c 0,16,17
 293 -167 293 -167 335.5 -123 c 128,-1,18
 378 -79 378 -79 379 23 c 2,19,-1
 379 41 l 1,20,21
 325 -10 325 -10 251 -10 c 0,22,23
 156 -10 156 -10 95 52 c 128,-1,24
 34 114 34 114 33 217 c 0,25,26
 34 316 34 316 95 378 c 128,-1,27
 156 440 156 440 251 440 c 2,28,-1
 390 440 l 1,0,-1
251 29 m 0,29,30
 293 29 293 29 335.5 62 c 128,-1,31
 378 95 378 95 379 137 c 2,32,-1
 379 306 l 1,33,-1
 379 312 l 1,34,-1
 379 379 l 2,35,36
 379 393 379 393 341.5 398 c 128,-1,37
 304 403 304 403 256 400 c 0,38,39
 107 392 107 392 106 217 c 0,40,41
 107 130 107 130 147 79.5 c 128,-1,42
 187 29 187 29 251 29 c 0,29,30
EndSplineSet
Validated: 33
EndChar

StartChar: h
Encoding: 104 104 75
Width: 500
GlyphClass: 2
Flags: W
LayerCount: 2
Fore
SplineSet
273 452 m 0,0,1
 340 452 340 452 392.5 410 c 128,-1,2
 445 368 445 368 445 301 c 2,3,-1
 445 0 l 1,4,-1
 374 0 l 1,5,-1
 374 273 l 2,6,7
 374 337 374 337 345.5 375 c 128,-1,8
 317 413 317 413 267 413 c 0,9,10
 232 413 232 413 197.5 389 c 128,-1,11
 163 365 163 365 139 325 c 1,12,-1
 139 0 l 1,13,-1
 68 0 l 1,14,-1
 68 580 l 2,15,16
 68 615 68 615 65 642.5 c 128,-1,17
 62 670 62 670 59 680.5 c 128,-1,18
 56 691 56 691 55 691 c 1,19,-1
 128 691 l 2,20,21
 129 691 129 691 132 680 c 128,-1,22
 135 669 135 669 137.5 640 c 128,-1,23
 140 611 140 611 139 574 c 2,24,-1
 139 396 l 1,25,26
 205 452 205 452 273 452 c 0,0,1
EndSplineSet
Validated: 33
EndChar

StartChar: i
Encoding: 105 105 76
Width: 223
GlyphClass: 2
Flags: W
LayerCount: 2
Fore
SplineSet
106 513 m 0,0,1
 86 513 86 513 72.5 527.5 c 128,-1,2
 59 542 59 542 61 563 c 0,3,4
 59 584 59 584 72.5 598.5 c 128,-1,5
 86 613 86 613 106 613 c 0,6,7
 129 613 129 613 144.5 599 c 128,-1,8
 160 585 160 585 162 563 c 0,9,10
 160 542 160 542 144.5 527.5 c 128,-1,11
 129 513 129 513 106 513 c 0,0,1
68 440 m 1,12,-1
 139 440 l 2,13,14
 141 440 141 440 144 429.5 c 128,-1,15
 147 419 147 419 149.5 390 c 128,-1,16
 152 361 152 361 151 323 c 2,17,-1
 151 0 l 1,18,-1
 84 0 l 1,19,-1
 84 329 l 2,20,21
 83 364 83 364 79 391.5 c 128,-1,22
 75 419 75 419 72 429.5 c 128,-1,23
 69 440 69 440 68 440 c 1,12,-1
EndSplineSet
Validated: 33
EndChar

StartChar: j
Encoding: 106 106 77
Width: 400
GlyphClass: 2
Flags: W
LayerCount: 2
Fore
SplineSet
290 513 m 0,0,1
 269 512 269 512 254.5 526.5 c 128,-1,2
 240 541 240 541 240 563 c 0,3,4
 240 584 240 584 254.5 598 c 128,-1,5
 269 612 269 612 290 613 c 0,6,7
 312 612 312 612 326 598 c 128,-1,8
 340 584 340 584 340 563 c 0,9,10
 340 541 340 541 326 526.5 c 128,-1,11
 312 512 312 512 290 513 c 0,0,1
256 55 m 2,12,-1
 256 440 l 1,13,-1
 329 440 l 1,14,-1
 329 29 l 2,15,16
 329 -139 329 -139 178 -139 c 0,17,18
 157 -139 157 -139 137.5 -134 c 128,-1,19
 118 -129 118 -129 103.5 -120.5 c 128,-1,20
 89 -112 89 -112 77 -102 c 128,-1,21
 65 -92 65 -92 57 -82 c 128,-1,22
 49 -72 49 -72 43 -63.5 c 128,-1,23
 37 -55 37 -55 33.5 -50 c 128,-1,24
 30 -45 30 -45 29 -45 c 1,25,-1
 89 -16 l 2,26,27
 90 -16 90 -16 98.5 -37 c 128,-1,28
 107 -58 107 -58 127.5 -79 c 128,-1,29
 148 -100 148 -100 178 -100 c 0,30,31
 222 -100 222 -100 238.5 -64 c 128,-1,32
 255 -28 255 -28 256 55 c 2,12,-1
EndSplineSet
Validated: 33
EndChar

StartChar: k
Encoding: 107 107 78
Width: 490
GlyphClass: 2
Flags: W
LayerCount: 2
Fore
SplineSet
306 284 m 1,0,1
 364 247 364 247 410 163.5 c 128,-1,2
 456 80 456 80 452 0 c 1,3,-1
 384 0 l 1,4,5
 384 67 384 67 350 143 c 128,-1,6
 316 219 316 219 268 251 c 1,7,8
 216 214 216 214 143 212 c 1,9,-1
 145 0 l 1,10,-1
 78 0 l 1,11,-1
 78 568 l 2,12,13
 78 597 78 597 75.5 625 c 128,-1,14
 73 653 73 653 70 666 c 2,15,-1
 68 680 l 1,16,-1
 128 680 l 1,17,18
 139 635 139 635 139 563 c 2,19,-1
 142 251 l 1,20,21
 209 252 209 252 252.5 308 c 128,-1,22
 296 364 296 364 296 440 c 1,23,-1
 368 440 l 1,24,25
 363 348 363 348 306 284 c 1,0,1
EndSplineSet
Validated: 33
EndChar

StartChar: l
Encoding: 108 108 79
Width: 194
GlyphClass: 2
Flags: W
LayerCount: 2
Fore
SplineSet
55 696 m 2,0,-1
 123 696 l 1,1,2
 137 678 137 678 139 580 c 2,3,-1
 139 0 l 1,4,-1
 68 0 l 1,5,-1
 68 585 l 2,6,7
 68 617 68 617 64 644.5 c 128,-1,8
 60 672 60 672 57 683.5 c 128,-1,9
 54 695 54 695 55 696 c 2,0,-1
EndSplineSet
Validated: 1
EndChar

StartChar: m
Encoding: 109 109 80
Width: 735
GlyphClass: 2
Flags: W
LayerCount: 2
Fore
SplineSet
523 452 m 0,0,1
 591 452 591 452 635 411.5 c 128,-1,2
 679 371 679 371 680 301 c 2,3,-1
 680 0 l 1,4,-1
 607 0 l 1,5,-1
 607 267 l 2,6,7
 605 413 605 413 518 413 c 0,8,9
 447 414 447 414 404 325 c 0,10,11
 404 322 404 322 405 317.5 c 128,-1,12
 406 313 406 313 406.5 309 c 128,-1,13
 407 305 407 305 407 301 c 2,14,-1
 407 0 l 1,15,-1
 335 0 l 1,16,-1
 335 267 l 2,17,18
 332 413 332 413 245 413 c 0,19,20
 182 414 182 414 139 340 c 1,21,-1
 139 317 l 1,22,-1
 139 0 l 1,23,-1
 68 0 l 1,24,-1
 68 323 l 2,25,26
 68 414 68 414 55 440 c 1,27,-1
 128 440 l 1,28,-1
 135 399 l 1,29,30
 186 452 186 452 251 452 c 0,31,32
 349 452 349 452 389 376 c 1,33,34
 411 406 411 406 446 429 c 128,-1,35
 481 452 481 452 523 452 c 0,0,1
EndSplineSet
Validated: 33
EndChar

StartChar: n
Encoding: 110 110 81
Width: 500
GlyphClass: 2
Flags: W
LayerCount: 2
Fore
SplineSet
273 452 m 0,0,1
 340 452 340 452 392.5 410 c 128,-1,2
 445 368 445 368 445 301 c 2,3,-1
 445 0 l 1,4,-1
 374 0 l 1,5,-1
 374 273 l 2,6,7
 374 337 374 337 345.5 375 c 128,-1,8
 317 413 317 413 267 413 c 0,9,10
 231 413 231 413 197 389 c 128,-1,11
 163 365 163 365 139 324 c 1,12,-1
 139 323 l 1,13,-1
 139 0 l 1,14,-1
 68 0 l 1,15,-1
 68 329 l 2,16,17
 68 363 68 363 65 391 c 128,-1,18
 62 419 62 419 58 430 c 2,19,-1
 55 440 l 1,20,-1
 128 440 l 1,21,22
 132 425 132 425 136 393 c 1,23,24
 201 452 201 452 273 452 c 0,0,1
EndSplineSet
Validated: 1
EndChar

StartChar: o
Encoding: 111 111 82
Width: 495
GlyphClass: 2
Flags: W
LayerCount: 2
Fore
SplineSet
245 -10 m 0,0,1
 146 -11 146 -11 84.5 56.5 c 128,-1,2
 23 124 23 124 23 217 c 0,3,4
 23 319 23 319 84 385.5 c 128,-1,5
 145 452 145 452 245 452 c 0,6,7
 347 452 347 452 410.5 384 c 128,-1,8
 474 316 474 316 474 217 c 0,9,10
 474 123 474 123 412.5 56 c 128,-1,11
 351 -11 351 -11 245 -10 c 0,0,1
245 29 m 0,12,13
 312 28 312 28 356 85 c 128,-1,14
 400 142 400 142 400 217 c 0,15,16
 400 300 400 300 359 356.5 c 128,-1,17
 318 413 318 413 245 413 c 0,18,19
 177 413 177 413 133 355.5 c 128,-1,20
 89 298 89 298 89 217 c 0,21,22
 89 144 89 144 135.5 86 c 128,-1,23
 182 28 182 28 245 29 c 0,12,13
EndSplineSet
Validated: 33
EndChar

StartChar: p
Encoding: 112 112 83
Width: 529
GlyphClass: 2
Flags: W
LayerCount: 2
Fore
SplineSet
267 440 m 0,0,1
 363 441 363 441 423.5 379 c 128,-1,2
 484 317 484 317 484 217 c 0,3,4
 484 114 484 114 424 52.5 c 128,-1,5
 364 -9 364 -9 267 -10 c 0,6,7
 194 -10 194 -10 139 42 c 1,8,-1
 139 -206 l 1,9,-1
 68 -206 l 1,10,-1
 68 340 l 2,11,12
 68 418 68 418 55 440 c 1,13,-1
 127 440 l 1,14,-1
 128 440 l 2,15,16
 199 442 199 442 267 440 c 0,0,1
267 29 m 0,17,18
 332 30 332 30 372.5 80 c 128,-1,19
 413 130 413 130 413 217 c 0,20,21
 413 392 413 392 262 400 c 0,22,23
 221 402 221 402 180 397 c 128,-1,24
 139 392 139 392 139 374 c 2,25,-1
 139 337 l 1,26,-1
 139 335 l 1,27,-1
 139 139 l 2,28,29
 139 97 139 97 182.5 63.5 c 128,-1,30
 226 30 226 30 267 29 c 0,17,18
EndSplineSet
Validated: 33
EndChar

StartChar: q
Encoding: 113 113 84
Width: 517
GlyphClass: 2
Flags: W
LayerCount: 2
Fore
SplineSet
414 440 m 1,0,-1
 484 440 l 1,1,2
 473 421 473 421 474 340 c 2,3,-1
 474 -206 l 1,4,-1
 400 -206 l 1,5,-1
 400 42 l 1,6,7
 345 -10 345 -10 273 -10 c 0,8,9
 176 -9 176 -9 115.5 53 c 128,-1,10
 55 115 55 115 55 217 c 0,11,12
 55 317 55 317 116 379 c 128,-1,13
 177 441 177 441 273 440 c 0,14,15
 341 442 341 442 413 440 c 2,16,-1
 414 440 l 1,0,-1
273 29 m 0,17,18
 314 30 314 30 357 63.5 c 128,-1,19
 400 97 400 97 400 139 c 2,20,-1
 400 335 l 1,21,-1
 400 337 l 1,22,-1
 400 374 l 2,23,24
 400 392 400 392 359.5 397 c 128,-1,25
 319 402 319 402 279 400 c 0,26,27
 128 392 128 392 128 217 c 0,28,29
 128 130 128 130 168 80 c 128,-1,30
 208 30 208 30 273 29 c 0,17,18
EndSplineSet
Validated: 33
EndChar

StartChar: r
Encoding: 114 114 85
Width: 395
GlyphClass: 2
Flags: W
LayerCount: 2
Fore
SplineSet
240 452 m 0,0,1
 282 452 282 452 319.5 429 c 128,-1,2
 357 406 357 406 374 384 c 2,3,-1
 390 361 l 1,4,-1
 317 329 l 1,5,6
 314 338 314 338 308 352 c 128,-1,7
 302 366 302 366 280 389.5 c 128,-1,8
 258 413 258 413 234 413 c 0,9,10
 178 414 178 414 138 350 c 1,11,12
 139 340 139 340 139 317 c 2,13,-1
 139 0 l 1,14,-1
 68 0 l 1,15,-1
 68 323 l 2,16,17
 68 356 68 356 65 384.5 c 128,-1,18
 62 413 62 413 59.5 425.5 c 128,-1,19
 57 438 57 438 55 440 c 1,20,-1
 128 440 l 1,21,-1
 134 403 l 1,22,23
 180 453 180 453 240 452 c 0,0,1
EndSplineSet
Validated: 33
EndChar

StartChar: s
Encoding: 115 115 86
Width: 356
GlyphClass: 2
Flags: W
LayerCount: 2
Fore
SplineSet
329 384 m 1,0,-1
 279 340 l 1,1,-1
 278 344 l 2,2,3
 276 348 276 348 273.5 354.5 c 128,-1,4
 271 361 271 361 267.5 368.5 c 128,-1,5
 264 376 264 376 257.5 384 c 128,-1,6
 251 392 251 392 243.5 398.5 c 128,-1,7
 236 405 236 405 225 409 c 128,-1,8
 214 413 214 413 201 413 c 0,9,10
 170 413 170 413 154.5 392.5 c 128,-1,11
 139 372 139 372 139 345 c 0,12,13
 139 321 139 321 169.5 294 c 128,-1,14
 200 267 200 267 237 244.5 c 128,-1,15
 274 222 274 222 304.5 187.5 c 128,-1,16
 335 153 335 153 335 117 c 0,17,18
 335 65 335 65 289.5 27.5 c 128,-1,19
 244 -10 244 -10 184 -10 c 0,20,21
 164 -10 164 -10 144.5 -4.5 c 128,-1,22
 125 1 125 1 109.5 9.5 c 128,-1,23
 94 18 94 18 80 28.5 c 128,-1,24
 66 39 66 39 56 50 c 128,-1,25
 46 61 46 61 38.5 69.5 c 128,-1,26
 31 78 31 78 27 84 c 2,27,-1
 23 89 l 1,28,-1
 72 133 l 1,29,-1
 76 122 l 2,30,31
 81 112 81 112 90 96.5 c 128,-1,32
 99 81 99 81 111 65.5 c 128,-1,33
 123 50 123 50 142.5 39.5 c 128,-1,34
 162 29 162 29 184 29 c 0,35,36
 217 28 217 28 239.5 53.5 c 128,-1,37
 262 79 262 79 262 117 c 0,38,39
 262 151 262 151 231.5 181 c 128,-1,40
 201 211 201 211 164.5 230.5 c 128,-1,41
 128 250 128 250 98 277.5 c 128,-1,42
 68 305 68 305 68 335 c 0,43,44
 67 385 67 385 109 418.5 c 128,-1,45
 151 452 151 452 195 452 c 0,46,47
 213 452 213 452 230 448 c 128,-1,48
 247 444 247 444 260 438.5 c 128,-1,49
 273 433 273 433 284.5 425.5 c 128,-1,50
 296 418 296 418 304 410.5 c 128,-1,51
 312 403 312 403 317.5 397.5 c 128,-1,52
 323 392 323 392 326 388 c 2,53,-1
 329 384 l 1,0,-1
EndSplineSet
Validated: 33
EndChar

StartChar: t
Encoding: 116 116 87
Width: 333
GlyphClass: 2
Flags: W
LayerCount: 2
Fore
SplineSet
273 84 m 1,0,-1
 323 61 l 1,1,2
 322 59 322 59 320 54.5 c 128,-1,3
 318 50 318 50 309.5 39.5 c 128,-1,4
 301 29 301 29 290 21 c 128,-1,5
 279 13 279 13 258 6.5 c 128,-1,6
 237 0 237 0 212 0 c 0,7,8
 93 0 93 0 89 145 c 1,9,-1
 89 400 l 1,10,-1
 23 400 l 1,11,-1
 23 440 l 1,12,-1
 89 440 l 1,13,-1
 89 580 l 1,14,-1
 162 580 l 1,15,-1
 162 440 l 1,16,-1
 240 440 l 1,17,-1
 240 400 l 1,18,-1
 162 400 l 1,19,-1
 162 173 l 2,20,21
 163 39 163 39 217 39 c 0,22,23
 225 39 225 39 232.5 41.5 c 128,-1,24
 240 44 240 44 245 48 c 128,-1,25
 250 52 250 52 255 56.5 c 128,-1,26
 260 61 260 61 263 66 c 128,-1,27
 266 71 266 71 268 75 c 128,-1,28
 270 79 270 79 272 82 c 2,29,-1
 273 84 l 1,0,-1
EndSplineSet
Validated: 1
EndChar

StartChar: u
Encoding: 117 117 88
Width: 500
GlyphClass: 2
Flags: W
LayerCount: 2
Fore
SplineSet
445 0 m 1,0,-1
 374 0 l 1,1,2
 369 16 369 16 365 51 c 1,3,4
 307 -5 307 -5 234 -6 c 0,5,6
 164 -5 164 -5 109.5 31 c 128,-1,7
 55 67 55 67 55 133 c 2,8,-1
 55 440 l 1,9,-1
 128 440 l 1,10,-1
 128 167 l 2,11,12
 128 101 128 101 158 67 c 128,-1,13
 188 33 188 33 240 33 c 0,14,15
 309 33 309 33 361 118 c 1,16,-1
 361 440 l 1,17,-1
 435 440 l 1,18,-1
 435 112 l 2,19,20
 435 78 435 78 437.5 50 c 128,-1,21
 440 22 440 22 442 11 c 2,22,-1
 445 0 l 1,0,-1
EndSplineSet
Validated: 1
EndChar

StartChar: v
Encoding: 118 118 89
Width: 429
GlyphClass: 2
Flags: W
LayerCount: 2
Fore
SplineSet
345 440 m 1,0,-1
 407 440 l 1,1,2
 407 407 407 407 393.5 357 c 128,-1,3
 380 307 380 307 366 273 c 128,-1,4
 352 239 352 239 351 240 c 1,5,6
 353 238 353 238 251 0 c 1,7,-1
 212 0 l 1,8,-1
 23 440 l 1,9,-1
 94 440 l 1,10,-1
 236 102 l 1,11,12
 247 126 247 126 260 156 c 128,-1,13
 273 186 273 186 282 207 c 2,14,-1
 290 228 l 2,15,16
 292 228 292 228 305.5 260 c 128,-1,17
 319 292 319 292 332.5 345 c 128,-1,18
 346 398 346 398 345 440 c 1,0,-1
EndSplineSet
Validated: 33
EndChar

StartChar: w
Encoding: 119 119 90
Width: 646
GlyphClass: 2
Flags: W
LayerCount: 2
Fore
SplineSet
568 440 m 1,0,-1
 625 440 l 1,1,2
 624 405 624 405 610.5 354.5 c 128,-1,3
 597 304 597 304 586 272 c 2,4,-1
 574 240 l 2,5,6
 573 240 573 240 550.5 180 c 128,-1,7
 528 120 528 120 506 60 c 2,8,-1
 484 0 l 1,9,-1
 445 0 l 1,10,-1
 319 322 l 1,11,-1
 217 0 l 1,12,-1
 178 0 l 1,13,-1
 23 440 l 1,14,-1
 94 440 l 1,15,-1
 206 119 l 1,16,-1
 306 440 l 1,17,-1
 345 440 l 1,18,-1
 474 109 l 1,19,-1
 518 228 l 2,20,21
 567 349 567 349 568 440 c 1,0,-1
EndSplineSet
Validated: 1
EndChar

StartChar: x
Encoding: 120 120 91
Width: 417
GlyphClass: 2
Flags: W
LayerCount: 2
Fore
SplineSet
241 222 m 1,0,-1
 400 0 l 1,1,-1
 317 0 l 1,2,3
 304 23 304 23 204 169 c 1,4,-1
 89 0 l 1,5,-1
 16 0 l 1,6,7
 51 46 51 46 170 217 c 1,8,-1
 100 317 l 2,9,10
 29 420 29 420 29 440 c 1,11,-1
 106 440 l 1,12,13
 106 429 106 429 132 383 c 128,-1,14
 158 337 158 337 184 301 c 2,15,-1
 207 270 l 1,16,17
 209 273 209 273 216 284 c 128,-1,18
 223 295 223 295 228 301 c 0,19,20
 312 419 312 419 312 440 c 1,21,-1
 379 440 l 1,22,23
 379 424 379 424 306 317 c 2,24,-1
 241 222 l 1,0,-1
EndSplineSet
Validated: 1
EndChar

StartChar: z
Encoding: 122 122 92
Width: 389
GlyphClass: 2
Flags: W
LayerCount: 2
Fore
SplineSet
306 317 m 2,0,-1
 121 39 l 1,1,-1
 262 39 l 2,2,3
 288 39 288 39 313.5 41.5 c 128,-1,4
 339 44 339 44 352 46.5 c 128,-1,5
 365 49 365 49 368 50 c 1,6,-1
 368 10 l 2,7,8
 367 9 367 9 353 6.5 c 128,-1,9
 339 4 339 4 310 2 c 128,-1,10
 281 0 281 0 251 0 c 2,11,-1
 23 0 l 1,12,13
 56 78 56 78 223 301 c 0,14,15
 258 347 258 347 284 413 c 1,16,-1
 151 413 l 2,17,18
 88 413 88 413 45 400 c 1,19,-1
 45 440 l 1,20,21
 91 453 91 453 162 452 c 2,22,-1
 368 452 l 1,23,24
 369 438 369 438 349.5 395.5 c 128,-1,25
 330 353 330 353 306 317 c 2,0,-1
EndSplineSet
Validated: 33
EndChar

StartChar: braceleft
Encoding: 123 123 93
Width: 262
GlyphClass: 2
Flags: W
LayerCount: 2
Fore
SplineSet
234 713 m 1,0,-1
 234 664 l 1,1,2
 200 664 200 664 176.5 633 c 128,-1,3
 153 602 153 602 150 563 c 128,-1,4
 147 524 147 524 156 490 c 0,5,6
 169 455 169 455 176.5 423 c 128,-1,7
 184 391 184 391 185 354.5 c 128,-1,8
 186 318 186 318 166.5 296 c 128,-1,9
 147 274 147 274 108 273 c 1,10,11
 148 273 148 273 167 251.5 c 128,-1,12
 186 230 186 230 185 193.5 c 128,-1,13
 184 157 184 157 176.5 124 c 128,-1,14
 169 91 169 91 156 55 c 0,15,16
 147 22 147 22 150 -16 c 128,-1,17
 153 -54 153 -54 176.5 -85.5 c 128,-1,18
 200 -117 200 -117 234 -117 c 1,19,-1
 234 -167 l 1,20,21
 134 -166 134 -166 84 -98 c 128,-1,22
 34 -30 34 -30 68 61 c 0,23,24
 71 71 71 71 80 94 c 128,-1,25
 89 117 89 117 94 133.5 c 128,-1,26
 99 150 99 150 104.5 173 c 128,-1,27
 110 196 110 196 108.5 211.5 c 128,-1,28
 107 227 107 227 100 242.5 c 128,-1,29
 93 258 93 258 75 265.5 c 128,-1,30
 57 273 57 273 29 273 c 1,31,32
 54 273 54 273 70.5 280 c 128,-1,33
 87 287 87 287 95.5 297 c 128,-1,34
 104 307 104 307 106.5 323 c 128,-1,35
 109 339 109 339 107.5 354 c 128,-1,36
 106 369 106 369 101 389 c 128,-1,37
 96 409 96 409 90.5 423 c 128,-1,38
 85 437 85 437 78 456 c 128,-1,39
 71 475 71 475 68 484 c 0,40,41
 34 577 34 577 84 646 c 128,-1,42
 134 715 134 715 234 713 c 1,0,-1
EndSplineSet
Validated: 33
EndChar

StartChar: bar
Encoding: 124 124 94
Width: 178
GlyphClass: 2
Flags: W
LayerCount: 2
Fore
SplineSet
39 719 m 1,0,-1
 123 719 l 1,1,2
 130 694 130 694 131.5 678 c 128,-1,3
 133 662 133 662 133 602 c 2,4,-1
 133 -23 l 2,5,6
 133 -59 133 -59 136 -101.5 c 128,-1,7
 139 -144 139 -144 139 -151 c 1,8,-1
 55 -151 l 1,9,10
 50 -124 50 -124 50 -23 c 2,11,-1
 50 602 l 2,12,13
 50 706 50 706 39 719 c 1,0,-1
EndSplineSet
Validated: 1
EndChar

StartChar: braceright
Encoding: 125 125 95
Width: 262
GlyphClass: 2
Flags: W
LayerCount: 2
Fore
SplineSet
234 273 m 1,0,1
 206 273 206 273 188 265.5 c 128,-1,2
 170 258 170 258 163 242.5 c 128,-1,3
 156 227 156 227 154.5 211.5 c 128,-1,4
 153 196 153 196 158.5 173 c 128,-1,5
 164 150 164 150 169 133.5 c 128,-1,6
 174 117 174 117 183 94 c 128,-1,7
 192 71 192 71 195 61 c 0,8,9
 229 -30 229 -30 179 -98 c 128,-1,10
 129 -166 129 -166 29 -167 c 1,11,-1
 29 -117 l 1,12,13
 63 -117 63 -117 86 -85.5 c 128,-1,14
 109 -54 109 -54 112 -16 c 128,-1,15
 115 22 115 22 106 55 c 0,16,17
 93 91 93 91 86 124 c 128,-1,18
 79 157 79 157 78 193.5 c 128,-1,19
 77 230 77 230 96 251.5 c 128,-1,20
 115 273 115 273 155 273 c 1,21,22
 116 274 116 274 96.5 296 c 128,-1,23
 77 318 77 318 77.5 354 c 128,-1,24
 78 390 78 390 85.5 422.5 c 128,-1,25
 93 455 93 455 106 490 c 0,26,27
 115 524 115 524 112 563 c 128,-1,28
 109 602 109 602 86 633 c 128,-1,29
 63 664 63 664 29 664 c 1,30,-1
 29 713 l 1,31,32
 129 715 129 715 179 646 c 128,-1,33
 229 577 229 577 195 484 c 0,34,35
 192 475 192 475 185 456 c 128,-1,36
 178 437 178 437 172.5 423 c 128,-1,37
 167 409 167 409 162 389 c 128,-1,38
 157 369 157 369 155.5 354 c 128,-1,39
 154 339 154 339 156.5 323 c 128,-1,40
 159 307 159 307 167.5 297 c 128,-1,41
 176 287 176 287 192.5 280 c 128,-1,42
 209 273 209 273 234 273 c 1,0,1
EndSplineSet
Validated: 33
EndChar

StartChar: asciitilde
Encoding: 126 126 96
Width: 545
GlyphClass: 2
Flags: W
LayerCount: 2
Fore
SplineSet
513 390 m 1,0,-1
 513 317 l 1,1,2
 508 316 508 316 485 302.5 c 128,-1,3
 462 289 462 289 440 279 c 128,-1,4
 418 269 418 269 384 263.5 c 128,-1,5
 350 258 350 258 323 273 c 2,6,-1
 201 329 l 2,7,8
 157 345 157 345 119.5 338.5 c 128,-1,9
 82 332 82 332 58 316 c 2,10,-1
 33 301 l 1,11,-1
 33 374 l 1,12,13
 37 377 37 377 43.5 381 c 128,-1,14
 50 385 50 385 70 394 c 128,-1,15
 90 403 90 403 110 408 c 128,-1,16
 130 413 130 413 156.5 412 c 128,-1,17
 183 411 183 411 206 400 c 2,18,-1
 323 345 l 2,19,20
 350 329 350 329 384 334.5 c 128,-1,21
 418 340 418 340 440.5 350.5 c 128,-1,22
 463 361 463 361 485.5 375 c 128,-1,23
 508 389 508 389 513 390 c 1,0,-1
EndSplineSet
Validated: 33
EndChar

StartChar: exclamdown
Encoding: 161 161 97
Width: 172
GlyphClass: 2
Flags: W
LayerCount: 2
Fore
SplineSet
84 507 m 0,0,1
 106 507 106 507 120 493 c 128,-1,2
 134 479 134 479 133 458 c 0,3,4
 134 436 134 436 120 421.5 c 128,-1,5
 106 407 106 407 84 407 c 0,6,7
 63 407 63 407 48.5 421.5 c 128,-1,8
 34 436 34 436 33 458 c 0,9,10
 34 479 34 479 48.5 493 c 128,-1,11
 63 507 63 507 84 507 c 0,0,1
139 -201 m 1,12,-1
 55 -201 l 1,13,14
 48 -180 48 -180 46.5 -162 c 128,-1,15
 45 -144 45 -144 45 -84 c 2,16,-1
 45 212 l 2,17,18
 45 262 45 262 39 340 c 1,19,-1
 123 340 l 1,20,21
 129 306 129 306 128 212 c 2,22,-1
 128 -89 l 2,23,24
 129 -171 129 -171 139 -201 c 1,12,-1
EndSplineSet
Validated: 33
EndChar

StartChar: cent
Encoding: 162 162 98
Width: 495
GlyphClass: 2
Flags: W
LayerCount: 2
Fore
SplineSet
290 560 m 1,0,1
 315 556 315 556 337.5 547 c 128,-1,2
 360 538 360 538 376 526 c 128,-1,3
 392 514 392 514 405 501 c 128,-1,4
 418 488 418 488 426.5 475 c 128,-1,5
 435 462 435 462 440.5 452 c 128,-1,6
 446 442 446 442 449 436 c 2,7,-1
 452 429 l 1,8,-1
 379 413 l 1,9,-1
 378 417 l 2,10,11
 377 421 377 421 374.5 428.5 c 128,-1,12
 372 436 372 436 368.5 445 c 128,-1,13
 365 454 365 454 358 464.5 c 128,-1,14
 351 475 351 475 342.5 484 c 128,-1,15
 334 493 334 493 320 501 c 128,-1,16
 306 509 306 509 290 513 c 1,17,-1
 290 123 l 1,18,-1
 290 108 l 1,19,20
 326 114 326 114 346.5 136 c 128,-1,21
 367 158 367 158 368 173 c 1,22,-1
 440 173 l 1,23,24
 438 139 438 139 398 104 c 128,-1,25
 358 69 358 69 292 62 c 1,26,27
 293 46 293 46 294.5 23 c 128,-1,28
 296 0 296 0 296 -6 c 1,29,-1
 212 -6 l 1,30,31
 208 16 208 16 206 66 c 1,32,33
 122 81 122 81 72 148.5 c 128,-1,34
 22 216 22 216 23 317 c 0,35,36
 22 408 22 408 72 473.5 c 128,-1,37
 122 539 122 539 206 557 c 1,38,39
 205 642 205 642 195 657 c 1,40,-1
 279 657 l 1,41,42
 290 621 290 621 290 560 c 1,0,1
106 317 m 0,43,44
 106 237 106 237 133 184.5 c 128,-1,45
 160 132 160 132 206 113 c 1,46,-1
 206 123 l 1,47,-1
 206 510 l 1,48,49
 160 492 160 492 133 440.5 c 128,-1,50
 106 389 106 389 106 317 c 0,43,44
EndSplineSet
Validated: 33
EndChar

StartChar: sterling
Encoding: 163 163 99
Width: 473
GlyphClass: 2
Flags: W
LayerCount: 2
Fore
SplineSet
137 49 m 1,0,1
 433 49 433 49 445 61 c 1,2,-1
 445 10 l 1,3,4
 441 4 441 4 404 0.5 c 128,-1,5
 367 -3 367 -3 311.5 -3 c 128,-1,6
 256 -3 256 -3 203.5 -2.5 c 128,-1,7
 151 -2 151 -2 97 -1 c 128,-1,8
 43 0 43 0 29 0 c 1,9,-1
 29 50 l 1,10,11
 31 50 31 50 42.5 56.5 c 128,-1,12
 54 63 54 63 71 76.5 c 128,-1,13
 88 90 88 90 103 107 c 128,-1,14
 118 124 118 124 127 149.5 c 128,-1,15
 136 175 136 175 133 201 c 0,16,17
 123 271 123 271 113 311 c 1,18,19
 92 310 92 310 73 307.5 c 128,-1,20
 54 305 54 305 43 303 c 128,-1,21
 32 301 32 301 29 301 c 1,22,-1
 29 351 l 1,23,24
 54 360 54 360 100 361 c 1,25,26
 98 367 98 367 94 382.5 c 128,-1,27
 90 398 90 398 89 400 c 0,28,29
 51 539 51 539 100.5 612.5 c 128,-1,30
 150 686 150 686 256 686 c 0,31,32
 304 686 304 686 349.5 663.5 c 128,-1,33
 395 641 395 641 419.5 618.5 c 128,-1,34
 444 596 444 596 440 596 c 2,35,-1
 374 536 l 1,36,37
 375 540 375 540 362.5 563 c 128,-1,38
 350 586 350 586 322.5 610.5 c 128,-1,39
 295 635 295 635 262 635 c 0,40,41
 207 635 207 635 181 568.5 c 128,-1,42
 155 502 155 502 178 407 c 0,43,44
 184 389 184 389 191 361 c 1,45,46
 243 361 243 361 276 363 c 128,-1,47
 309 365 309 365 320.5 366.5 c 128,-1,48
 332 368 332 368 335 368 c 1,49,-1
 335 317 l 1,50,51
 331 317 331 317 324.5 316.5 c 128,-1,52
 318 316 318 316 308 315.5 c 128,-1,53
 298 315 298 315 271 314 c 128,-1,54
 244 313 244 313 205 312 c 1,55,56
 220 256 220 256 228 201 c 0,57,58
 244 110 244 110 137 49 c 1,0,1
EndSplineSet
Validated: 33
EndChar

StartChar: currency
Encoding: 164 164 100
Width: 517
GlyphClass: 2
Flags: W
LayerCount: 2
Fore
SplineSet
462 296 m 0,0,1
 462 221 462 221 417 167 c 1,2,-1
 490 89 l 1,3,-1
 458 55 l 1,4,-1
 382 133 l 1,5,6
 332 94 332 94 267 94 c 0,7,8
 194 94 194 94 140 139 c 1,9,-1
 61 55 l 1,10,-1
 29 89 l 1,11,-1
 108 174 l 1,12,13
 68 226 68 226 68 296 c 0,14,15
 68 358 68 358 102 404 c 1,16,-1
 23 484 l 1,17,-1
 55 518 l 1,18,-1
 133 440 l 1,19,20
 189 490 189 490 267 490 c 0,21,22
 335 490 335 490 389 444 c 1,23,-1
 462 518 l 1,24,-1
 497 484 l 1,25,-1
 422 411 l 1,26,27
 462 358 462 358 462 296 c 0,0,1
139 296 m 0,28,29
 139 244 139 244 176.5 205.5 c 128,-1,30
 214 167 214 167 267 167 c 0,31,32
 314 167 314 167 352 205 c 128,-1,33
 390 243 390 243 390 296 c 0,34,35
 390 345 390 345 352 382 c 128,-1,36
 314 419 314 419 267 419 c 0,37,38
 213 419 213 419 176 383 c 128,-1,39
 139 347 139 347 139 296 c 0,28,29
EndSplineSet
Validated: 1
EndChar

StartChar: yen
Encoding: 165 165 101
Width: 506
GlyphClass: 2
Flags: W
LayerCount: 2
Fore
SplineSet
306 349 m 1,0,-1
 305 290 l 1,1,-1
 462 290 l 1,2,-1
 462 240 l 1,3,-1
 304 240 l 1,4,-1
 303 189 l 1,5,-1
 462 189 l 1,6,-1
 462 139 l 1,7,-1
 303 139 l 1,8,-1
 301 0 l 1,9,-1
 217 0 l 1,10,-1
 219 139 l 1,11,-1
 68 139 l 1,12,-1
 68 189 l 1,13,-1
 220 189 l 1,14,-1
 221 240 l 1,15,-1
 68 240 l 1,16,-1
 68 290 l 1,17,-1
 222 290 l 1,18,-1
 223 351 l 1,19,20
 172 432 172 432 101 553 c 128,-1,21
 30 674 30 674 29 686 c 1,22,-1
 123 686 l 1,23,24
 135 653 135 653 278 424 c 1,25,26
 408 664 408 664 407 686 c 1,27,-1
 479 686 l 1,28,29
 474 656 474 656 306 349 c 1,0,-1
EndSplineSet
Validated: 33
EndChar

StartChar: brokenbar
Encoding: 166 166 102
Width: 178
GlyphClass: 2
Flags: W
LayerCount: 2
Fore
SplineSet
39 719 m 1,0,-1
 123 719 l 1,1,2
 130 694 130 694 131.5 679.5 c 128,-1,3
 133 665 133 665 133 602 c 2,4,-1
 133 351 l 1,5,-1
 50 351 l 1,6,-1
 50 602 l 2,7,8
 50 708 50 708 39 719 c 1,0,-1
50 -23 m 2,9,-1
 50 234 l 1,10,-1
 133 234 l 1,11,-1
 133 -23 l 2,12,13
 133 -116 133 -116 139 -145 c 1,14,-1
 55 -145 l 1,15,16
 50 -117 50 -117 50 -23 c 2,9,-1
EndSplineSet
Validated: 1
EndChar

StartChar: section
Encoding: 167 167 103
Width: 445
GlyphClass: 2
Flags: W
LayerCount: 2
Fore
SplineSet
400 390 m 0,0,1
 400 342 400 342 363 306.5 c 128,-1,2
 326 271 326 271 273 264 c 1,3,4
 357 205 357 205 357 145 c 0,5,6
 357 96 357 96 310.5 56 c 128,-1,7
 264 16 264 16 206 16 c 0,8,9
 186 16 186 16 166.5 21.5 c 128,-1,10
 147 27 147 27 132 36 c 128,-1,11
 117 45 117 45 103 55.5 c 128,-1,12
 89 66 89 66 78.5 77 c 128,-1,13
 68 88 68 88 61 96.5 c 128,-1,14
 54 105 54 105 50 111 c 2,15,-1
 45 117 l 1,16,-1
 94 162 l 1,17,-1
 96 157 l 2,18,19
 98 152 98 152 102.5 142 c 128,-1,20
 107 132 107 132 113.5 121 c 128,-1,21
 120 110 120 110 129.5 98 c 128,-1,22
 139 86 139 86 150 76.5 c 128,-1,23
 161 67 161 67 175.5 61 c 128,-1,24
 190 55 190 55 206 55 c 0,25,26
 237 55 237 55 261 86.5 c 128,-1,27
 285 118 285 118 284 145 c 0,28,29
 284 179 284 179 254.5 209 c 128,-1,30
 225 239 225 239 189.5 257.5 c 128,-1,31
 154 276 154 276 124 303.5 c 128,-1,32
 94 331 94 331 94 361 c 0,33,34
 93 414 93 414 134.5 446.5 c 128,-1,35
 176 479 176 479 223 479 c 0,36,37
 255 479 255 479 289 463 c 1,38,39
 271 478 271 478 226.5 505 c 128,-1,40
 182 532 182 532 157.5 555.5 c 128,-1,41
 133 579 133 579 133 607 c 0,42,43
 133 658 133 658 174.5 691.5 c 128,-1,44
 216 725 216 725 262 725 c 0,45,46
 287 725 287 725 310 718 c 128,-1,47
 333 711 333 711 348 701 c 128,-1,48
 363 691 363 691 374.5 681 c 128,-1,49
 386 671 386 671 391 664 c 2,50,-1
 396 657 l 1,51,-1
 345 613 l 1,52,53
 344 616 344 616 342.5 621 c 128,-1,54
 341 626 341 626 335 638.5 c 128,-1,55
 329 651 329 651 321 660.5 c 128,-1,56
 313 670 313 670 298.5 678 c 128,-1,57
 284 686 284 686 267 686 c 0,58,59
 236 686 236 686 221 666.5 c 128,-1,60
 206 647 206 647 206 618 c 0,61,62
 206 594 206 594 236.5 566.5 c 128,-1,63
 267 539 267 539 303 517 c 128,-1,64
 339 495 339 495 369.5 460.5 c 128,-1,65
 400 426 400 426 400 390 c 0,0,1
251 301 m 0,66,67
 294 301 294 301 317 352 c 1,68,69
 328 389 328 389 301.5 414.5 c 128,-1,70
 275 440 275 440 228 440 c 0,71,72
 196 440 196 440 179 421 c 128,-1,73
 162 402 162 402 162 374 c 0,74,75
 162 345 162 345 199 315 c 0,76,77
 222 301 222 301 251 301 c 0,66,67
EndSplineSet
Validated: 33
EndChar

StartChar: dieresis
Encoding: 168 168 104
Width: 429
GlyphClass: 2
Flags: W
LayerCount: 2
Fore
SplineSet
201 786 m 0,0,1
 178 786 178 786 164 800 c 128,-1,2
 150 814 150 814 151 836 c 0,3,4
 150 857 150 857 165 872 c 128,-1,5
 180 887 180 887 201 887 c 128,-1,6
 222 887 222 887 236 872.5 c 128,-1,7
 250 858 250 858 251 836 c 0,8,9
 250 814 250 814 235.5 800 c 128,-1,10
 221 786 221 786 201 786 c 0,0,1
361 786 m 0,11,12
 338 786 338 786 325 800 c 128,-1,13
 312 814 312 814 312 836 c 0,14,15
 312 859 312 859 325.5 873 c 128,-1,16
 339 887 339 887 361 887 c 0,17,18
 380 887 380 887 396.5 872.5 c 128,-1,19
 413 858 413 858 413 836 c 0,20,21
 413 815 413 815 397.5 800.5 c 128,-1,22
 382 786 382 786 361 786 c 0,11,12
EndSplineSet
Validated: 33
EndChar

StartChar: copyright
Encoding: 169 169 105
Width: 762
GlyphClass: 2
Flags: W
LayerCount: 2
Fore
SplineSet
741 345 m 0,0,1
 742 186 742 186 638 95.5 c 128,-1,2
 534 5 534 5 384 6 c 0,3,4
 226 7 226 7 124.5 95.5 c 128,-1,5
 23 184 23 184 23 345 c 0,6,7
 23 501 23 501 126.5 597 c 128,-1,8
 230 693 230 693 384 691 c 0,9,10
 531 689 531 689 635.5 594.5 c 128,-1,11
 740 500 740 500 741 345 c 0,0,1
652 345 m 0,12,13
 653 478 653 478 570.5 561.5 c 128,-1,14
 488 645 488 645 384 646 c 0,15,16
 272 647 272 647 192.5 564 c 128,-1,17
 113 481 113 481 112 345 c 0,18,19
 113 205 113 205 191.5 127 c 128,-1,20
 270 49 270 49 384 50 c 0,21,22
 452 51 452 51 511 82.5 c 128,-1,23
 570 114 570 114 610.5 183 c 128,-1,24
 651 252 651 252 652 345 c 0,12,13
390 546 m 0,25,26
 424 546 424 546 453 535 c 128,-1,27
 482 524 482 524 499.5 508.5 c 128,-1,28
 517 493 517 493 528.5 477.5 c 128,-1,29
 540 462 540 462 546 451 c 2,30,-1
 552 440 l 1,31,-1
 490 423 l 1,32,-1
 489 428 l 2,33,34
 488 433 488 433 485 440.5 c 128,-1,35
 482 448 482 448 477.5 457.5 c 128,-1,36
 473 467 473 467 465 476.5 c 128,-1,37
 457 486 457 486 446.5 494 c 128,-1,38
 436 502 436 502 419.5 507.5 c 128,-1,39
 403 513 403 513 384 513 c 0,40,41
 329 511 329 511 296.5 465.5 c 128,-1,42
 264 420 264 420 267 345 c 1,43,44
 264 265 264 265 298.5 219 c 128,-1,45
 333 173 333 173 390 173 c 0,46,47
 420 173 420 173 441.5 185 c 128,-1,48
 463 197 463 197 471.5 209 c 128,-1,49
 480 221 480 221 479 228 c 1,50,-1
 541 228 l 1,51,52
 540 199 540 199 498.5 168.5 c 128,-1,53
 457 138 457 138 390 139 c 0,54,55
 302 138 302 138 248 195.5 c 128,-1,56
 194 253 194 253 195 345 c 0,57,58
 193 433 193 433 247.5 489 c 128,-1,59
 302 545 302 545 390 546 c 0,25,26
EndSplineSet
Validated: 33
EndChar

StartChar: guillemotleft
Encoding: 171 171 106
Width: 551
GlyphClass: 2
Flags: W
LayerCount: 2
Fore
SplineSet
301 479 m 1,0,-1
 301 400 l 1,1,-1
 110 254 l 1,2,-1
 301 106 l 1,3,-1
 301 29 l 1,4,-1
 23 228 l 1,5,-1
 23 279 l 1,6,-1
 301 479 l 1,0,-1
245 279 m 1,7,-1
 523 479 l 1,8,-1
 523 400 l 1,9,-1
 332 254 l 1,10,-1
 523 106 l 1,11,-1
 523 29 l 1,12,-1
 245 228 l 1,13,-1
 245 279 l 1,7,-1
EndSplineSet
Validated: 1
EndChar

StartChar: logicalnot
Encoding: 172 172 107
Width: 545
GlyphClass: 2
Flags: W
LayerCount: 2
Fore
SplineSet
29 284 m 1,0,-1
 507 284 l 1,1,-1
 507 123 l 1,2,-1
 462 123 l 1,3,-1
 462 234 l 1,4,-1
 29 234 l 1,5,-1
 29 284 l 1,0,-1
EndSplineSet
Validated: 1
EndChar

StartChar: registered
Encoding: 174 174 108
Width: 652
GlyphClass: 2
Flags: W
LayerCount: 2
Fore
SplineSet
630 474 m 0,0,1
 631 332 631 332 546.5 254 c 128,-1,2
 462 176 462 176 329 178 c 0,3,4
 191 176 191 176 106.5 254 c 128,-1,5
 22 332 22 332 23 474 c 0,6,7
 22 610 22 610 107.5 692 c 128,-1,8
 193 774 193 774 329 774 c 0,9,10
 463 774 463 774 546 692.5 c 128,-1,11
 629 611 629 611 630 474 c 0,0,1
541 474 m 0,12,13
 543 589 543 589 482 660 c 128,-1,14
 421 731 421 731 329 730 c 0,15,16
 236 729 236 729 174.5 659 c 128,-1,17
 113 589 113 589 112 474 c 0,18,19
 113 353 113 353 173.5 287.5 c 128,-1,20
 234 222 234 222 329 223 c 0,21,22
 419 222 419 222 479.5 288 c 128,-1,23
 540 354 540 354 541 474 c 0,12,13
355 436 m 1,24,25
 394 425 394 425 429 387 c 128,-1,26
 464 349 464 349 462 312 c 1,27,-1
 400 312 l 1,28,29
 402 354 402 354 360.5 391 c 128,-1,30
 319 428 319 428 268 429 c 2,31,-1
 267 429 l 1,32,-1
 267 312 l 1,33,-1
 212 312 l 1,34,-1
 212 602 l 2,35,36
 213 636 213 636 206 657 c 1,37,-1
 317 657 l 2,38,39
 377 657 377 657 418 627.5 c 128,-1,40
 459 598 459 598 458 546 c 0,41,42
 459 503 459 503 428.5 472.5 c 128,-1,43
 398 442 398 442 355 436 c 1,24,25
400 546 m 0,44,45
 401 588 401 588 375.5 606 c 128,-1,46
 350 624 350 624 306 625 c 0,47,48
 300 625 300 625 287 624.5 c 128,-1,49
 274 624 274 624 269 623 c 0,50,51
 268 619 268 619 267.5 610 c 128,-1,52
 267 601 267 601 267 596 c 2,53,-1
 267 468 l 1,54,-1
 335 468 l 2,55,56
 371 468 371 468 386 484.5 c 128,-1,57
 401 501 401 501 400 546 c 0,44,45
EndSplineSet
Validated: 33
EndChar

StartChar: macron
Encoding: 175 175 109
Width: 422
GlyphClass: 2
Flags: W
LayerCount: 2
Fore
SplineSet
128 836 m 1,0,-1
 400 836 l 1,1,-1
 400 786 l 1,2,-1
 128 786 l 1,3,-1
 128 836 l 1,0,-1
EndSplineSet
Validated: 1
EndChar

StartChar: degree
Encoding: 176 176 110
Width: 322
GlyphClass: 2
Flags: W
LayerCount: 2
Fore
SplineSet
162 563 m 128,-1,1
 104 563 104 563 63.5 603.5 c 128,-1,2
 23 644 23 644 23 702 c 128,-1,3
 23 760 23 760 63.5 801 c 128,-1,4
 104 842 104 842 162 842 c 0,5,6
 217 842 217 842 259 800.5 c 128,-1,7
 301 759 301 759 301 702 c 0,8,9
 301 644 301 644 260.5 603.5 c 128,-1,0
 220 563 220 563 162 563 c 128,-1,1
162 630 m 0,10,11
 191 629 191 629 212.5 650.5 c 128,-1,12
 234 672 234 672 234 702 c 0,13,14
 234 733 234 733 213 753.5 c 128,-1,15
 192 774 192 774 162 774 c 0,16,17
 130 774 130 774 110 754 c 128,-1,18
 90 734 90 734 89 702 c 0,19,20
 90 672 90 672 110.5 650.5 c 128,-1,21
 131 629 131 629 162 630 c 0,10,11
EndSplineSet
Validated: 33
EndChar

StartChar: plusminus
Encoding: 177 177 111
Width: 545
GlyphClass: 2
Flags: W
LayerCount: 2
Fore
SplineSet
296 490 m 1,0,-1
 296 335 l 1,1,-1
 513 335 l 1,2,-1
 513 284 l 1,3,-1
 296 284 l 1,4,-1
 296 128 l 1,5,-1
 240 128 l 1,6,-1
 240 284 l 1,7,-1
 33 284 l 1,8,-1
 33 335 l 1,9,-1
 240 335 l 1,10,-1
 240 490 l 1,11,-1
 296 490 l 1,0,-1
513 33 m 1,12,-1
 39 33 l 1,13,-1
 39 84 l 1,14,-1
 513 84 l 1,15,-1
 513 33 l 1,12,-1
EndSplineSet
Validated: 1
EndChar

StartChar: acute
Encoding: 180 180 112
Width: 406
GlyphClass: 2
Flags: W
LayerCount: 2
Fore
SplineSet
335 903 m 1,0,-1
 245 774 l 1,1,-1
 284 748 l 1,2,-1
 379 869 l 1,3,-1
 335 903 l 1,0,-1
EndSplineSet
Validated: 9
EndChar

StartChar: paragraph
Encoding: 182 182 113
Width: 673
GlyphClass: 2
Flags: W
LayerCount: 2
Fore
SplineSet
400 686 m 2,0,-1
 401 686 l 1,1,-1
 484 686 l 1,2,3
 468 659 468 659 468 574 c 2,4,-1
 468 0 l 1,5,-1
 390 0 l 1,6,-1
 390 288 l 1,7,8
 334 237 334 237 262 240 c 1,9,10
 166 237 166 237 106 299.5 c 128,-1,11
 46 362 46 362 45 468 c 0,12,13
 46 565 46 565 106.5 626 c 128,-1,14
 167 687 167 687 262 686 c 0,15,16
 332 688 332 688 400 686 c 2,0,-1
529 686 m 1,17,-1
 618 686 l 1,18,19
 602 656 602 656 602 574 c 2,20,-1
 602 0 l 1,21,-1
 523 0 l 1,22,-1
 523 568 l 1,23,24
 519 654 519 654 529 686 c 1,17,-1
262 279 m 1,25,26
 303 276 303 276 346 309 c 128,-1,27
 389 342 389 342 390 388 c 2,28,-1
 390 568 l 1,29,-1
 390 574 l 2,30,31
 387 608 387 608 360.5 627.5 c 128,-1,32
 334 647 334 647 267 646 c 0,33,34
 199 647 199 647 158.5 602.5 c 128,-1,35
 118 558 118 558 117 468 c 0,36,37
 118 377 118 377 158 326.5 c 128,-1,38
 198 276 198 276 262 279 c 1,25,26
EndSplineSet
Validated: 33
EndChar

StartChar: periodcentered
Encoding: 183 183 114
Width: 144
GlyphClass: 2
Flags: W
LayerCount: 2
Fore
SplineSet
72 212 m 0,0,1
 52 212 52 212 38 226.5 c 128,-1,2
 24 241 24 241 23 262 c 0,3,4
 24 285 24 285 37.5 298.5 c 128,-1,5
 51 312 51 312 72 312 c 0,6,7
 94 312 94 312 108.5 298 c 128,-1,8
 123 284 123 284 123 262 c 128,-1,9
 123 240 123 240 108.5 226 c 128,-1,10
 94 212 94 212 72 212 c 0,0,1
EndSplineSet
Validated: 1
EndChar

StartChar: cedilla
Encoding: 184 184 115
Width: 372
GlyphClass: 2
Flags: W
LayerCount: 2
Fore
SplineSet
329 16 m 1,0,-1
 290 -39 l 2,1,2
 291 -40 291 -40 310 -50 c 128,-1,3
 329 -60 329 -60 342.5 -76.5 c 128,-1,4
 356 -93 356 -93 357 -117 c 0,5,6
 356 -160 356 -160 326.5 -180.5 c 128,-1,7
 297 -201 297 -201 256 -201 c 0,8,9
 232 -201 232 -201 212.5 -194.5 c 128,-1,10
 193 -188 193 -188 182 -179 c 128,-1,11
 171 -170 171 -170 163.5 -161 c 128,-1,12
 156 -152 156 -152 153 -145.5 c 128,-1,13
 150 -139 150 -139 151 -139 c 2,14,-1
 201 -117 l 1,15,16
 199 -119 199 -119 203.5 -129.5 c 128,-1,17
 208 -140 208 -140 221 -151 c 128,-1,18
 234 -162 234 -162 251 -162 c 0,19,20
 293 -162 293 -162 296 -117 c 0,21,22
 296 -109 296 -109 294 -102 c 128,-1,23
 292 -95 292 -95 287 -88.5 c 128,-1,24
 282 -82 282 -82 278.5 -77.5 c 128,-1,25
 275 -73 275 -73 266 -66.5 c 128,-1,26
 257 -60 257 -60 253.5 -58 c 128,-1,27
 250 -56 250 -56 238 -48.5 c 128,-1,28
 226 -41 226 -41 223 -39 c 1,29,-1
 267 16 l 1,30,-1
 329 16 l 1,0,-1
EndSplineSet
Validated: 1
EndChar

StartChar: guillemotright
Encoding: 187 187 116
Width: 551
GlyphClass: 2
Flags: W
LayerCount: 2
Fore
SplineSet
29 479 m 1,0,-1
 306 279 l 1,1,-1
 306 228 l 1,2,-1
 29 29 l 1,3,-1
 29 106 l 1,4,-1
 219 254 l 1,5,-1
 29 400 l 1,6,-1
 29 479 l 1,0,-1
251 400 m 1,7,-1
 251 479 l 1,8,-1
 529 279 l 1,9,-1
 529 228 l 1,10,-1
 251 29 l 1,11,-1
 251 106 l 1,12,-1
 442 254 l 1,13,-1
 251 400 l 1,7,-1
EndSplineSet
Validated: 1
EndChar

StartChar: questiondown
Encoding: 191 191 117
Width: 384
GlyphClass: 2
Flags: W
LayerCount: 2
Fore
SplineSet
201 497 m 0,0,1
 226 495 226 495 241.5 479 c 128,-1,2
 257 463 257 463 256 440 c 0,3,4
 257 420 257 420 241.5 407 c 128,-1,5
 226 394 226 394 201 396 c 0,6,7
 185 394 185 394 171 407.5 c 128,-1,8
 157 421 157 421 156 440 c 0,9,10
 157 462 157 462 170.5 478.5 c 128,-1,11
 184 495 184 495 201 497 c 0,0,1
156 329 m 1,12,-1
 240 329 l 1,13,14
 236 272 236 272 145 68 c 0,15,16
 83 -66 83 -66 126 -128 c 0,17,18
 154 -168 154 -168 206 -154 c 0,19,20
 261 -139 261 -139 290 -77 c 0,21,22
 293 -69 293 -69 296 -61 c 1,23,-1
 357 -128 l 1,24,-1
 352 -134 l 2,25,26
 346 -139 346 -139 343 -141.5 c 128,-1,27
 340 -144 340 -144 332 -151 c 128,-1,28
 324 -158 324 -158 318 -162 c 128,-1,29
 312 -166 312 -166 301.5 -172.5 c 128,-1,30
 291 -179 291 -179 282 -183 c 128,-1,31
 273 -187 273 -187 260.5 -192 c 128,-1,32
 248 -197 248 -197 235.5 -199.5 c 128,-1,33
 223 -202 223 -202 208 -204 c 128,-1,34
 193 -206 193 -206 178 -206 c 0,35,36
 70 -206 70 -206 40.5 -137 c 128,-1,37
 11 -68 11 -68 68 68 c 1,38,39
 148 229 148 229 156 329 c 1,12,-1
EndSplineSet
Validated: 33
EndChar

StartChar: Agrave
Encoding: 192 192 118
Width: 607
GlyphClass: 2
Flags: W
LayerCount: 2
Fore
SplineSet
217 913 m 1,0,-1
 301 786 l 1,1,-1
 262 758 l 1,2,-1
 173 881 l 1,3,-1
 217 913 l 1,0,-1
574 0 m 1,4,-1
 490 0 l 1,5,-1
 396 251 l 1,6,-1
 171 251 l 1,7,-1
 133 151 l 2,8,9
 94 49 94 49 100 0 c 1,10,-1
 33 0 l 1,11,12
 33 60 33 60 61 133 c 2,13,-1
 223 563 l 2,14,15
 239 604 239 604 253 644.5 c 128,-1,16
 267 685 267 685 267 686 c 1,17,-1
 306 686 l 1,18,-1
 574 0 l 1,4,-1
279 546 m 2,19,-1
 182 284 l 1,20,-1
 383 284 l 1,21,-1
 281 553 l 1,22,23
 281 550 281 550 279 546 c 2,19,-1
EndSplineSet
Validated: 33
EndChar

StartChar: Aacute
Encoding: 193 193 119
Width: 607
GlyphClass: 2
Flags: W
LayerCount: 2
Fore
SplineSet
361 908 m 1,0,-1
 413 869 l 1,1,-1
 312 752 l 1,2,-1
 273 774 l 1,3,-1
 361 908 l 1,0,-1
574 0 m 1,4,-1
 490 0 l 1,5,-1
 396 251 l 1,6,-1
 171 251 l 1,7,-1
 133 151 l 2,8,9
 94 49 94 49 100 0 c 1,10,-1
 33 0 l 1,11,12
 33 60 33 60 61 133 c 2,13,-1
 223 563 l 2,14,15
 239 604 239 604 253 644.5 c 128,-1,16
 267 685 267 685 267 686 c 1,17,-1
 306 686 l 1,18,-1
 574 0 l 1,4,-1
279 546 m 2,19,-1
 182 284 l 1,20,-1
 383 284 l 1,21,-1
 281 553 l 1,22,23
 281 550 281 550 279 546 c 2,19,-1
EndSplineSet
Validated: 33
EndChar

StartChar: Acircumflex
Encoding: 194 194 120
Width: 607
GlyphClass: 2
Flags: W
LayerCount: 2
Fore
SplineSet
368 735 m 1,0,-1
 286 842 l 1,1,-1
 212 735 l 1,2,-1
 133 735 l 1,3,-1
 262 903 l 1,4,-1
 306 903 l 1,5,-1
 445 735 l 1,6,-1
 368 735 l 1,0,-1
574 0 m 1,7,-1
 490 0 l 1,8,-1
 396 251 l 1,9,-1
 171 251 l 1,10,-1
 133 151 l 2,11,12
 94 49 94 49 100 0 c 1,13,-1
 33 0 l 1,14,15
 33 60 33 60 61 133 c 2,16,-1
 223 563 l 2,17,18
 239 604 239 604 253 644.5 c 128,-1,19
 267 685 267 685 267 686 c 1,20,-1
 306 686 l 1,21,-1
 574 0 l 1,7,-1
279 546 m 2,22,-1
 182 284 l 1,23,-1
 383 284 l 1,24,-1
 281 553 l 1,25,26
 281 550 281 550 279 546 c 2,22,-1
EndSplineSet
Validated: 33
EndChar

StartChar: Atilde
Encoding: 195 195 121
Width: 607
GlyphClass: 2
Flags: W
LayerCount: 2
Fore
SplineSet
212 842 m 0,0,1
 192 842 192 842 182 821 c 128,-1,2
 172 800 172 800 172 779 c 2,3,-1
 173 758 l 1,4,-1
 94 758 l 1,5,6
 95 761 95 761 96 766.5 c 128,-1,7
 97 772 97 772 101 788.5 c 128,-1,8
 105 805 105 805 110.5 819.5 c 128,-1,9
 116 834 116 834 126 852 c 128,-1,10
 136 870 136 870 147.5 882.5 c 128,-1,11
 159 895 159 895 176 904 c 128,-1,12
 193 913 193 913 212 913 c 0,13,14
 238 913 238 913 290.5 866 c 128,-1,15
 343 819 343 819 368 819 c 0,16,17
 385 819 385 819 395 840 c 128,-1,18
 405 861 405 861 406 882 c 2,19,-1
 407 903 l 1,20,-1
 484 903 l 1,21,22
 483 897 483 897 481.5 887.5 c 128,-1,23
 480 878 480 878 472 853 c 128,-1,24
 464 828 464 828 452.5 808.5 c 128,-1,25
 441 789 441 789 418.5 773.5 c 128,-1,26
 396 758 396 758 368 758 c 0,27,28
 332 758 332 758 284 800 c 128,-1,29
 236 842 236 842 212 842 c 0,0,1
574 0 m 1,30,-1
 490 0 l 1,31,-1
 396 251 l 1,32,-1
 171 251 l 1,33,-1
 133 151 l 2,34,35
 100 62 100 62 100 0 c 1,36,-1
 33 0 l 1,37,38
 33 68 33 68 61 133 c 2,39,-1
 223 563 l 2,40,41
 246 619 246 619 267 686 c 1,42,-1
 306 686 l 1,43,-1
 574 0 l 1,30,-1
279 546 m 2,44,-1
 182 284 l 1,45,-1
 383 284 l 1,46,-1
 281 553 l 1,47,48
 281 550 281 550 279 546 c 2,44,-1
EndSplineSet
Validated: 1
EndChar

StartChar: Adieresis
Encoding: 196 196 122
Width: 607
GlyphClass: 2
Flags: W
LayerCount: 2
Fore
SplineSet
212 786 m 0,0,1
 190 786 190 786 175.5 800 c 128,-1,2
 161 814 161 814 162 836 c 0,3,4
 161 857 161 857 176.5 872 c 128,-1,5
 192 887 192 887 212 887 c 0,6,7
 233 887 233 887 247 872.5 c 128,-1,8
 261 858 261 858 262 836 c 0,9,10
 261 814 261 814 247 800 c 128,-1,11
 233 786 233 786 212 786 c 0,0,1
374 786 m 0,12,13
 351 786 351 786 337.5 800 c 128,-1,14
 324 814 324 814 323 836 c 0,15,16
 324 858 324 858 338 872.5 c 128,-1,17
 352 887 352 887 374 887 c 0,18,19
 393 887 393 887 408.5 872.5 c 128,-1,20
 424 858 424 858 423 836 c 0,21,22
 424 815 424 815 409 800.5 c 128,-1,23
 394 786 394 786 374 786 c 0,12,13
574 0 m 1,24,-1
 490 0 l 1,25,-1
 396 251 l 1,26,-1
 171 251 l 1,27,-1
 133 151 l 2,28,29
 94 49 94 49 100 0 c 1,30,-1
 33 0 l 1,31,32
 33 60 33 60 61 133 c 2,33,-1
 223 563 l 2,34,35
 239 604 239 604 253 644.5 c 128,-1,36
 267 685 267 685 267 686 c 1,37,-1
 306 686 l 1,38,-1
 574 0 l 1,24,-1
279 546 m 2,39,-1
 182 284 l 1,40,-1
 383 284 l 1,41,-1
 281 553 l 1,42,43
 281 550 281 550 279 546 c 2,39,-1
EndSplineSet
Validated: 33
EndChar

StartChar: Aring
Encoding: 197 197 123
Width: 607
GlyphClass: 2
Flags: W
LayerCount: 2
Fore
SplineSet
284 719 m 0,0,1
 242 720 242 720 213 749 c 128,-1,2
 184 778 184 778 184 819 c 0,3,4
 184 858 184 858 213 885.5 c 128,-1,5
 242 913 242 913 284 913 c 0,6,7
 323 913 323 913 354 885 c 128,-1,8
 385 857 385 857 384 819 c 0,9,10
 385 775 385 775 355.5 747.5 c 128,-1,11
 326 720 326 720 284 719 c 0,0,1
284 869 m 0,12,13
 264 869 264 869 249 853.5 c 128,-1,14
 234 838 234 838 234 819 c 0,15,16
 234 797 234 797 248.5 783 c 128,-1,17
 263 769 263 769 284 769 c 0,18,19
 306 769 306 769 320.5 783 c 128,-1,20
 335 797 335 797 335 819 c 0,21,22
 335 838 335 838 320 853.5 c 128,-1,23
 305 869 305 869 284 869 c 0,12,13
574 0 m 1,24,-1
 490 0 l 1,25,-1
 396 251 l 1,26,-1
 171 251 l 1,27,-1
 133 151 l 2,28,29
 94 49 94 49 100 0 c 1,30,-1
 33 0 l 1,31,32
 33 60 33 60 61 133 c 2,33,-1
 223 563 l 2,34,35
 239 604 239 604 253 644.5 c 128,-1,36
 267 685 267 685 267 686 c 1,37,-1
 306 686 l 1,38,-1
 574 0 l 1,24,-1
279 546 m 2,39,-1
 182 284 l 1,40,-1
 383 284 l 1,41,-1
 281 553 l 1,42,43
 281 550 281 550 279 546 c 2,39,-1
EndSplineSet
Validated: 33
EndChar

StartChar: AE
Encoding: 198 198 124
Width: 807
GlyphClass: 2
Flags: W
LayerCount: 2
Fore
SplineSet
764 674 m 1,0,-1
 764 625 l 1,1,2
 724 635 724 635 657 635 c 2,3,-1
 442 635 l 1,4,5
 444 611 444 611 445 568 c 2,6,-1
 445 400 l 1,7,-1
 691 400 l 1,8,-1
 691 351 l 1,9,-1
 445 351 l 1,10,-1
 445 50 l 1,11,-1
 764 50 l 1,12,-1
 764 0 l 1,13,-1
 361 0 l 1,14,-1
 361 245 l 1,15,-1
 171 245 l 1,16,-1
 133 145 l 2,17,18
 94 46 94 46 100 -6 c 1,19,-1
 33 -6 l 1,20,21
 33 59 33 59 61 128 c 2,22,-1
 223 557 l 2,23,24
 249 629 249 629 267 686 c 1,25,-1
 306 686 l 1,26,-1
 502 686 l 1,27,-1
 646 686 l 2,28,29
 716 686 716 686 764 674 c 1,0,-1
361 296 m 1,30,-1
 361 574 l 2,31,32
 361 612 361 612 358 635 c 1,33,-1
 312 635 l 1,34,-1
 279 541 l 1,35,-1
 189 296 l 1,36,-1
 361 296 l 1,30,-1
EndSplineSet
Validated: 33
EndChar

StartChar: Ccedilla
Encoding: 199 199 125
Width: 629
GlyphClass: 2
Flags: W
LayerCount: 2
Fore
SplineSet
345 29 m 0,0,1
 393 30 393 30 432 58.5 c 128,-1,2
 471 87 471 87 490 133 c 1,3,-1
 591 133 l 1,4,5
 556 72 556 72 498.5 34.5 c 128,-1,6
 441 -3 441 -3 372 -10 c 1,7,-1
 351 -39 l 1,8,-1
 371 -49 l 2,9,10
 391 -59 391 -59 404.5 -75.5 c 128,-1,11
 418 -92 418 -92 419 -117 c 0,12,13
 418 -158 418 -158 388.5 -178.5 c 128,-1,14
 359 -199 359 -199 317 -201 c 0,15,16
 245 -199 245 -199 216 -147 c 2,17,-1
 212 -139 l 1,18,-1
 262 -117 l 1,19,20
 261 -120 261 -120 265.5 -129.5 c 128,-1,21
 270 -139 270 -139 282.5 -150 c 128,-1,22
 295 -161 295 -161 312 -162 c 0,23,24
 354 -159 354 -159 357 -117 c 0,25,26
 356 -102 356 -102 351 -90.5 c 128,-1,27
 346 -79 346 -79 333.5 -69.5 c 128,-1,28
 321 -60 321 -60 312 -54.5 c 128,-1,29
 303 -49 303 -49 284 -39 c 1,30,-1
 308 -9 l 1,31,32
 185 4 185 4 108.5 99 c 128,-1,33
 32 194 32 194 33 340 c 0,34,35
 32 494 32 494 121 595 c 128,-1,36
 210 696 210 696 345 696 c 0,37,38
 434 696 434 696 490 654 c 128,-1,39
 546 612 546 612 596 523 c 1,40,-1
 518 474 l 1,41,42
 485 567 485 567 443.5 612 c 128,-1,43
 402 657 402 657 340 657 c 0,44,45
 251 657 251 657 184 565.5 c 128,-1,46
 117 474 117 474 117 340 c 0,47,48
 117 210 117 210 187 118.5 c 128,-1,49
 257 27 257 27 345 29 c 0,0,1
EndSplineSet
Validated: 33
EndChar

StartChar: Egrave
Encoding: 200 200 126
Width: 490
GlyphClass: 2
Flags: W
LayerCount: 2
Fore
SplineSet
201 913 m 1,0,-1
 284 786 l 1,1,-1
 245 758 l 1,2,-1
 156 881 l 1,3,-1
 201 913 l 1,0,-1
458 674 m 1,4,-1
 458 625 l 1,5,6
 398 635 398 635 351 635 c 2,7,-1
 135 635 l 1,8,-1
 139 568 l 1,9,-1
 139 396 l 1,10,-1
 384 396 l 1,11,-1
 384 351 l 1,12,-1
 139 351 l 1,13,-1
 139 50 l 1,14,-1
 458 50 l 1,15,-1
 458 0 l 1,16,-1
 61 0 l 1,17,-1
 61 574 l 2,18,19
 60 605 60 605 57 630.5 c 128,-1,20
 54 656 54 656 52 669 c 128,-1,21
 50 682 50 682 50 686 c 1,22,-1
 128 686 l 1,23,-1
 195 686 l 1,24,-1
 340 686 l 2,25,26
 386 686 386 686 458 674 c 1,4,-1
EndSplineSet
Validated: 1
EndChar

StartChar: Eacute
Encoding: 201 201 127
Width: 490
GlyphClass: 2
Flags: W
LayerCount: 2
Fore
SplineSet
279 908 m 1,0,-1
 329 869 l 1,1,-1
 228 752 l 1,2,-1
 189 774 l 1,3,-1
 279 908 l 1,0,-1
458 674 m 1,4,-1
 458 625 l 1,5,6
 398 635 398 635 351 635 c 2,7,-1
 135 635 l 1,8,-1
 139 568 l 1,9,-1
 139 396 l 1,10,-1
 384 396 l 1,11,-1
 384 351 l 1,12,-1
 139 351 l 1,13,-1
 139 50 l 1,14,-1
 458 50 l 1,15,-1
 458 0 l 1,16,-1
 61 0 l 1,17,-1
 61 574 l 2,18,19
 60 605 60 605 57 630.5 c 128,-1,20
 54 656 54 656 52 669 c 128,-1,21
 50 682 50 682 50 686 c 1,22,-1
 128 686 l 1,23,-1
 195 686 l 1,24,-1
 340 686 l 2,25,26
 386 686 386 686 458 674 c 1,4,-1
EndSplineSet
Validated: 1
EndChar

StartChar: Ecircumflex
Encoding: 202 202 128
Width: 490
GlyphClass: 2
Flags: W
LayerCount: 2
Fore
SplineSet
335 735 m 1,0,-1
 253 842 l 1,1,-1
 178 735 l 1,2,-1
 100 735 l 1,3,-1
 228 903 l 1,4,-1
 273 903 l 1,5,-1
 413 735 l 1,6,-1
 335 735 l 1,0,-1
458 674 m 1,7,-1
 458 625 l 1,8,9
 398 635 398 635 351 635 c 2,10,-1
 135 635 l 1,11,-1
 139 568 l 1,12,-1
 139 396 l 1,13,-1
 384 396 l 1,14,-1
 384 351 l 1,15,-1
 139 351 l 1,16,-1
 139 50 l 1,17,-1
 458 50 l 1,18,-1
 458 0 l 1,19,-1
 61 0 l 1,20,-1
 61 574 l 2,21,22
 60 605 60 605 57 630.5 c 128,-1,23
 54 656 54 656 52 669 c 128,-1,24
 50 682 50 682 50 686 c 1,25,-1
 128 686 l 1,26,-1
 195 686 l 1,27,-1
 340 686 l 2,28,29
 386 686 386 686 458 674 c 1,7,-1
EndSplineSet
Validated: 1
EndChar

StartChar: Edieresis
Encoding: 203 203 129
Width: 490
GlyphClass: 2
Flags: W
LayerCount: 2
Fore
SplineSet
167 786 m 0,0,1
 144 786 144 786 130 800 c 128,-1,2
 116 814 116 814 117 836 c 0,3,4
 116 859 116 859 130 873 c 128,-1,5
 144 887 144 887 167 887 c 0,6,7
 189 887 189 887 203 872.5 c 128,-1,8
 217 858 217 858 217 836 c 0,9,10
 217 815 217 815 203 800.5 c 128,-1,11
 189 786 189 786 167 786 c 0,0,1
329 786 m 0,12,13
 306 786 306 786 292.5 800 c 128,-1,14
 279 814 279 814 279 836 c 128,-1,15
 279 858 279 858 292.5 872.5 c 128,-1,16
 306 887 306 887 329 887 c 0,17,18
 351 887 351 887 365 873.5 c 128,-1,19
 379 860 379 860 379 836 c 0,20,21
 379 815 379 815 365 800.5 c 128,-1,22
 351 786 351 786 329 786 c 0,12,13
458 674 m 1,23,-1
 458 625 l 1,24,25
 457 625 457 625 441.5 627.5 c 128,-1,26
 426 630 426 630 400.5 632.5 c 128,-1,27
 375 635 375 635 351 635 c 2,28,-1
 134 635 l 1,29,30
 137 586 137 586 139 568 c 2,31,-1
 139 396 l 1,32,-1
 384 396 l 1,33,-1
 384 351 l 1,34,-1
 139 351 l 1,35,-1
 139 50 l 1,36,-1
 458 50 l 1,37,-1
 458 0 l 1,38,-1
 61 0 l 1,39,-1
 61 574 l 2,40,41
 61 606 61 606 58 631 c 128,-1,42
 55 656 55 656 52.5 669.5 c 128,-1,43
 50 683 50 683 50 686 c 1,44,-1
 128 686 l 1,45,-1
 195 686 l 1,46,-1
 340 686 l 2,47,48
 367 686 367 686 394.5 683 c 128,-1,49
 422 680 422 680 439.5 677 c 128,-1,50
 457 674 457 674 458 674 c 1,23,-1
EndSplineSet
Validated: 33
EndChar

StartChar: Igrave
Encoding: 204 204 130
Width: 294
GlyphClass: 2
Flags: W
LayerCount: 2
Fore
SplineSet
167 758 m 1,0,-1
 206 786 l 1,1,-1
 123 913 l 1,2,-1
 72 881 l 1,3,-1
 167 758 l 1,0,-1
128 686 m 1,4,-1
 212 686 l 1,5,6
 217 663 217 663 217 568 c 2,7,-1
 217 123 l 2,8,9
 217 114 217 114 223 0 c 1,10,-1
 145 0 l 1,11,12
 139 30 139 30 139 123 c 2,13,-1
 139 574 l 2,14,15
 139 660 139 660 128 686 c 1,4,-1
EndSplineSet
Validated: 9
EndChar

StartChar: Iacute
Encoding: 205 205 131
Width: 288
GlyphClass: 2
Flags: W
LayerCount: 2
Fore
SplineSet
167 908 m 1,0,-1
 78 774 l 1,1,-1
 117 752 l 1,2,-1
 217 869 l 1,3,-1
 167 908 l 1,0,-1
72 686 m 1,4,-1
 156 686 l 1,5,6
 162 659 162 659 162 568 c 2,7,-1
 162 123 l 2,8,9
 162 81 162 81 164.5 42 c 128,-1,10
 167 3 167 3 167 0 c 1,11,-1
 89 0 l 1,12,13
 84 33 84 33 84 123 c 2,14,-1
 84 574 l 2,15,16
 84 657 84 657 72 686 c 1,4,-1
EndSplineSet
Validated: 9
EndChar

StartChar: Icircumflex
Encoding: 206 206 132
Width: 456
GlyphClass: 2
Flags: W
LayerCount: 2
Fore
SplineSet
201 903 m 1,0,-1
 245 903 l 1,1,-1
 384 735 l 1,2,-1
 306 735 l 1,3,-1
 224 842 l 1,4,-1
 151 735 l 1,5,-1
 72 735 l 1,6,-1
 201 903 l 1,0,-1
273 568 m 1,7,-1
 273 123 l 1,8,-1
 273 0 l 1,9,-1
 195 0 l 1,10,-1
 195 123 l 1,11,-1
 195 574 l 2,12,13
 195 652 195 652 178 686 c 1,14,-1
 262 686 l 1,15,16
 268 663 268 663 273 568 c 1,7,-1
EndSplineSet
Validated: 1
EndChar

StartChar: Idieresis
Encoding: 207 207 133
Width: 361
GlyphClass: 2
Flags: W
LayerCount: 2
Fore
SplineSet
100 786 m 128,-1,1
 77 786 77 786 63.5 799.5 c 128,-1,2
 50 813 50 813 50 836 c 128,-1,3
 50 859 50 859 63.5 872.5 c 128,-1,4
 77 886 77 886 100 887 c 0,5,6
 123 886 123 886 137 872 c 128,-1,7
 151 858 151 858 151 836 c 0,8,9
 151 813 151 813 137 799.5 c 128,-1,0
 123 786 123 786 100 786 c 128,-1,1
262 786 m 0,10,11
 239 786 239 786 225.5 799.5 c 128,-1,12
 212 813 212 813 212 836 c 128,-1,13
 212 859 212 859 225.5 872.5 c 128,-1,14
 239 886 239 886 262 887 c 0,15,16
 284 886 284 886 297.5 872 c 128,-1,17
 311 858 311 858 312 836 c 0,18,19
 311 813 311 813 297.5 799.5 c 128,-1,20
 284 786 284 786 262 786 c 0,10,11
145 686 m 1,21,-1
 228 686 l 1,22,23
 233 661 233 661 234 568 c 2,24,-1
 234 123 l 2,25,26
 233 65 233 65 240 0 c 1,27,-1
 162 0 l 1,28,29
 155 29 155 29 156 123 c 2,30,-1
 156 574 l 2,31,32
 155 646 155 646 145 686 c 1,21,-1
EndSplineSet
Validated: 33
EndChar

StartChar: Eth
Encoding: 208 208 134
Width: 668
GlyphClass: 2
Flags: W
LayerCount: 2
Fore
SplineSet
312 686 m 2,0,1
 410 686 410 686 486 631 c 128,-1,2
 562 576 562 576 599 495.5 c 128,-1,3
 636 415 636 415 635 329 c 0,4,5
 635 248 635 248 605 182.5 c 128,-1,6
 575 117 575 117 527.5 78.5 c 128,-1,7
 480 40 480 40 425.5 20 c 128,-1,8
 371 0 371 0 317 0 c 2,9,-1
 112 0 l 1,10,-1
 112 351 l 1,11,-1
 33 351 l 1,12,-1
 33 400 l 1,13,-1
 112 400 l 1,14,-1
 112 574 l 2,15,16
 113 657 113 657 100 686 c 1,17,-1
 184 686 l 1,18,-1
 312 686 l 2,0,1
290 45 m 0,19,20
 331 45 331 45 374 61 c 128,-1,21
 417 77 417 77 456.5 109 c 128,-1,22
 496 141 496 141 521 198.5 c 128,-1,23
 546 256 546 256 546 329 c 0,24,25
 547 409 547 409 524 476 c 128,-1,26
 501 543 501 543 446 589 c 128,-1,27
 391 635 391 635 312 635 c 2,28,-1
 195 635 l 1,29,-1
 195 563 l 1,30,-1
 195 400 l 1,31,-1
 335 400 l 1,32,-1
 335 351 l 1,33,-1
 195 351 l 1,34,-1
 195 72 l 2,35,36
 198 58 198 58 227.5 51 c 128,-1,37
 257 44 257 44 290 45 c 0,19,20
EndSplineSet
Validated: 33
EndChar

StartChar: Ntilde
Encoding: 209 209 135
Width: 594
GlyphClass: 2
Flags: W
LayerCount: 2
Fore
SplineSet
212 842 m 0,0,1
 192 842 192 842 182 821 c 128,-1,2
 172 800 172 800 172 779 c 2,3,-1
 173 758 l 1,4,-1
 94 758 l 1,5,6
 95 761 95 761 96 766.5 c 128,-1,7
 97 772 97 772 101 788.5 c 128,-1,8
 105 805 105 805 110.5 819.5 c 128,-1,9
 116 834 116 834 126 852 c 128,-1,10
 136 870 136 870 147.5 882.5 c 128,-1,11
 159 895 159 895 176 904 c 128,-1,12
 193 913 193 913 212 913 c 0,13,14
 238 913 238 913 290.5 866 c 128,-1,15
 343 819 343 819 368 819 c 0,16,17
 385 819 385 819 395 840 c 128,-1,18
 405 861 405 861 406 882 c 2,19,-1
 407 903 l 1,20,-1
 484 903 l 1,21,22
 483 897 483 897 481.5 887.5 c 128,-1,23
 480 878 480 878 472 853 c 128,-1,24
 464 828 464 828 452.5 808.5 c 128,-1,25
 441 789 441 789 418.5 773.5 c 128,-1,26
 396 758 396 758 368 758 c 0,27,28
 332 758 332 758 284 800 c 128,-1,29
 236 842 236 842 212 842 c 0,0,1
541 0 m 1,30,-1
 458 0 l 1,31,-1
 145 560 l 1,32,-1
 145 -6 l 1,33,-1
 61 -6 l 1,34,-1
 61 574 l 2,35,36
 61 626 61 626 50 686 c 1,37,-1
 133 686 l 1,38,-1
 452 115 l 1,39,-1
 452 123 l 1,40,-1
 452 574 l 2,41,42
 452 626 452 626 440 686 c 1,43,-1
 523 686 l 1,44,45
 536 647 536 647 536 568 c 2,46,-1
 536 123 l 2,47,48
 536 38 536 38 541 0 c 1,30,-1
EndSplineSet
Validated: 1
EndChar

StartChar: Ograve
Encoding: 210 210 136
Width: 617
GlyphClass: 2
Flags: W
LayerCount: 2
Fore
SplineSet
306 758 m 1,0,-1
 345 786 l 1,1,-1
 262 913 l 1,2,-1
 217 881 l 1,3,-1
 306 758 l 1,0,-1
312 -10 m 0,4,5
 174 -11 174 -11 88 85.5 c 128,-1,6
 2 182 2 182 6 340 c 1,7,8
 2 494 2 494 88.5 594.5 c 128,-1,9
 175 695 175 695 312 696 c 0,10,11
 438 695 438 695 523.5 594 c 128,-1,12
 609 493 609 493 613 340 c 1,13,14
 609 182 609 182 524.5 85.5 c 128,-1,15
 440 -11 440 -11 312 -10 c 0,4,5
312 29 m 0,16,17
 398 29 398 29 462 117 c 128,-1,18
 526 205 526 205 529 340 c 0,19,20
 529 470 529 470 462.5 564 c 128,-1,21
 396 658 396 658 312 657 c 0,22,23
 218 658 218 658 153 565.5 c 128,-1,24
 88 473 88 473 89 340 c 0,25,26
 88 204 88 204 152.5 116.5 c 128,-1,27
 217 29 217 29 312 29 c 0,16,17
EndSplineSet
Validated: 41
EndChar

StartChar: Oacute
Encoding: 211 211 137
Width: 617
GlyphClass: 2
Flags: W
LayerCount: 2
Fore
SplineSet
368 908 m 1,0,-1
 279 774 l 1,1,-1
 317 752 l 1,2,-1
 419 869 l 1,3,-1
 368 908 l 1,0,-1
312 -10 m 0,4,5
 174 -11 174 -11 88 85.5 c 128,-1,6
 2 182 2 182 6 340 c 1,7,8
 2 494 2 494 88.5 594.5 c 128,-1,9
 175 695 175 695 312 696 c 0,10,11
 438 695 438 695 523.5 594 c 128,-1,12
 609 493 609 493 613 340 c 1,13,14
 609 182 609 182 524.5 85.5 c 128,-1,15
 440 -11 440 -11 312 -10 c 0,4,5
312 29 m 0,16,17
 398 29 398 29 462 117 c 128,-1,18
 526 205 526 205 529 340 c 0,19,20
 529 470 529 470 462.5 564 c 128,-1,21
 396 658 396 658 312 657 c 0,22,23
 218 658 218 658 153 565.5 c 128,-1,24
 88 473 88 473 89 340 c 0,25,26
 88 204 88 204 152.5 116.5 c 128,-1,27
 217 29 217 29 312 29 c 0,16,17
EndSplineSet
Validated: 41
EndChar

StartChar: Ocircumflex
Encoding: 212 212 138
Width: 617
GlyphClass: 2
Flags: W
LayerCount: 2
Fore
SplineSet
390 735 m 1,0,-1
 308 842 l 1,1,-1
 234 735 l 1,2,-1
 156 735 l 1,3,-1
 284 903 l 1,4,-1
 329 903 l 1,5,-1
 468 735 l 1,6,-1
 390 735 l 1,0,-1
312 696 m 0,7,8
 438 695 438 695 523.5 594 c 128,-1,9
 609 493 609 493 613 340 c 1,10,11
 609 182 609 182 524.5 85.5 c 128,-1,12
 440 -11 440 -11 312 -10 c 0,13,14
 174 -11 174 -11 88 85.5 c 128,-1,15
 2 182 2 182 6 340 c 1,16,17
 2 494 2 494 88.5 594.5 c 128,-1,18
 175 695 175 695 312 696 c 0,7,8
312 29 m 0,19,20
 398 29 398 29 462 117 c 128,-1,21
 526 205 526 205 529 340 c 0,22,23
 529 470 529 470 462.5 564 c 128,-1,24
 396 658 396 658 312 657 c 0,25,26
 218 658 218 658 153 565.5 c 128,-1,27
 88 473 88 473 89 340 c 0,28,29
 88 204 88 204 152.5 116.5 c 128,-1,30
 217 29 217 29 312 29 c 0,19,20
EndSplineSet
Validated: 33
EndChar

StartChar: Otilde
Encoding: 213 213 139
Width: 617
GlyphClass: 2
Flags: W
LayerCount: 2
Fore
SplineSet
423 903 m 1,0,-1
 502 903 l 1,1,-1
 501 898 l 2,2,3
 500 892 500 892 498 884 c 128,-1,4
 496 876 496 876 493 864.5 c 128,-1,5
 490 853 490 853 485.5 841.5 c 128,-1,6
 481 830 481 830 474.5 818 c 128,-1,7
 468 806 468 806 459 795 c 128,-1,8
 450 784 450 784 439.5 776 c 128,-1,9
 429 768 429 768 414.5 763 c 128,-1,10
 400 758 400 758 384 758 c 0,11,12
 355 758 355 758 326.5 778.5 c 128,-1,13
 298 799 298 799 273 820 c 128,-1,14
 248 841 248 841 228 842 c 0,15,16
 190 840 190 840 188 773 c 1,17,-1
 189 758 l 1,18,-1
 112 758 l 1,19,-1
 122 803 l 1,20,21
 159 910 159 910 228 913 c 0,22,23
 254 913 254 913 306 866 c 128,-1,24
 358 819 358 819 384 819 c 0,25,26
 395 819 395 819 403 827.5 c 128,-1,27
 411 836 411 836 414.5 848 c 128,-1,28
 418 860 418 860 420 872 c 128,-1,29
 422 884 422 884 422 894 c 2,30,-1
 423 903 l 1,0,-1
423 903 m 1,31,-1
 502 903 l 1,32,-1
 501 898 l 2,33,34
 500 892 500 892 498 884 c 128,-1,35
 496 876 496 876 493 864.5 c 128,-1,36
 490 853 490 853 485.5 841.5 c 128,-1,37
 481 830 481 830 474.5 818 c 128,-1,38
 468 806 468 806 459 795 c 128,-1,39
 450 784 450 784 439.5 776 c 128,-1,40
 429 768 429 768 414.5 763 c 128,-1,41
 400 758 400 758 384 758 c 0,42,43
 355 758 355 758 326.5 778.5 c 128,-1,44
 298 799 298 799 273 820 c 128,-1,45
 248 841 248 841 228 842 c 0,46,47
 190 840 190 840 188 773 c 1,48,-1
 189 758 l 1,49,-1
 112 758 l 1,50,-1
 122 803 l 1,51,52
 159 910 159 910 228 913 c 0,53,54
 254 913 254 913 306 866 c 128,-1,55
 358 819 358 819 384 819 c 0,56,57
 395 819 395 819 403 827.5 c 128,-1,58
 411 836 411 836 414.5 848 c 128,-1,59
 418 860 418 860 420 872 c 128,-1,60
 422 884 422 884 422 894 c 2,61,-1
 423 903 l 1,31,-1
312 -10 m 0,62,63
 173 -11 173 -11 87.5 85.5 c 128,-1,64
 2 182 2 182 6 340 c 1,65,66
 2 494 2 494 88.5 594.5 c 128,-1,67
 175 695 175 695 312 696 c 0,68,69
 437 695 437 695 523 594 c 128,-1,70
 609 493 609 493 613 340 c 1,71,72
 609 182 609 182 524 85.5 c 128,-1,73
 439 -11 439 -11 312 -10 c 0,62,63
312 29 m 0,74,75
 397 29 397 29 461 117 c 128,-1,76
 525 205 525 205 529 340 c 1,77,78
 528 470 528 470 461.5 564 c 128,-1,79
 395 658 395 658 312 657 c 0,80,81
 217 658 217 658 152 565.5 c 128,-1,82
 87 473 87 473 89 340 c 0,83,84
 87 204 87 204 151.5 116.5 c 128,-1,85
 216 29 216 29 312 29 c 0,74,75
EndSplineSet
Validated: 37
EndChar

StartChar: Odieresis
Encoding: 214 214 140
Width: 617
GlyphClass: 2
Flags: W
LayerCount: 2
Fore
SplineSet
228 786 m 0,0,1
 207 786 207 786 192.5 800.5 c 128,-1,2
 178 815 178 815 178 836 c 0,3,4
 178 858 178 858 192.5 872.5 c 128,-1,5
 207 887 207 887 228 887 c 0,6,7
 250 887 250 887 264.5 872.5 c 128,-1,8
 279 858 279 858 279 836 c 0,9,10
 279 815 279 815 264.5 800.5 c 128,-1,11
 250 786 250 786 228 786 c 0,0,1
390 786 m 0,12,13
 368 786 368 786 353.5 800.5 c 128,-1,14
 339 815 339 815 340 836 c 0,15,16
 339 858 339 858 353.5 872.5 c 128,-1,17
 368 887 368 887 390 887 c 0,18,19
 411 887 411 887 425.5 872.5 c 128,-1,20
 440 858 440 858 440 836 c 0,21,22
 440 815 440 815 425.5 800.5 c 128,-1,23
 411 786 411 786 390 786 c 0,12,13
312 -10 m 0,24,25
 174 -11 174 -11 88 85.5 c 128,-1,26
 2 182 2 182 6 340 c 1,27,28
 2 494 2 494 88.5 594.5 c 128,-1,29
 175 695 175 695 312 696 c 0,30,31
 438 695 438 695 523.5 594 c 128,-1,32
 609 493 609 493 613 340 c 1,33,34
 609 182 609 182 524.5 85.5 c 128,-1,35
 440 -11 440 -11 312 -10 c 0,24,25
312 29 m 0,36,37
 398 29 398 29 462 117 c 128,-1,38
 526 205 526 205 529 340 c 0,39,40
 529 470 529 470 462.5 564 c 128,-1,41
 396 658 396 658 312 657 c 0,42,43
 218 658 218 658 153 565.5 c 128,-1,44
 88 473 88 473 89 340 c 0,45,46
 88 204 88 204 152.5 116.5 c 128,-1,47
 217 29 217 29 312 29 c 0,36,37
EndSplineSet
Validated: 33
EndChar

StartChar: multiply
Encoding: 215 215 141
Width: 478
GlyphClass: 2
Flags: W
LayerCount: 2
Fore
SplineSet
368 301 m 2,0,-1
 300 233 l 1,1,-1
 351 184 l 2,2,3
 385 150 385 150 440 100 c 1,4,-1
 390 50 l 1,5,6
 372 62 372 62 301 133 c 2,7,-1
 251 184 l 1,8,-1
 195 128 l 2,9,10
 190 123 190 123 112 39 c 1,11,-1
 61 89 l 1,12,13
 73 110 73 110 145 178 c 1,14,-1
 200 236 l 1,15,-1
 128 306 l 2,16,17
 107 327 107 327 89 342 c 128,-1,18
 71 357 71 357 56 367.5 c 128,-1,19
 41 378 41 378 39 379 c 1,20,-1
 89 429 l 1,21,22
 97 425 97 425 102.5 422 c 128,-1,23
 108 419 108 419 114.5 414.5 c 128,-1,24
 121 410 121 410 124.5 407 c 128,-1,25
 128 404 128 404 135 397 c 128,-1,26
 142 390 142 390 146 385.5 c 128,-1,27
 150 381 150 381 160.5 369.5 c 128,-1,28
 171 358 171 358 178 351 c 2,29,-1
 248 284 l 1,30,-1
 317 357 l 2,31,32
 339 377 339 377 354.5 394.5 c 128,-1,33
 370 412 370 412 379 425 c 128,-1,34
 388 438 388 438 390 440 c 1,35,-1
 440 390 l 1,36,37
 428 366 428 366 416.5 351.5 c 128,-1,38
 405 337 405 337 368 301 c 2,0,-1
EndSplineSet
Validated: 1
EndChar

StartChar: Oslash
Encoding: 216 216 142
Width: 617
GlyphClass: 2
Flags: W
LayerCount: 2
Fore
SplineSet
518 691 m 1,0,-1
 486 632 l 1,1,2
 542 585 542 585 576 508.5 c 128,-1,3
 610 432 610 432 613 340 c 1,4,5
 609 182 609 182 524 86 c 128,-1,6
 439 -10 439 -10 312 -10 c 0,7,8
 228 -10 228 -10 162 26 c 1,9,-1
 133 -29 l 1,10,-1
 94 -6 l 1,11,-1
 125 51 l 1,12,13
 66 96 66 96 34.5 170.5 c 128,-1,14
 3 245 3 245 6 340 c 1,15,16
 1 495 1 495 87.5 595.5 c 128,-1,17
 174 696 174 696 312 696 c 0,18,19
 388 696 388 696 450 658 c 1,20,-1
 479 713 l 1,21,-1
 518 691 l 1,0,-1
94 340 m 0,22,23
 94 201 94 201 159 115 c 1,24,-1
 421 604 l 1,25,26
 370 652 370 652 312 652 c 0,27,28
 220 652 220 652 157 562.5 c 128,-1,29
 94 473 94 473 94 340 c 0,22,23
312 33 m 0,30,31
 398 33 398 33 458.5 118.5 c 128,-1,32
 519 204 519 204 523 340 c 1,33,34
 523 479 523 479 453 569 c 1,35,-1
 191 80 l 1,36,37
 243 33 243 33 312 33 c 0,30,31
EndSplineSet
Validated: 33
EndChar

StartChar: Ugrave
Encoding: 217 217 143
Width: 584
GlyphClass: 2
Flags: W
LayerCount: 2
Fore
SplineSet
228 913 m 1,0,-1
 312 786 l 1,1,-1
 273 758 l 1,2,-1
 184 881 l 1,3,-1
 228 913 l 1,0,-1
541 181 m 1,4,-1
 541 173 l 2,5,6
 538 127 538 127 512 91.5 c 128,-1,7
 486 56 486 56 448 37 c 128,-1,8
 410 18 410 18 372.5 9 c 128,-1,9
 335 0 335 0 301 0 c 0,10,11
 266 0 266 0 227.5 9 c 128,-1,12
 189 18 189 18 148.5 37 c 128,-1,13
 108 56 108 56 81.5 94.5 c 128,-1,14
 55 133 55 133 55 184 c 2,15,-1
 55 580 l 2,16,17
 56 678 56 678 45 691 c 1,18,-1
 128 691 l 1,19,20
 137 669 137 669 138.5 651 c 128,-1,21
 140 633 140 633 139 574 c 2,22,-1
 139 206 l 2,23,24
 140 132 140 132 186 82.5 c 128,-1,25
 232 33 232 33 301 33 c 0,26,27
 366 33 366 33 412 76.5 c 128,-1,28
 458 120 458 120 458 206 c 2,29,-1
 458 696 l 1,30,-1
 541 696 l 1,31,-1
 541 184 l 1,32,-1
 541 181 l 1,4,-1
EndSplineSet
Validated: 33
EndChar

StartChar: Uacute
Encoding: 218 218 144
Width: 584
GlyphClass: 2
Flags: W
LayerCount: 2
Fore
SplineSet
335 908 m 1,0,-1
 384 869 l 1,1,-1
 284 752 l 1,2,-1
 245 774 l 1,3,-1
 335 908 l 1,0,-1
541 181 m 1,4,-1
 541 173 l 2,5,6
 538 127 538 127 512 91.5 c 128,-1,7
 486 56 486 56 448 37 c 128,-1,8
 410 18 410 18 372.5 9 c 128,-1,9
 335 0 335 0 301 0 c 0,10,11
 266 0 266 0 227.5 9 c 128,-1,12
 189 18 189 18 148.5 37 c 128,-1,13
 108 56 108 56 81.5 94.5 c 128,-1,14
 55 133 55 133 55 184 c 2,15,-1
 55 580 l 2,16,17
 56 678 56 678 45 691 c 1,18,-1
 128 691 l 1,19,20
 137 669 137 669 138.5 651 c 128,-1,21
 140 633 140 633 139 574 c 2,22,-1
 139 206 l 2,23,24
 140 132 140 132 186 82.5 c 128,-1,25
 232 33 232 33 301 33 c 0,26,27
 366 33 366 33 412 76.5 c 128,-1,28
 458 120 458 120 458 206 c 2,29,-1
 458 696 l 1,30,-1
 541 696 l 1,31,-1
 541 184 l 1,32,-1
 541 181 l 1,4,-1
EndSplineSet
Validated: 33
EndChar

StartChar: Ucircumflex
Encoding: 219 219 145
Width: 584
GlyphClass: 2
Flags: W
LayerCount: 2
Fore
SplineSet
368 735 m 1,0,-1
 286 842 l 1,1,-1
 212 735 l 1,2,-1
 133 735 l 1,3,-1
 262 903 l 1,4,-1
 306 903 l 1,5,-1
 445 735 l 1,6,-1
 368 735 l 1,0,-1
541 181 m 1,7,-1
 541 173 l 2,8,9
 538 127 538 127 512 91.5 c 128,-1,10
 486 56 486 56 448 37 c 128,-1,11
 410 18 410 18 372.5 9 c 128,-1,12
 335 0 335 0 301 0 c 0,13,14
 266 0 266 0 227.5 9 c 128,-1,15
 189 18 189 18 148.5 37 c 128,-1,16
 108 56 108 56 81.5 94.5 c 128,-1,17
 55 133 55 133 55 184 c 2,18,-1
 55 580 l 2,19,20
 56 678 56 678 45 691 c 1,21,-1
 128 691 l 1,22,23
 137 669 137 669 138.5 651 c 128,-1,24
 140 633 140 633 139 574 c 2,25,-1
 139 206 l 2,26,27
 140 132 140 132 186 82.5 c 128,-1,28
 232 33 232 33 301 33 c 0,29,30
 366 33 366 33 412 76.5 c 128,-1,31
 458 120 458 120 458 206 c 2,32,-1
 458 696 l 1,33,-1
 541 696 l 1,34,-1
 541 184 l 1,35,-1
 541 181 l 1,7,-1
EndSplineSet
Validated: 33
EndChar

StartChar: Udieresis
Encoding: 220 220 146
Width: 584
GlyphClass: 2
Flags: W
LayerCount: 2
Fore
SplineSet
217 786 m 0,0,1
 196 786 196 786 182 800.5 c 128,-1,2
 168 815 168 815 167 836 c 0,3,4
 168 858 168 858 182 872.5 c 128,-1,5
 196 887 196 887 217 887 c 0,6,7
 239 887 239 887 253.5 872.5 c 128,-1,8
 268 858 268 858 267 836 c 0,9,10
 268 815 268 815 253.5 800.5 c 128,-1,11
 239 786 239 786 217 786 c 0,0,1
379 786 m 0,12,13
 357 786 357 786 343 800.5 c 128,-1,14
 329 815 329 815 329 836 c 0,15,16
 329 858 329 858 343 872.5 c 128,-1,17
 357 887 357 887 379 887 c 0,18,19
 400 887 400 887 414.5 872.5 c 128,-1,20
 429 858 429 858 429 836 c 0,21,22
 429 815 429 815 414.5 800.5 c 128,-1,23
 400 786 400 786 379 786 c 0,12,13
541 179 m 1,24,-1
 541 173 l 2,25,26
 539 127 539 127 513 91.5 c 128,-1,27
 487 56 487 56 449 37 c 128,-1,28
 411 18 411 18 373 9 c 128,-1,29
 335 0 335 0 301 0 c 0,30,31
 266 0 266 0 228 9 c 128,-1,32
 190 18 190 18 149.5 37 c 128,-1,33
 109 56 109 56 82.5 94.5 c 128,-1,34
 56 133 56 133 55 184 c 2,35,-1
 55 580 l 2,36,37
 58 678 58 678 45 691 c 1,38,-1
 128 691 l 1,39,40
 137 669 137 669 139 649.5 c 128,-1,41
 141 630 141 630 139 574 c 2,42,-1
 139 206 l 2,43,44
 141 132 141 132 186.5 82.5 c 128,-1,45
 232 33 232 33 301 33 c 0,46,47
 366 33 366 33 411.5 75.5 c 128,-1,48
 457 118 457 118 458 201 c 2,49,-1
 458 696 l 1,50,-1
 541 696 l 1,51,-1
 541 184 l 1,52,-1
 541 179 l 1,24,-1
EndSplineSet
Validated: 33
EndChar

StartChar: Yacute
Encoding: 221 221 147
Width: 529
GlyphClass: 2
Flags: W
LayerCount: 2
Fore
SplineSet
329 908 m 1,0,-1
 379 869 l 1,1,-1
 279 752 l 1,2,-1
 240 774 l 1,3,-1
 329 908 l 1,0,-1
419 686 m 1,4,-1
 490 686 l 1,5,6
 487 669 487 669 317 352 c 1,7,-1
 312 0 l 1,8,-1
 228 0 l 1,9,-1
 234 351 l 1,10,11
 185 426 185 426 112 550 c 128,-1,12
 39 674 39 674 39 686 c 1,13,-1
 133 686 l 1,14,15
 140 664 140 664 288 424 c 1,16,17
 419 667 419 667 419 686 c 1,4,-1
EndSplineSet
Validated: 1
EndChar

StartChar: Thorn
Encoding: 222 222 148
Width: 584
GlyphClass: 2
Flags: W
LayerCount: 2
Fore
SplineSet
162 580 m 1,0,-1
 290 580 l 2,1,2
 398 578 398 578 474 518 c 128,-1,3
 550 458 550 458 552 357 c 0,4,5
 550 255 550 255 481.5 200 c 128,-1,6
 413 145 413 145 317 145 c 2,7,-1
 162 145 l 1,8,-1
 162 0 l 1,9,-1
 84 0 l 1,10,-1
 84 574 l 2,11,12
 84 658 84 658 68 686 c 1,13,-1
 156 686 l 1,14,15
 164 650 164 650 162 580 c 1,0,-1
162 195 m 1,16,-1
 317 195 l 2,17,18
 374 195 374 195 420 233.5 c 128,-1,19
 466 272 466 272 468 357 c 0,20,21
 466 437 466 437 403.5 483 c 128,-1,22
 341 529 341 529 262 529 c 0,23,24
 172 529 172 529 162 507 c 1,25,-1
 162 195 l 1,16,-1
EndSplineSet
Validated: 33
EndChar

StartChar: germandbls
Encoding: 223 223 149
Width: 490
GlyphClass: 2
Flags: W
LayerCount: 2
Fore
SplineSet
452 189 m 0,0,1
 453 102 453 102 388.5 46 c 128,-1,2
 324 -10 324 -10 234 -6 c 1,3,-1
 234 29 l 1,4,5
 289 28 289 28 332 77.5 c 128,-1,6
 375 127 375 127 374 189 c 0,7,8
 374 244 374 244 354.5 280.5 c 128,-1,9
 335 317 335 317 308.5 331.5 c 128,-1,10
 282 346 282 346 251 351 c 128,-1,11
 220 356 220 356 202.5 354.5 c 128,-1,12
 185 353 185 353 178 351 c 1,13,-1
 184 353 l 1,14,-1
 178 351 l 1,15,-1
 178 390 l 1,16,17
 242 401 242 401 294 451 c 128,-1,18
 346 501 346 501 345 552 c 0,19,20
 347 597 347 597 320.5 630.5 c 128,-1,21
 294 664 294 664 245 664 c 0,22,23
 225 664 225 664 209 660 c 128,-1,24
 193 656 193 656 182 648.5 c 128,-1,25
 171 641 171 641 162 631.5 c 128,-1,26
 153 622 153 622 148 611 c 128,-1,27
 143 600 143 600 140 589.5 c 128,-1,28
 137 579 137 579 135.5 569.5 c 128,-1,29
 134 560 134 560 133.5 552.5 c 128,-1,30
 133 545 133 545 133 540 c 2,31,-1
 133 536 l 1,32,-1
 133 0 l 1,33,-1
 55 0 l 1,34,-1
 55 458 l 2,35,36
 55 488 55 488 56 497 c 1,37,-1
 55 497 l 1,38,39
 55 499 55 499 55 515 c 128,-1,40
 55 531 55 531 55.5 540 c 128,-1,41
 56 549 56 549 58 567.5 c 128,-1,42
 60 586 60 586 66 598.5 c 128,-1,43
 72 611 72 611 80.5 627.5 c 128,-1,44
 89 644 89 644 103.5 654.5 c 128,-1,45
 118 665 118 665 137 675.5 c 128,-1,46
 156 686 156 686 183.5 691 c 128,-1,47
 211 696 211 696 245 696 c 0,48,49
 327 696 327 696 371 658 c 128,-1,50
 415 620 415 620 413 563 c 0,51,52
 415 519 415 519 388.5 472.5 c 128,-1,53
 362 426 362 426 312 389 c 1,54,55
 330 385 330 385 347.5 376.5 c 128,-1,56
 365 368 365 368 392 347 c 128,-1,57
 419 326 419 326 435.5 285 c 128,-1,58
 452 244 452 244 452 189 c 0,0,1
EndSplineSet
Validated: 37
EndChar

StartChar: agrave
Encoding: 224 224 150
Width: 429
GlyphClass: 2
Flags: W
LayerCount: 2
Fore
SplineSet
173 664 m 1,0,-1
 262 536 l 1,1,-1
 223 507 l 1,2,-1
 123 630 l 1,3,-1
 173 664 l 1,0,-1
396 0 m 1,4,-1
 323 0 l 1,5,6
 315 30 315 30 314 60 c 1,7,8
 284 34 284 34 235.5 12 c 128,-1,9
 187 -10 187 -10 151 -10 c 0,10,11
 138 -10 138 -10 125.5 -9 c 128,-1,12
 113 -8 113 -8 93 -2 c 128,-1,13
 73 4 73 4 59 13.5 c 128,-1,14
 45 23 45 23 34.5 42.5 c 128,-1,15
 24 62 24 62 23 89 c 0,16,17
 25 166 25 166 112 217 c 0,18,19
 154 242 154 242 224 267.5 c 128,-1,20
 294 293 294 293 308 307 c 1,21,22
 294 411 294 411 212 413 c 0,23,24
 192 413 192 413 172 403 c 128,-1,25
 152 393 152 393 137.5 379 c 128,-1,26
 123 365 123 365 112 351 c 128,-1,27
 101 337 101 337 95 327 c 2,28,-1
 89 317 l 1,29,-1
 45 361 l 1,30,-1
 50 366 l 2,31,32
 55 372 55 372 63.5 379.5 c 128,-1,33
 72 387 72 387 83.5 397 c 128,-1,34
 95 407 95 407 109.5 416.5 c 128,-1,35
 124 426 124 426 140 434 c 128,-1,36
 156 442 156 442 175 447 c 128,-1,37
 194 452 194 452 212 452 c 0,38,39
 382 452 382 452 384 254 c 2,40,-1
 384 251 l 1,41,-1
 384 112 l 2,42,43
 385 56 385 56 396 0 c 1,4,-1
317 329 m 1,44,-1
 317 328 l 1,45,-1
 317 329 l 1,44,-1
195 45 m 0,46,47
 250 57 250 57 312 99 c 1,48,-1
 312 117 l 1,49,-1
 312 251 l 1,50,-1
 312 267 l 1,51,52
 302 258 302 258 263.5 241.5 c 128,-1,53
 225 225 225 225 189.5 209.5 c 128,-1,54
 154 194 154 194 124 163 c 128,-1,55
 94 132 94 132 94 94 c 0,56,57
 95 64 95 64 123.5 49 c 128,-1,58
 152 34 152 34 195 45 c 0,46,47
335 123 m 1,59,-1
 335 122 l 1,60,-1
 335 123 l 1,59,-1
EndSplineSet
Validated: 33
EndChar

StartChar: aacute
Encoding: 225 225 151
Width: 429
GlyphClass: 2
Flags: W
LayerCount: 2
Fore
SplineSet
273 664 m 1,0,-1
 323 630 l 1,1,-1
 223 507 l 1,2,-1
 184 536 l 1,3,-1
 273 664 l 1,0,-1
396 0 m 1,4,-1
 323 0 l 1,5,6
 315 30 315 30 314 60 c 1,7,8
 284 34 284 34 235.5 12 c 128,-1,9
 187 -10 187 -10 151 -10 c 0,10,11
 138 -10 138 -10 125.5 -9 c 128,-1,12
 113 -8 113 -8 93 -2 c 128,-1,13
 73 4 73 4 59 13.5 c 128,-1,14
 45 23 45 23 34.5 42.5 c 128,-1,15
 24 62 24 62 23 89 c 0,16,17
 25 166 25 166 112 217 c 0,18,19
 154 242 154 242 224 267.5 c 128,-1,20
 294 293 294 293 308 307 c 1,21,22
 294 411 294 411 212 413 c 0,23,24
 192 413 192 413 172 403 c 128,-1,25
 152 393 152 393 137.5 379 c 128,-1,26
 123 365 123 365 112 351 c 128,-1,27
 101 337 101 337 95 327 c 2,28,-1
 89 317 l 1,29,-1
 45 361 l 1,30,-1
 50 366 l 2,31,32
 55 372 55 372 63.5 379.5 c 128,-1,33
 72 387 72 387 83.5 397 c 128,-1,34
 95 407 95 407 109.5 416.5 c 128,-1,35
 124 426 124 426 140 434 c 128,-1,36
 156 442 156 442 175 447 c 128,-1,37
 194 452 194 452 212 452 c 0,38,39
 382 452 382 452 384 254 c 2,40,-1
 384 251 l 1,41,-1
 384 112 l 2,42,43
 385 56 385 56 396 0 c 1,4,-1
317 329 m 1,44,-1
 317 328 l 1,45,-1
 317 329 l 1,44,-1
195 45 m 0,46,47
 250 57 250 57 312 99 c 1,48,-1
 312 117 l 1,49,-1
 312 251 l 1,50,-1
 312 267 l 1,51,52
 302 258 302 258 263.5 241.5 c 128,-1,53
 225 225 225 225 189.5 209.5 c 128,-1,54
 154 194 154 194 124 163 c 128,-1,55
 94 132 94 132 94 94 c 0,56,57
 95 64 95 64 123.5 49 c 128,-1,58
 152 34 152 34 195 45 c 0,46,47
335 123 m 1,59,-1
 335 122 l 1,60,-1
 335 123 l 1,59,-1
EndSplineSet
Validated: 33
EndChar

StartChar: acircumflex
Encoding: 226 226 152
Width: 429
GlyphClass: 2
Flags: W
LayerCount: 2
Fore
SplineSet
290 497 m 1,0,-1
 206 604 l 1,1,-1
 133 497 l 1,2,-1
 55 497 l 1,3,-1
 184 669 l 1,4,-1
 228 669 l 1,5,-1
 368 497 l 1,6,-1
 290 497 l 1,0,-1
396 0 m 1,7,-1
 323 0 l 1,8,9
 315 30 315 30 314 60 c 1,10,11
 284 34 284 34 235.5 12 c 128,-1,12
 187 -10 187 -10 151 -10 c 0,13,14
 138 -10 138 -10 125.5 -9 c 128,-1,15
 113 -8 113 -8 93 -2 c 128,-1,16
 73 4 73 4 59 13.5 c 128,-1,17
 45 23 45 23 34.5 42.5 c 128,-1,18
 24 62 24 62 23 89 c 0,19,20
 25 166 25 166 112 217 c 0,21,22
 154 242 154 242 224 267.5 c 128,-1,23
 294 293 294 293 308 307 c 1,24,25
 294 411 294 411 212 413 c 0,26,27
 192 413 192 413 172 403 c 128,-1,28
 152 393 152 393 137.5 379 c 128,-1,29
 123 365 123 365 112 351 c 128,-1,30
 101 337 101 337 95 327 c 2,31,-1
 89 317 l 1,32,-1
 45 361 l 1,33,-1
 50 366 l 2,34,35
 55 372 55 372 63.5 379.5 c 128,-1,36
 72 387 72 387 83.5 397 c 128,-1,37
 95 407 95 407 109.5 416.5 c 128,-1,38
 124 426 124 426 140 434 c 128,-1,39
 156 442 156 442 175 447 c 128,-1,40
 194 452 194 452 212 452 c 0,41,42
 382 452 382 452 384 254 c 2,43,-1
 384 251 l 1,44,-1
 384 112 l 2,45,46
 385 56 385 56 396 0 c 1,7,-1
317 329 m 1,47,-1
 317 328 l 1,48,-1
 317 329 l 1,47,-1
195 45 m 0,49,50
 250 57 250 57 312 99 c 1,51,-1
 312 117 l 1,52,-1
 312 251 l 1,53,-1
 312 267 l 1,54,55
 302 258 302 258 263.5 241.5 c 128,-1,56
 225 225 225 225 189.5 209.5 c 128,-1,57
 154 194 154 194 124 163 c 128,-1,58
 94 132 94 132 94 94 c 0,59,60
 95 64 95 64 123.5 49 c 128,-1,61
 152 34 152 34 195 45 c 0,49,50
335 123 m 1,62,-1
 335 122 l 1,63,-1
 335 123 l 1,62,-1
EndSplineSet
Validated: 33
EndChar

StartChar: atilde
Encoding: 227 227 153
Width: 445
GlyphClass: 2
Flags: W
LayerCount: 2
Fore
SplineSet
139 580 m 0,0,1
 100 579 100 579 100 497 c 1,2,-1
 23 497 l 1,3,-1
 24 503 l 2,4,5
 25 509 25 509 27.5 517.5 c 128,-1,6
 30 526 30 526 33 538 c 128,-1,7
 36 550 36 550 41 562.5 c 128,-1,8
 46 575 46 575 52.5 588 c 128,-1,9
 59 601 59 601 68 612.5 c 128,-1,10
 77 624 77 624 87 633 c 128,-1,11
 97 642 97 642 110.5 647 c 128,-1,12
 124 652 124 652 139 652 c 0,13,14
 165 652 165 652 218 604.5 c 128,-1,15
 271 557 271 557 296 557 c 0,16,17
 335 558 335 558 335 641 c 1,18,-1
 413 641 l 1,19,20
 413 638 413 638 411 625.5 c 128,-1,21
 409 613 409 613 401 590 c 128,-1,22
 393 567 393 567 381.5 547 c 128,-1,23
 370 527 370 527 347.5 512 c 128,-1,24
 325 497 325 497 296 497 c 0,25,26
 260 497 260 497 211 538.5 c 128,-1,27
 162 580 162 580 139 580 c 0,0,1
396 251 m 1,28,-1
 396 112 l 2,29,30
 396 55 396 55 407 0 c 1,31,-1
 335 0 l 1,32,33
 326 29 326 29 325 60 c 1,34,35
 296 34 296 34 247 12 c 128,-1,36
 198 -10 198 -10 162 -10 c 0,37,38
 144 -10 144 -10 127.5 -7.5 c 128,-1,39
 111 -5 111 -5 87 3.5 c 128,-1,40
 63 12 63 12 48.5 34 c 128,-1,41
 34 56 34 56 33 89 c 0,42,43
 35 167 35 167 123 217 c 0,44,45
 164 242 164 242 234 267.5 c 128,-1,46
 304 293 304 293 318 307 c 1,47,48
 304 411 304 411 223 413 c 0,49,50
 208 413 208 413 193 407.5 c 128,-1,51
 178 402 178 402 166.5 393.5 c 128,-1,52
 155 385 155 385 144 375 c 128,-1,53
 133 365 133 365 125.5 355 c 128,-1,54
 118 345 118 345 112 336.5 c 128,-1,55
 106 328 106 328 103 322 c 2,56,-1
 100 317 l 1,57,-1
 55 361 l 1,58,-1
 60 366 l 2,59,60
 65 372 65 372 73.5 379.5 c 128,-1,61
 82 387 82 387 93.5 397 c 128,-1,62
 105 407 105 407 120 416.5 c 128,-1,63
 135 426 135 426 151 434 c 128,-1,64
 167 442 167 442 186 447 c 128,-1,65
 205 452 205 452 223 452 c 0,66,67
 394 452 394 452 396 253 c 2,68,-1
 396 251 l 1,28,-1
329 329 m 1,69,-1
 329 328 l 1,70,-1
 329 329 l 1,69,-1
206 45 m 0,71,72
 261 57 261 57 323 99 c 1,73,-1
 323 117 l 1,74,-1
 323 251 l 1,75,-1
 323 267 l 1,76,77
 313 258 313 258 274.5 241.5 c 128,-1,78
 236 225 236 225 200.5 209.5 c 128,-1,79
 165 194 165 194 135.5 163 c 128,-1,80
 106 132 106 132 106 94 c 0,81,82
 106 64 106 64 134.5 49 c 128,-1,83
 163 34 163 34 206 45 c 0,71,72
345 123 m 1,84,-1
 345 122 l 1,85,-1
 345 123 l 1,84,-1
EndSplineSet
Validated: 33
EndChar

StartChar: adieresis
Encoding: 228 228 154
Width: 429
GlyphClass: 2
Flags: W
LayerCount: 2
Fore
SplineSet
139 518 m 0,0,1
 118 518 118 518 104 532 c 128,-1,2
 90 546 90 546 89 568 c 0,3,4
 90 589 90 589 104 603.5 c 128,-1,5
 118 618 118 618 139 618 c 0,6,7
 161 618 161 618 175.5 603.5 c 128,-1,8
 190 589 190 589 189 568 c 0,9,10
 190 546 190 546 175.5 532 c 128,-1,11
 161 518 161 518 139 518 c 0,0,1
301 518 m 0,12,13
 279 518 279 518 265 532 c 128,-1,14
 251 546 251 546 251 568 c 0,15,16
 251 589 251 589 265 603.5 c 128,-1,17
 279 618 279 618 301 618 c 0,18,19
 322 618 322 618 336.5 603.5 c 128,-1,20
 351 589 351 589 351 568 c 0,21,22
 351 546 351 546 336.5 532 c 128,-1,23
 322 518 322 518 301 518 c 0,12,13
396 0 m 1,24,-1
 323 0 l 1,25,26
 317 24 317 24 314 60 c 1,27,28
 286 34 286 34 237 12 c 128,-1,29
 188 -10 188 -10 151 -10 c 0,30,31
 134 -10 134 -10 117.5 -7.5 c 128,-1,32
 101 -5 101 -5 77.5 3.5 c 128,-1,33
 54 12 54 12 39 34 c 128,-1,34
 24 56 24 56 23 89 c 0,35,36
 26 164 26 164 112 217 c 0,37,38
 154 242 154 242 224.5 267.5 c 128,-1,39
 295 293 295 293 309 307 c 1,40,41
 302 362 302 362 277.5 387 c 128,-1,42
 253 412 253 412 212 413 c 0,43,44
 192 413 192 413 172 403 c 128,-1,45
 152 393 152 393 138 379 c 128,-1,46
 124 365 124 365 113 351 c 128,-1,47
 102 337 102 337 96 327 c 2,48,-1
 89 317 l 1,49,-1
 45 361 l 1,50,-1
 54 370 l 2,51,52
 64 380 64 380 80 393.5 c 128,-1,53
 96 407 96 407 116 420.5 c 128,-1,54
 136 434 136 434 161.5 443 c 128,-1,55
 187 452 187 452 212 452 c 0,56,57
 386 452 386 452 384 253 c 2,58,-1
 384 251 l 1,59,-1
 384 112 l 2,60,61
 384 82 384 82 386.5 59 c 128,-1,62
 389 36 389 36 392 18 c 2,63,-1
 396 0 l 1,24,-1
317 329 m 1,64,-1
 317 327 l 1,65,-1
 317 329 l 1,64,-1
195 45 m 0,66,67
 255 58 255 58 313 99 c 0,68,69
 313 102 313 102 312.5 108 c 128,-1,70
 312 114 312 114 312 117 c 2,71,-1
 312 251 l 1,72,-1
 312 267 l 1,73,74
 302 258 302 258 264 241.5 c 128,-1,75
 226 225 226 225 190 209.5 c 128,-1,76
 154 194 154 194 124.5 163 c 128,-1,77
 95 132 95 132 94 94 c 0,78,79
 96 64 96 64 124.5 49 c 128,-1,80
 153 34 153 34 195 45 c 0,66,67
335 123 m 1,81,-1
 335 122 l 1,82,-1
 335 123 l 1,81,-1
EndSplineSet
Validated: 41
EndChar

StartChar: aring
Encoding: 229 229 155
Width: 429
GlyphClass: 2
Flags: W
LayerCount: 2
Fore
SplineSet
217 490 m 0,0,1
 177 490 177 490 147.5 520 c 128,-1,2
 118 550 118 550 117 591 c 0,3,4
 118 632 118 632 147.5 661 c 128,-1,5
 177 690 177 690 217 691 c 0,6,7
 258 690 258 690 287.5 661 c 128,-1,8
 317 632 317 632 317 591 c 128,-1,9
 317 550 317 550 287.5 520 c 128,-1,10
 258 490 258 490 217 490 c 0,0,1
217 641 m 0,11,12
 196 641 196 641 182 627.5 c 128,-1,13
 168 614 168 614 167 591 c 0,14,15
 169 541 169 541 217 541 c 0,16,17
 239 541 239 541 253.5 554.5 c 128,-1,18
 268 568 268 568 267 591 c 0,19,20
 268 612 268 612 253.5 626.5 c 128,-1,21
 239 641 239 641 217 641 c 0,11,12
396 0 m 1,22,-1
 323 0 l 1,23,24
 315 30 315 30 314 60 c 1,25,26
 284 34 284 34 235.5 12 c 128,-1,27
 187 -10 187 -10 151 -10 c 0,28,29
 138 -10 138 -10 125.5 -9 c 128,-1,30
 113 -8 113 -8 93 -2 c 128,-1,31
 73 4 73 4 59 13.5 c 128,-1,32
 45 23 45 23 34.5 42.5 c 128,-1,33
 24 62 24 62 23 89 c 0,34,35
 25 166 25 166 112 217 c 0,36,37
 154 242 154 242 224 267.5 c 128,-1,38
 294 293 294 293 308 307 c 1,39,40
 294 411 294 411 212 413 c 0,41,42
 192 413 192 413 172 403 c 128,-1,43
 152 393 152 393 137.5 379 c 128,-1,44
 123 365 123 365 112 351 c 128,-1,45
 101 337 101 337 95 327 c 2,46,-1
 89 317 l 1,47,-1
 45 361 l 1,48,-1
 50 366 l 2,49,50
 55 372 55 372 63.5 379.5 c 128,-1,51
 72 387 72 387 83.5 397 c 128,-1,52
 95 407 95 407 109.5 416.5 c 128,-1,53
 124 426 124 426 140 434 c 128,-1,54
 156 442 156 442 175 447 c 128,-1,55
 194 452 194 452 212 452 c 0,56,57
 382 452 382 452 384 254 c 2,58,-1
 384 251 l 1,59,-1
 384 112 l 2,60,61
 385 56 385 56 396 0 c 1,22,-1
317 329 m 1,62,-1
 317 328 l 1,63,-1
 317 329 l 1,62,-1
195 45 m 0,64,65
 250 57 250 57 312 99 c 1,66,-1
 312 117 l 1,67,-1
 312 251 l 1,68,-1
 312 267 l 1,69,70
 302 258 302 258 263.5 241.5 c 128,-1,71
 225 225 225 225 189.5 209.5 c 128,-1,72
 154 194 154 194 124 163 c 128,-1,73
 94 132 94 132 94 94 c 0,74,75
 95 64 95 64 123.5 49 c 128,-1,76
 152 34 152 34 195 45 c 0,64,65
335 123 m 1,77,-1
 335 122 l 1,78,-1
 335 123 l 1,77,-1
EndSplineSet
Validated: 33
EndChar

StartChar: ae
Encoding: 230 230 156
Width: 757
GlyphClass: 2
Flags: W
LayerCount: 2
Fore
SplineSet
725 223 m 1,0,-1
 396 223 l 1,1,2
 397 141 397 141 436.5 87 c 128,-1,3
 476 33 476 33 529 29 c 1,4,5
 607 35 607 35 641 78 c 1,6,-1
 708 78 l 1,7,8
 648 -10 648 -10 529 -10 c 0,9,10
 416 -10 416 -10 358 85 c 1,11,12
 267 -10 267 -10 162 -10 c 0,13,14
 39 -10 39 -10 33 89 c 0,15,16
 28 164 28 164 123 217 c 0,17,18
 166 243 166 243 234 268 c 128,-1,19
 302 293 302 293 316 305 c 1,20,21
 307 358 307 358 282.5 385.5 c 128,-1,22
 258 413 258 413 223 413 c 0,23,24
 191 413 191 413 160 389 c 128,-1,25
 129 365 129 365 114 341 c 2,26,-1
 100 317 l 1,27,-1
 55 361 l 1,28,29
 58 365 58 365 64 371 c 128,-1,30
 70 377 70 377 88 392.5 c 128,-1,31
 106 408 106 408 125 420 c 128,-1,32
 144 432 144 432 171 442 c 128,-1,33
 198 452 198 452 223 452 c 0,34,35
 327 452 327 452 370 376 c 1,36,37
 429 452 429 452 529 452 c 0,38,39
 617 452 617 452 671 390 c 128,-1,40
 725 328 725 328 725 228 c 2,41,-1
 725 223 l 1,0,-1
529 413 m 0,42,43
 479 413 479 413 442 372.5 c 128,-1,44
 405 332 405 332 398 262 c 1,45,-1
 650 262 l 1,46,47
 643 333 643 333 610.5 373 c 128,-1,48
 578 413 578 413 529 413 c 0,42,43
206 45 m 0,49,50
 246 54 246 54 288 78 c 128,-1,51
 330 102 330 102 342 117 c 1,52,53
 323 168 323 168 323 228 c 0,54,55
 323 255 323 255 322 267 c 1,56,57
 311 258 311 258 271 241.5 c 128,-1,58
 231 225 231 225 195.5 209.5 c 128,-1,59
 160 194 160 194 133 163 c 128,-1,60
 106 132 106 132 112 94 c 0,61,62
 117 62 117 62 140.5 48 c 128,-1,63
 164 34 164 34 206 45 c 0,49,50
EndSplineSet
Validated: 33
EndChar

StartChar: ccedilla
Encoding: 231 231 157
Width: 461
GlyphClass: 2
Flags: W
LayerCount: 2
Fore
SplineSet
251 452 m 0,0,1
 290 452 290 452 323 439.5 c 128,-1,2
 356 427 356 427 375 408.5 c 128,-1,3
 394 390 394 390 406.5 372 c 128,-1,4
 419 354 419 354 424.5 341.5 c 128,-1,5
 430 329 430 329 429 329 c 2,6,-1
 361 312 l 1,7,8
 364 312 364 312 357 337 c 128,-1,9
 350 362 350 362 321.5 387.5 c 128,-1,10
 293 413 293 413 245 413 c 0,11,12
 187 413 187 413 150 361.5 c 128,-1,13
 113 310 113 310 112 223 c 0,14,15
 113 133 113 133 152 81 c 128,-1,16
 191 29 191 29 251 29 c 0,17,18
 284 29 284 29 308.5 42.5 c 128,-1,19
 333 56 333 56 342.5 69 c 128,-1,20
 352 82 352 82 351 89 c 1,21,-1
 419 89 l 1,22,23
 420 62 420 62 383 30.5 c 128,-1,24
 346 -1 346 -1 284 -9 c 1,25,-1
 262 -39 l 2,26,27
 263 -40 263 -40 281.5 -50 c 128,-1,28
 300 -60 300 -60 314 -76.5 c 128,-1,29
 328 -93 328 -93 329 -117 c 0,30,31
 328 -160 328 -160 298.5 -180.5 c 128,-1,32
 269 -201 269 -201 228 -201 c 0,33,34
 204 -201 204 -201 184.5 -194.5 c 128,-1,35
 165 -188 165 -188 153.5 -179 c 128,-1,36
 142 -170 142 -170 134.5 -161 c 128,-1,37
 127 -152 127 -152 124.5 -145.5 c 128,-1,38
 122 -139 122 -139 123 -139 c 2,39,-1
 173 -117 l 1,40,41
 171 -119 171 -119 175.5 -129.5 c 128,-1,42
 180 -140 180 -140 192.5 -151 c 128,-1,43
 205 -162 205 -162 223 -162 c 0,44,45
 264 -162 264 -162 267 -117 c 0,46,47
 267 -110 267 -110 264.5 -103.5 c 128,-1,48
 262 -97 262 -97 260 -92 c 128,-1,49
 258 -87 258 -87 252.5 -81 c 128,-1,50
 247 -75 247 -75 244.5 -72 c 128,-1,51
 242 -69 242 -69 233.5 -63.5 c 128,-1,52
 225 -58 225 -58 222 -56 c 128,-1,53
 219 -54 219 -54 208.5 -47.5 c 128,-1,54
 198 -41 198 -41 195 -39 c 1,55,-1
 219 -9 l 1,56,57
 135 2 135 2 84.5 64.5 c 128,-1,58
 34 127 34 127 33 223 c 0,59,60
 34 323 34 323 95 387.5 c 128,-1,61
 156 452 156 452 251 452 c 0,0,1
EndSplineSet
Validated: 37
EndChar

StartChar: egrave
Encoding: 232 232 158
Width: 467
GlyphClass: 2
Flags: W
LayerCount: 2
Fore
SplineSet
184 664 m 1,0,-1
 273 536 l 1,1,-1
 234 507 l 1,2,-1
 133 630 l 1,3,-1
 184 664 l 1,0,-1
435 228 m 1,4,-1
 434 227 l 1,5,-1
 435 223 l 2,6,7
 433 221 433 221 433 223 c 1,8,-1
 106 223 l 1,9,10
 105 139 105 139 145 84.5 c 128,-1,11
 185 30 185 30 240 29 c 0,12,13
 315 30 315 30 351 78 c 1,14,-1
 419 78 l 1,15,16
 360 -10 360 -10 240 -10 c 0,17,18
 148 -10 148 -10 89.5 57.5 c 128,-1,19
 31 125 31 125 33 228 c 0,20,21
 32 327 32 327 89.5 389.5 c 128,-1,22
 147 452 147 452 240 452 c 0,23,24
 326 452 326 452 379 390.5 c 128,-1,25
 432 329 432 329 435 228 c 1,4,-1
240 413 m 0,26,27
 189 412 189 412 152 371 c 128,-1,28
 115 330 115 330 108 262 c 1,29,-1
 359 262 l 1,30,31
 352 333 352 333 320 372.5 c 128,-1,32
 288 412 288 412 240 413 c 0,26,27
EndSplineSet
Validated: 33
EndChar

StartChar: eacute
Encoding: 233 233 159
Width: 467
GlyphClass: 2
Flags: W
LayerCount: 2
Fore
SplineSet
284 664 m 1,0,-1
 335 630 l 1,1,-1
 234 507 l 1,2,-1
 195 536 l 1,3,-1
 284 664 l 1,0,-1
435 228 m 0,4,5
 435 227 435 227 434 227 c 1,6,-1
 435 223 l 2,7,8
 434 222 434 222 434 223 c 1,9,-1
 106 223 l 1,10,11
 105 139 105 139 145 84.5 c 128,-1,12
 185 30 185 30 240 29 c 0,13,14
 317 30 317 30 351 78 c 1,15,-1
 419 78 l 1,16,17
 361 -10 361 -10 240 -10 c 0,18,19
 149 -10 149 -10 90.5 57.5 c 128,-1,20
 32 125 32 125 33 228 c 0,21,22
 32 327 32 327 90 389.5 c 128,-1,23
 148 452 148 452 240 452 c 0,24,25
 327 452 327 452 380 390.5 c 128,-1,26
 433 329 433 329 435 228 c 0,4,5
240 413 m 0,27,28
 190 412 190 412 152.5 371 c 128,-1,29
 115 330 115 330 108 262 c 1,30,-1
 359 262 l 1,31,32
 352 333 352 333 320.5 372.5 c 128,-1,33
 289 412 289 412 240 413 c 0,27,28
EndSplineSet
Validated: 33
EndChar

StartChar: ecircumflex
Encoding: 234 234 160
Width: 467
GlyphClass: 2
Flags: W
LayerCount: 2
Fore
SplineSet
312 497 m 1,0,-1
 228 604 l 1,1,-1
 156 497 l 1,2,-1
 78 497 l 1,3,-1
 206 669 l 1,4,-1
 251 669 l 1,5,-1
 390 497 l 1,6,-1
 312 497 l 1,0,-1
435 228 m 0,7,8
 435 227 435 227 434 227 c 1,9,-1
 435 223 l 2,10,11
 434 222 434 222 434 223 c 1,12,-1
 106 223 l 1,13,14
 105 139 105 139 145 84.5 c 128,-1,15
 185 30 185 30 240 29 c 0,16,17
 317 30 317 30 351 78 c 1,18,-1
 419 78 l 1,19,20
 361 -10 361 -10 240 -10 c 0,21,22
 149 -10 149 -10 90.5 57.5 c 128,-1,23
 32 125 32 125 33 228 c 0,24,25
 32 327 32 327 90 389.5 c 128,-1,26
 148 452 148 452 240 452 c 0,27,28
 327 452 327 452 380 390.5 c 128,-1,29
 433 329 433 329 435 228 c 0,7,8
240 413 m 0,30,31
 190 412 190 412 152.5 371 c 128,-1,32
 115 330 115 330 108 262 c 1,33,-1
 359 262 l 1,34,35
 352 333 352 333 320.5 372.5 c 128,-1,36
 289 412 289 412 240 413 c 0,30,31
EndSplineSet
Validated: 33
EndChar

StartChar: edieresis
Encoding: 235 235 161
Width: 467
GlyphClass: 2
Flags: W
LayerCount: 2
Fore
SplineSet
156 518 m 0,0,1
 135 518 135 518 120.5 532 c 128,-1,2
 106 546 106 546 106 568 c 0,3,4
 106 589 106 589 120.5 603.5 c 128,-1,5
 135 618 135 618 156 618 c 0,6,7
 178 618 178 618 192.5 603.5 c 128,-1,8
 207 589 207 589 206 568 c 0,9,10
 207 546 207 546 192.5 532 c 128,-1,11
 178 518 178 518 156 518 c 0,0,1
317 518 m 0,12,13
 295 518 295 518 281 532 c 128,-1,14
 267 546 267 546 267 568 c 0,15,16
 267 589 267 589 281 603.5 c 128,-1,17
 295 618 295 618 317 618 c 0,18,19
 338 618 338 618 353 603.5 c 128,-1,20
 368 589 368 589 368 568 c 128,-1,21
 368 547 368 547 353 532.5 c 128,-1,22
 338 518 338 518 317 518 c 0,12,13
435 228 m 1,23,-1
 434 227 l 1,24,-1
 435 223 l 2,25,26
 433 221 433 221 433 223 c 1,27,-1
 106 223 l 1,28,29
 105 139 105 139 145 84.5 c 128,-1,30
 185 30 185 30 240 29 c 0,31,32
 315 30 315 30 351 78 c 1,33,-1
 419 78 l 1,34,35
 360 -10 360 -10 240 -10 c 0,36,37
 148 -10 148 -10 89.5 57.5 c 128,-1,38
 31 125 31 125 33 228 c 0,39,40
 32 327 32 327 89.5 389.5 c 128,-1,41
 147 452 147 452 240 452 c 0,42,43
 326 452 326 452 379 390.5 c 128,-1,44
 432 329 432 329 435 228 c 1,23,-1
240 413 m 0,45,46
 189 412 189 412 152 371 c 128,-1,47
 115 330 115 330 108 262 c 1,48,-1
 359 262 l 1,49,50
 352 333 352 333 320 372.5 c 128,-1,51
 288 412 288 412 240 413 c 0,45,46
EndSplineSet
Validated: 33
EndChar

StartChar: igrave
Encoding: 236 236 162
Width: 244
GlyphClass: 2
Flags: W
LayerCount: 2
Fore
SplineSet
145 523 m 1,0,-1
 184 552 l 1,1,-1
 94 680 l 1,2,-1
 45 646 l 1,3,-1
 145 523 l 1,0,-1
112 440 m 1,4,-1
 184 440 l 1,5,6
 185 436 185 436 187 428.5 c 128,-1,7
 189 421 189 421 192 390.5 c 128,-1,8
 195 360 195 360 195 323 c 2,9,-1
 195 0 l 1,10,-1
 128 0 l 1,11,-1
 128 329 l 2,12,13
 128 364 128 364 124 391.5 c 128,-1,14
 120 419 120 419 116.5 429.5 c 128,-1,15
 113 440 113 440 112 440 c 1,4,-1
EndSplineSet
Validated: 9
EndChar

StartChar: iacute
Encoding: 237 237 163
Width: 262
GlyphClass: 2
Flags: W
LayerCount: 2
Fore
SplineSet
151 686 m 1,0,-1
 61 557 l 1,1,-1
 100 529 l 1,2,-1
 201 652 l 1,3,-1
 151 686 l 1,0,-1
68 440 m 2,4,-1
 139 440 l 1,5,6
 138 440 138 440 140.5 429.5 c 128,-1,7
 143 419 143 419 146.5 389 c 128,-1,8
 150 359 150 359 151 323 c 2,9,-1
 151 0 l 1,10,-1
 78 0 l 1,11,-1
 78 329 l 2,12,13
 77 363 77 363 74 391.5 c 128,-1,14
 71 420 71 420 69 430 c 128,-1,15
 67 440 67 440 68 440 c 2,4,-1
EndSplineSet
Validated: 9
EndChar

StartChar: icircumflex
Encoding: 238 238 164
Width: 417
GlyphClass: 2
Flags: W
LayerCount: 2
Fore
SplineSet
184 691 m 1,0,-1
 223 691 l 1,1,-1
 357 523 l 1,2,-1
 284 523 l 1,3,-1
 202 630 l 1,4,-1
 128 523 l 1,5,-1
 61 523 l 1,6,-1
 184 691 l 1,0,-1
167 440 m 1,7,-1
 240 440 l 2,8,9
 241 440 241 440 244 429.5 c 128,-1,10
 247 419 247 419 251 390 c 128,-1,11
 255 361 255 361 256 323 c 2,12,-1
 256 0 l 1,13,-1
 184 0 l 1,14,-1
 184 329 l 2,15,16
 183 365 183 365 179 392 c 128,-1,17
 175 419 175 419 172 429.5 c 128,-1,18
 169 440 169 440 167 440 c 1,7,-1
EndSplineSet
Validated: 1
EndChar

StartChar: idieresis
Encoding: 239 239 165
Width: 361
GlyphClass: 2
Flags: W
LayerCount: 2
Fore
SplineSet
100 546 m 0,0,1
 77 546 77 546 63.5 560 c 128,-1,2
 50 574 50 574 50 596 c 128,-1,3
 50 618 50 618 63.5 632 c 128,-1,4
 77 646 77 646 100 646 c 0,5,6
 121 646 121 646 136 631.5 c 128,-1,7
 151 617 151 617 151 596 c 128,-1,8
 151 575 151 575 136 560.5 c 128,-1,9
 121 546 121 546 100 546 c 0,0,1
262 546 m 0,10,11
 239 546 239 546 225.5 560 c 128,-1,12
 212 574 212 574 212 596 c 128,-1,13
 212 618 212 618 225.5 632 c 128,-1,14
 239 646 239 646 262 646 c 0,15,16
 283 646 283 646 297.5 632 c 128,-1,17
 312 618 312 618 312 596 c 128,-1,18
 312 574 312 574 297.5 560 c 128,-1,19
 283 546 283 546 262 546 c 0,10,11
133 440 m 2,20,-1
 206 440 l 1,21,22
 204 440 204 440 206 430 c 128,-1,23
 208 420 208 420 211.5 389.5 c 128,-1,24
 215 359 215 359 217 323 c 2,25,-1
 217 0 l 1,26,-1
 145 0 l 1,27,-1
 145 329 l 2,28,29
 145 363 145 363 141 391.5 c 128,-1,30
 137 420 137 420 134.5 430 c 128,-1,31
 132 440 132 440 133 440 c 2,20,-1
EndSplineSet
Validated: 1
EndChar

StartChar: eth
Encoding: 240 240 166
Width: 495
GlyphClass: 2
Flags: W
LayerCount: 2
Fore
SplineSet
474 215 m 2,0,-1
 474 212 l 2,1,2
 473 107 473 107 410 48.5 c 128,-1,3
 347 -10 347 -10 245 -10 c 0,4,5
 156 -10 156 -10 96.5 51.5 c 128,-1,6
 37 113 37 113 33 212 c 1,7,8
 33 313 33 313 91 376.5 c 128,-1,9
 149 440 149 440 245 440 c 0,10,11
 327 440 327 440 385 399 c 1,12,13
 367 479 367 479 335 523 c 0,14,15
 316 553 316 553 288 578 c 1,16,-1
 284 574 l 1,17,18
 229 532 229 532 201 502 c 1,19,-1
 156 552 l 1,20,21
 162 558 162 558 175 568 c 128,-1,22
 188 578 188 578 206 592 c 128,-1,23
 224 606 224 606 234 614 c 1,24,25
 175 646 175 646 112 646 c 1,26,-1
 112 686 l 1,27,28
 199 686 199 686 275 646 c 1,29,30
 329 691 329 691 357 730 c 1,31,-1
 400 686 l 1,32,33
 392 668 392 668 379 655 c 128,-1,34
 366 642 366 642 330 612 c 1,35,36
 376 577 376 577 413 523 c 0,37,38
 440 483 440 483 454.5 416.5 c 128,-1,39
 469 350 469 350 471 312 c 128,-1,40
 473 274 473 274 474 215 c 2,0,-1
245 29 m 0,41,42
 311 29 311 29 355.5 78 c 128,-1,43
 400 127 400 127 400 212 c 2,44,-1
 400 213 l 2,45,46
 400 253 400 253 399 279 c 0,47,48
 392 331 392 331 346 365.5 c 128,-1,49
 300 400 300 400 251 400 c 0,50,51
 180 400 180 400 142.5 350.5 c 128,-1,52
 105 301 105 301 106 212 c 0,53,54
 110 131 110 131 151 80 c 128,-1,55
 192 29 192 29 245 29 c 0,41,42
EndSplineSet
Validated: 33
EndChar

StartChar: ntilde
Encoding: 241 241 167
Width: 506
GlyphClass: 2
Flags: W
LayerCount: 2
Fore
SplineSet
173 580 m 0,0,1
 133 579 133 579 133 497 c 1,2,-1
 55 497 l 1,3,-1
 56 503 l 2,4,5
 57 509 57 509 59.5 517.5 c 128,-1,6
 62 526 62 526 65.5 538 c 128,-1,7
 69 550 69 550 74 562.5 c 128,-1,8
 79 575 79 575 85.5 588 c 128,-1,9
 92 601 92 601 101 612.5 c 128,-1,10
 110 624 110 624 120.5 633 c 128,-1,11
 131 642 131 642 144.5 647 c 128,-1,12
 158 652 158 652 173 652 c 0,13,14
 199 652 199 652 251.5 604.5 c 128,-1,15
 304 557 304 557 329 557 c 0,16,17
 368 558 368 558 368 641 c 1,18,-1
 445 641 l 1,19,20
 445 638 445 638 443 625.5 c 128,-1,21
 441 613 441 613 433.5 590 c 128,-1,22
 426 567 426 567 414 547 c 128,-1,23
 402 527 402 527 380 512 c 128,-1,24
 358 497 358 497 329 497 c 0,25,26
 293 497 293 497 244.5 538.5 c 128,-1,27
 196 580 196 580 173 580 c 0,0,1
279 452 m 0,28,29
 345 452 345 452 398 410 c 128,-1,30
 451 368 451 368 452 301 c 2,31,-1
 452 0 l 1,32,-1
 379 0 l 1,33,-1
 379 273 l 2,34,35
 377 337 377 337 349.5 375 c 128,-1,36
 322 413 322 413 273 413 c 0,37,38
 198 413 198 413 145 327 c 1,39,-1
 145 323 l 1,40,-1
 145 0 l 1,41,-1
 72 0 l 1,42,-1
 72 329 l 2,43,44
 72 363 72 363 68.5 391 c 128,-1,45
 65 419 65 419 62.5 429.5 c 128,-1,46
 60 440 60 440 61 440 c 2,47,-1
 133 440 l 1,48,-1
 134 436 l 2,49,50
 134 431 134 431 136 419 c 128,-1,51
 138 407 138 407 140 393 c 1,52,53
 207 452 207 452 279 452 c 0,28,29
106 178 m 1,54,-1
 106 187 l 1,55,-1
 106 178 l 1,54,-1
EndSplineSet
Validated: 1
EndChar

StartChar: ograve
Encoding: 242 242 168
Width: 495
GlyphClass: 2
Flags: W
LayerCount: 2
Fore
SplineSet
234 507 m 1,0,-1
 273 536 l 1,1,-1
 184 664 l 1,2,-1
 133 630 l 1,3,-1
 234 507 l 1,0,-1
245 -10 m 0,4,5
 146 -11 146 -11 84.5 56.5 c 128,-1,6
 23 124 23 124 23 217 c 0,7,8
 23 316 23 316 84.5 384 c 128,-1,9
 146 452 146 452 245 452 c 0,10,11
 348 452 348 452 411 385.5 c 128,-1,12
 474 319 474 319 474 217 c 0,13,14
 474 123 474 123 412.5 56 c 128,-1,15
 351 -11 351 -11 245 -10 c 0,4,5
245 29 m 0,16,17
 312 28 312 28 356 85 c 128,-1,18
 400 142 400 142 400 217 c 0,19,20
 400 300 400 300 359 356.5 c 128,-1,21
 318 413 318 413 245 413 c 0,22,23
 177 413 177 413 133 355.5 c 128,-1,24
 89 298 89 298 89 217 c 0,25,26
 89 144 89 144 135.5 86 c 128,-1,27
 182 28 182 28 245 29 c 0,16,17
EndSplineSet
Validated: 41
EndChar

StartChar: oacute
Encoding: 243 243 169
Width: 495
GlyphClass: 2
Flags: W
LayerCount: 2
Fore
SplineSet
301 664 m 1,0,-1
 212 536 l 1,1,-1
 251 507 l 1,2,-1
 351 630 l 1,3,-1
 301 664 l 1,0,-1
245 -10 m 0,4,5
 147 -11 147 -11 85 57 c 128,-1,6
 23 125 23 125 23 217 c 0,7,8
 23 318 23 318 84.5 385 c 128,-1,9
 146 452 146 452 245 452 c 0,10,11
 348 452 348 452 411 384 c 128,-1,12
 474 316 474 316 474 217 c 0,13,14
 474 123 474 123 413 56 c 128,-1,15
 352 -11 352 -11 245 -10 c 0,4,5
245 29 m 0,16,17
 313 28 313 28 357 85 c 128,-1,18
 401 142 401 142 400 217 c 0,19,20
 401 300 401 300 359.5 356.5 c 128,-1,21
 318 413 318 413 245 413 c 0,22,23
 178 413 178 413 134 355.5 c 128,-1,24
 90 298 90 298 89 217 c 0,25,26
 90 144 90 144 136.5 86 c 128,-1,27
 183 28 183 28 245 29 c 0,16,17
EndSplineSet
Validated: 41
EndChar

StartChar: ocircumflex
Encoding: 244 244 170
Width: 495
GlyphClass: 2
Flags: W
LayerCount: 2
Fore
SplineSet
323 497 m 1,0,-1
 239 604 l 1,1,-1
 167 497 l 1,2,-1
 89 497 l 1,3,-1
 217 669 l 1,4,-1
 262 669 l 1,5,-1
 400 497 l 1,6,-1
 323 497 l 1,0,-1
245 452 m 0,7,8
 348 452 348 452 411 385.5 c 128,-1,9
 474 319 474 319 474 217 c 0,10,11
 474 123 474 123 412.5 56 c 128,-1,12
 351 -11 351 -11 245 -10 c 0,13,14
 146 -11 146 -11 84.5 56.5 c 128,-1,15
 23 124 23 124 23 217 c 0,16,17
 23 316 23 316 84.5 384 c 128,-1,18
 146 452 146 452 245 452 c 0,7,8
245 29 m 0,19,20
 312 28 312 28 356 85 c 128,-1,21
 400 142 400 142 400 217 c 0,22,23
 400 300 400 300 359 356.5 c 128,-1,24
 318 413 318 413 245 413 c 0,25,26
 177 413 177 413 133 355.5 c 128,-1,27
 89 298 89 298 89 217 c 0,28,29
 89 144 89 144 135.5 86 c 128,-1,30
 182 28 182 28 245 29 c 0,19,20
EndSplineSet
Validated: 33
EndChar

StartChar: otilde
Encoding: 245 245 171
Width: 495
GlyphClass: 2
Flags: W
LayerCount: 2
Fore
SplineSet
133 497 m 1,0,-1
 55 497 l 1,1,-1
 66 542 l 1,2,3
 104 649 104 649 173 652 c 0,4,5
 199 652 199 652 251.5 604.5 c 128,-1,6
 304 557 304 557 329 557 c 0,7,8
 340 557 340 557 348 566 c 128,-1,9
 356 575 356 575 359.5 587 c 128,-1,10
 363 599 363 599 365 611 c 128,-1,11
 367 623 367 623 368 632 c 2,12,-1
 368 641 l 1,13,-1
 445 641 l 1,14,-1
 444 636 l 2,15,16
 443 631 443 631 441.5 622.5 c 128,-1,17
 440 614 440 614 437 603 c 128,-1,18
 434 592 434 592 429.5 580.5 c 128,-1,19
 425 569 425 569 419 557 c 128,-1,20
 413 545 413 545 404 534 c 128,-1,21
 395 523 395 523 384.5 515 c 128,-1,22
 374 507 374 507 359.5 502 c 128,-1,23
 345 497 345 497 329 497 c 0,24,25
 292 497 292 497 243.5 538.5 c 128,-1,26
 195 580 195 580 173 580 c 0,27,28
 153 580 153 580 142.5 558.5 c 128,-1,29
 132 537 132 537 133 519 c 128,-1,30
 134 501 134 501 133 497 c 1,0,-1
245 452 m 0,31,32
 348 452 348 452 411 385.5 c 128,-1,33
 474 319 474 319 474 217 c 0,34,35
 474 123 474 123 412.5 56 c 128,-1,36
 351 -11 351 -11 245 -10 c 0,37,38
 146 -11 146 -11 84.5 56.5 c 128,-1,39
 23 124 23 124 23 217 c 0,40,41
 23 316 23 316 84.5 384 c 128,-1,42
 146 452 146 452 245 452 c 0,31,32
245 29 m 0,43,44
 312 28 312 28 356 85 c 128,-1,45
 400 142 400 142 400 217 c 0,46,47
 400 300 400 300 359 356.5 c 128,-1,48
 318 413 318 413 245 413 c 0,49,50
 177 413 177 413 133 355.5 c 128,-1,51
 89 298 89 298 89 217 c 0,52,53
 89 144 89 144 135.5 86 c 128,-1,54
 182 28 182 28 245 29 c 0,43,44
EndSplineSet
Validated: 33
EndChar

StartChar: odieresis
Encoding: 246 246 172
Width: 495
GlyphClass: 2
Flags: W
LayerCount: 2
Fore
SplineSet
167 518 m 0,0,1
 147 518 147 518 132.5 532 c 128,-1,2
 118 546 118 546 117 568 c 0,3,4
 118 589 118 589 132.5 603.5 c 128,-1,5
 147 618 147 618 167 618 c 0,6,7
 189 618 189 618 203.5 603.5 c 128,-1,8
 218 589 218 589 217 568 c 0,9,10
 218 546 218 546 204 532 c 128,-1,11
 190 518 190 518 167 518 c 0,0,1
329 518 m 0,12,13
 308 518 308 518 293.5 532 c 128,-1,14
 279 546 279 546 279 568 c 0,15,16
 279 589 279 589 293.5 603.5 c 128,-1,17
 308 618 308 618 329 618 c 0,18,19
 351 618 351 618 365 603.5 c 128,-1,20
 379 589 379 589 379 568 c 0,21,22
 379 546 379 546 365 532 c 128,-1,23
 351 518 351 518 329 518 c 0,12,13
245 -10 m 0,24,25
 146 -11 146 -11 84.5 56.5 c 128,-1,26
 23 124 23 124 23 217 c 0,27,28
 23 316 23 316 84.5 384 c 128,-1,29
 146 452 146 452 245 452 c 0,30,31
 348 452 348 452 411 385.5 c 128,-1,32
 474 319 474 319 474 217 c 0,33,34
 474 123 474 123 412.5 56 c 128,-1,35
 351 -11 351 -11 245 -10 c 0,24,25
245 29 m 0,36,37
 312 28 312 28 356 85 c 128,-1,38
 400 142 400 142 400 217 c 0,39,40
 400 300 400 300 359 356.5 c 128,-1,41
 318 413 318 413 245 413 c 0,42,43
 177 413 177 413 133 355.5 c 128,-1,44
 89 298 89 298 89 217 c 0,45,46
 89 144 89 144 135.5 86 c 128,-1,47
 182 28 182 28 245 29 c 0,36,37
EndSplineSet
Validated: 33
EndChar

StartChar: divide
Encoding: 247 247 173
Width: 534
GlyphClass: 2
Flags: W
LayerCount: 2
Fore
SplineSet
273 379 m 0,0,1
 249 380 249 380 233.5 396.5 c 128,-1,2
 218 413 218 413 217 435 c 0,3,4
 218 459 218 459 233.5 474.5 c 128,-1,5
 249 490 249 490 273 490 c 0,6,7
 296 490 296 490 313 474 c 128,-1,8
 330 458 330 458 329 435 c 0,9,10
 330 414 330 414 312.5 397.5 c 128,-1,11
 295 381 295 381 273 379 c 0,0,1
507 279 m 1,12,-1
 507 228 l 1,13,14
 485 222 485 222 384 223 c 2,15,-1
 139 223 l 2,16,17
 83 222 83 222 29 212 c 1,18,-1
 29 262 l 1,19,20
 73 273 73 273 145 273 c 2,21,-1
 384 273 l 2,22,23
 483 273 483 273 507 279 c 1,12,-1
273 -10 m 128,-1,25
 250 -10 250 -10 233.5 6 c 128,-1,26
 217 22 217 22 217 45 c 128,-1,27
 217 68 217 68 233.5 84 c 128,-1,28
 250 100 250 100 273 100 c 128,-1,29
 296 100 296 100 312.5 84 c 128,-1,30
 329 68 329 68 329 45 c 128,-1,31
 329 22 329 22 312.5 6 c 128,-1,24
 296 -10 296 -10 273 -10 c 128,-1,25
EndSplineSet
Validated: 33
EndChar

StartChar: oslash
Encoding: 248 248 174
Width: 500
GlyphClass: 2
Flags: W
LayerCount: 2
Fore
SplineSet
390 452 m 1,0,-1
 373 419 l 1,1,2
 423 389 423 389 451 335.5 c 128,-1,3
 479 282 479 282 479 217 c 0,4,5
 479 124 479 124 417 56.5 c 128,-1,6
 355 -11 355 -11 251 -10 c 0,7,8
 201 -10 201 -10 154 9 c 1,9,-1
 133 -29 l 1,10,-1
 94 -6 l 1,11,-1
 114 31 l 1,12,13
 71 63 71 63 47 112.5 c 128,-1,14
 23 162 23 162 23 217 c 0,15,16
 23 317 23 317 86 384.5 c 128,-1,17
 149 452 149 452 251 452 c 0,18,19
 293 452 293 452 332 438 c 1,20,-1
 351 474 l 1,21,-1
 390 452 l 1,0,-1
94 217 m 0,22,23
 94 139 94 139 142 83 c 1,24,-1
 311 399 l 1,25,26
 281 413 281 413 251 413 c 0,27,28
 180 413 180 413 137 356.5 c 128,-1,29
 94 300 94 300 94 217 c 0,22,23
251 29 m 0,30,31
 317 28 317 28 362 85.5 c 128,-1,32
 407 143 407 143 407 217 c 0,33,34
 407 320 407 320 348 374 c 1,35,-1
 176 51 l 1,36,37
 211 29 211 29 251 29 c 0,30,31
EndSplineSet
Validated: 33
EndChar

StartChar: ugrave
Encoding: 249 249 175
Width: 500
GlyphClass: 2
Flags: W
LayerCount: 2
Fore
SplineSet
195 664 m 1,0,-1
 284 536 l 1,1,-1
 245 507 l 1,2,-1
 145 630 l 1,3,-1
 195 664 l 1,0,-1
435 440 m 1,4,-1
 435 112 l 2,5,6
 435 77 435 77 437.5 49.5 c 128,-1,7
 440 22 440 22 442 11 c 128,-1,8
 444 0 444 0 445 0 c 1,9,-1
 374 0 l 2,10,11
 369 0 369 0 365 51 c 1,12,13
 306 -6 306 -6 234 -6 c 0,14,15
 164 -6 164 -6 109 30.5 c 128,-1,16
 54 67 54 67 55 133 c 2,17,-1
 55 440 l 1,18,-1
 128 440 l 1,19,-1
 128 167 l 2,20,21
 127 101 127 101 157 67 c 128,-1,22
 187 33 187 33 240 33 c 0,23,24
 310 33 310 33 361 119 c 1,25,-1
 361 440 l 1,26,-1
 435 440 l 1,4,-1
EndSplineSet
Validated: 33
EndChar

StartChar: uacute
Encoding: 250 250 176
Width: 500
GlyphClass: 2
Flags: W
LayerCount: 2
Fore
SplineSet
306 664 m 1,0,-1
 357 630 l 1,1,-1
 256 507 l 1,2,-1
 217 536 l 1,3,-1
 306 664 l 1,0,-1
445 0 m 1,4,-1
 374 0 l 1,5,6
 369 16 369 16 366 51 c 1,7,8
 307 -6 307 -6 234 -6 c 128,-1,9
 161 -6 161 -6 108 30 c 128,-1,10
 55 66 55 66 55 133 c 2,11,-1
 55 440 l 1,12,-1
 128 440 l 1,13,-1
 128 167 l 2,14,15
 128 101 128 101 158 67 c 128,-1,16
 188 33 188 33 240 33 c 0,17,18
 309 33 309 33 361 118 c 1,19,-1
 361 440 l 1,20,-1
 435 440 l 1,21,-1
 435 112 l 2,22,23
 435 78 435 78 437.5 50 c 128,-1,24
 440 22 440 22 442 11 c 2,25,-1
 445 0 l 1,4,-1
EndSplineSet
Validated: 1
EndChar

StartChar: ucircumflex
Encoding: 251 251 177
Width: 500
GlyphClass: 2
Flags: W
LayerCount: 2
Fore
SplineSet
323 497 m 1,0,-1
 239 604 l 1,1,-1
 167 497 l 1,2,-1
 89 497 l 1,3,-1
 217 669 l 1,4,-1
 262 669 l 1,5,-1
 400 497 l 1,6,-1
 323 497 l 1,0,-1
445 0 m 1,7,-1
 374 0 l 1,8,9
 369 16 369 16 365 51 c 1,10,11
 307 -5 307 -5 234 -6 c 0,12,13
 164 -5 164 -5 109.5 31 c 128,-1,14
 55 67 55 67 55 133 c 2,15,-1
 55 440 l 1,16,-1
 128 440 l 1,17,-1
 128 167 l 2,18,19
 128 101 128 101 158 67 c 128,-1,20
 188 33 188 33 240 33 c 0,21,22
 309 33 309 33 361 118 c 1,23,-1
 361 440 l 1,24,-1
 435 440 l 1,25,-1
 435 112 l 2,26,27
 435 78 435 78 437.5 50 c 128,-1,28
 440 22 440 22 442 11 c 2,29,-1
 445 0 l 1,7,-1
EndSplineSet
Validated: 1
EndChar

StartChar: udieresis
Encoding: 252 252 178
Width: 500
GlyphClass: 2
Flags: W
LayerCount: 2
Fore
SplineSet
162 518 m 0,0,1
 141 518 141 518 127 532 c 128,-1,2
 113 546 113 546 112 568 c 0,3,4
 113 589 113 589 127 603.5 c 128,-1,5
 141 618 141 618 162 618 c 0,6,7
 184 618 184 618 198.5 603.5 c 128,-1,8
 213 589 213 589 212 568 c 0,9,10
 213 546 213 546 198.5 532 c 128,-1,11
 184 518 184 518 162 518 c 0,0,1
323 518 m 0,12,13
 302 518 302 518 287.5 532 c 128,-1,14
 273 546 273 546 273 568 c 0,15,16
 273 589 273 589 287.5 603.5 c 128,-1,17
 302 618 302 618 323 618 c 0,18,19
 345 618 345 618 359.5 603.5 c 128,-1,20
 374 589 374 589 374 568 c 0,21,22
 374 546 374 546 359.5 532 c 128,-1,23
 345 518 345 518 323 518 c 0,12,13
435 440 m 1,24,-1
 435 112 l 2,25,26
 435 77 435 77 437.5 49.5 c 128,-1,27
 440 22 440 22 442 11 c 128,-1,28
 444 0 444 0 445 0 c 1,29,-1
 374 0 l 2,30,31
 369 0 369 0 365 51 c 1,32,33
 306 -6 306 -6 234 -6 c 0,34,35
 164 -6 164 -6 109 30.5 c 128,-1,36
 54 67 54 67 55 133 c 2,37,-1
 55 440 l 1,38,-1
 128 440 l 1,39,-1
 128 167 l 2,40,41
 127 101 127 101 157 67 c 128,-1,42
 187 33 187 33 240 33 c 0,43,44
 310 33 310 33 361 119 c 1,45,-1
 361 440 l 1,46,-1
 435 440 l 1,24,-1
EndSplineSet
Validated: 33
EndChar

StartChar: yacute
Encoding: 253 253 179
Width: 429
GlyphClass: 2
Flags: W
LayerCount: 2
Fore
SplineSet
290 664 m 1,0,-1
 340 630 l 1,1,-1
 240 507 l 1,2,-1
 201 536 l 1,3,-1
 290 664 l 1,0,-1
340 440 m 1,4,-1
 407 440 l 1,5,6
 407 425 407 425 405.5 410.5 c 128,-1,7
 404 396 404 396 398.5 376.5 c 128,-1,8
 393 357 393 357 388.5 343 c 128,-1,9
 384 329 384 329 371.5 300 c 128,-1,10
 359 271 359 271 350.5 252.5 c 128,-1,11
 342 234 342 234 322.5 190 c 128,-1,12
 303 146 303 146 290 117 c 0,13,14
 285 108 285 108 268 70 c 128,-1,15
 251 32 251 32 242 15 c 128,-1,16
 233 -2 233 -2 210.5 -32.5 c 128,-1,17
 188 -63 188 -63 166.5 -77.5 c 128,-1,18
 145 -92 145 -92 110 -104.5 c 128,-1,19
 75 -117 75 -117 33 -117 c 1,20,-1
 33 -55 l 1,21,22
 100 -55 100 -55 141 -19.5 c 128,-1,23
 182 16 182 16 213 80 c 1,24,25
 39 284 39 284 33 440 c 1,26,-1
 106 440 l 1,27,28
 110 380 110 380 139 314.5 c 128,-1,29
 168 249 168 249 193.5 213 c 128,-1,30
 219 177 219 177 246 146 c 1,31,32
 340 339 340 339 340 440 c 1,4,-1
EndSplineSet
Validated: 1
EndChar

StartChar: thorn
Encoding: 254 254 180
Width: 529
GlyphClass: 2
Flags: W
LayerCount: 2
Fore
SplineSet
267 440 m 0,0,1
 363 441 363 441 423.5 379 c 128,-1,2
 484 317 484 317 484 217 c 0,3,4
 484 114 484 114 424 52.5 c 128,-1,5
 364 -9 364 -9 267 -10 c 0,6,7
 193 -10 193 -10 139 41 c 1,8,-1
 139 -206 l 1,9,-1
 68 -206 l 1,10,-1
 68 217 l 1,11,-1
 68 295 l 1,12,-1
 68 301 l 1,13,-1
 68 585 l 2,14,15
 68 643 68 643 55 686 c 1,16,-1
 123 686 l 1,17,18
 132 670 132 670 134.5 654 c 128,-1,19
 137 638 137 638 139 580 c 2,20,-1
 139 440 l 1,21,22
 208 442 208 442 267 440 c 0,0,1
267 29 m 0,23,24
 332 30 332 30 372.5 80 c 128,-1,25
 413 130 413 130 413 217 c 0,26,27
 413 392 413 392 262 400 c 0,28,29
 221 402 221 402 180 397 c 128,-1,30
 139 392 139 392 139 374 c 2,31,-1
 139 267 l 1,32,-1
 139 217 l 1,33,-1
 139 139 l 2,34,35
 139 97 139 97 182.5 63.5 c 128,-1,36
 226 30 226 30 267 29 c 0,23,24
EndSplineSet
Validated: 33
EndChar

StartChar: Ydieresis
Encoding: 255 255 181
AltUni2: 000178.ffffffff.0
Width: 529
GlyphClass: 2
Flags: W
LayerCount: 2
Fore
SplineSet
189 786 m 0,0,1
 167 786 167 786 152.5 800.5 c 128,-1,2
 138 815 138 815 139 836 c 0,3,4
 138 858 138 858 152.5 872.5 c 128,-1,5
 167 887 167 887 189 887 c 0,6,7
 210 887 210 887 224.5 872.5 c 128,-1,8
 239 858 239 858 240 836 c 0,9,10
 239 815 239 815 224.5 800.5 c 128,-1,11
 210 786 210 786 189 786 c 0,0,1
351 786 m 0,12,13
 328 786 328 786 314 800.5 c 128,-1,14
 300 815 300 815 301 836 c 0,15,16
 300 858 300 858 314 872.5 c 128,-1,17
 328 887 328 887 351 887 c 0,18,19
 371 887 371 887 385 872.5 c 128,-1,20
 399 858 399 858 400 836 c 0,21,22
 399 815 399 815 385 800.5 c 128,-1,23
 371 786 371 786 351 786 c 0,12,13
419 686 m 1,24,-1
 490 686 l 1,25,26
 487 674 487 674 452 606.5 c 128,-1,27
 417 539 417 539 371 453.5 c 128,-1,28
 325 368 325 368 317 353 c 1,29,-1
 312 0 l 1,30,-1
 228 0 l 1,31,-1
 234 350 l 1,32,33
 184 425 184 425 111 549.5 c 128,-1,34
 38 674 38 674 39 686 c 1,35,-1
 133 686 l 1,36,37
 138 659 138 659 287 425 c 1,38,39
 418 665 418 665 419 686 c 1,24,-1
EndSplineSet
Validated: 33
EndChar

StartChar: Amacron
Encoding: 256 256 182
Width: 607
GlyphClass: 2
Flags: W
LayerCount: 2
Fore
SplineSet
139 836 m 1,0,-1
 413 836 l 1,1,-1
 413 786 l 1,2,-1
 139 786 l 1,3,-1
 139 836 l 1,0,-1
574 0 m 1,4,-1
 490 0 l 1,5,-1
 396 251 l 1,6,-1
 171 251 l 1,7,-1
 133 151 l 2,8,9
 94 49 94 49 100 0 c 1,10,-1
 33 0 l 1,11,12
 33 60 33 60 61 133 c 2,13,-1
 223 563 l 2,14,15
 239 604 239 604 253 644.5 c 128,-1,16
 267 685 267 685 267 686 c 1,17,-1
 306 686 l 1,18,-1
 574 0 l 1,4,-1
279 546 m 2,19,-1
 182 284 l 1,20,-1
 383 284 l 1,21,-1
 281 553 l 1,22,23
 281 550 281 550 279 546 c 2,19,-1
EndSplineSet
Validated: 33
EndChar

StartChar: amacron
Encoding: 257 257 183
Width: 429
GlyphClass: 2
Flags: W
LayerCount: 2
Fore
SplineSet
78 596 m 1,0,-1
 351 596 l 1,1,-1
 351 546 l 1,2,-1
 78 546 l 1,3,-1
 78 596 l 1,0,-1
396 0 m 1,4,-1
 323 0 l 1,5,6
 315 30 315 30 314 60 c 1,7,8
 284 34 284 34 235.5 12 c 128,-1,9
 187 -10 187 -10 151 -10 c 0,10,11
 138 -10 138 -10 125.5 -9 c 128,-1,12
 113 -8 113 -8 93 -2 c 128,-1,13
 73 4 73 4 59 13.5 c 128,-1,14
 45 23 45 23 34.5 42.5 c 128,-1,15
 24 62 24 62 23 89 c 0,16,17
 25 166 25 166 112 217 c 0,18,19
 154 242 154 242 224 267.5 c 128,-1,20
 294 293 294 293 308 307 c 1,21,22
 294 411 294 411 212 413 c 0,23,24
 192 413 192 413 172 403 c 128,-1,25
 152 393 152 393 137.5 379 c 128,-1,26
 123 365 123 365 112 351 c 128,-1,27
 101 337 101 337 95 327 c 2,28,-1
 89 317 l 1,29,-1
 45 361 l 1,30,-1
 50 366 l 2,31,32
 55 372 55 372 63.5 379.5 c 128,-1,33
 72 387 72 387 83.5 397 c 128,-1,34
 95 407 95 407 109.5 416.5 c 128,-1,35
 124 426 124 426 140 434 c 128,-1,36
 156 442 156 442 175 447 c 128,-1,37
 194 452 194 452 212 452 c 0,38,39
 382 452 382 452 384 254 c 2,40,-1
 384 251 l 1,41,-1
 384 112 l 2,42,43
 385 56 385 56 396 0 c 1,4,-1
317 329 m 1,44,-1
 317 328 l 1,45,-1
 317 329 l 1,44,-1
195 45 m 0,46,47
 250 57 250 57 312 99 c 1,48,-1
 312 117 l 1,49,-1
 312 251 l 1,50,-1
 312 267 l 1,51,52
 302 258 302 258 263.5 241.5 c 128,-1,53
 225 225 225 225 189.5 209.5 c 128,-1,54
 154 194 154 194 124 163 c 128,-1,55
 94 132 94 132 94 94 c 0,56,57
 95 64 95 64 123.5 49 c 128,-1,58
 152 34 152 34 195 45 c 0,46,47
335 123 m 1,59,-1
 335 122 l 1,60,-1
 335 123 l 1,59,-1
EndSplineSet
Validated: 33
EndChar

StartChar: Abreve
Encoding: 258 258 184
Width: 607
GlyphClass: 2
Flags: W
LayerCount: 2
Fore
SplineSet
284 730 m 0,0,1
 238 731 238 731 204.5 753.5 c 128,-1,2
 171 776 171 776 167 813 c 1,3,-1
 234 813 l 1,4,-1
 234 810 l 2,5,6
 235 808 235 808 236.5 803.5 c 128,-1,7
 238 799 238 799 240 794 c 128,-1,8
 242 789 242 789 246 784 c 128,-1,9
 250 779 250 779 255 774.5 c 128,-1,10
 260 770 260 770 267.5 767 c 128,-1,11
 275 764 275 764 284 764 c 0,12,13
 304 764 304 764 317 776.5 c 128,-1,14
 330 789 330 789 333 800 c 128,-1,15
 336 811 336 811 335 813 c 1,16,-1
 400 813 l 1,17,18
 401 776 401 776 367 753.5 c 128,-1,19
 333 731 333 731 284 730 c 0,0,1
574 0 m 1,20,-1
 490 0 l 1,21,-1
 396 251 l 1,22,-1
 171 251 l 1,23,-1
 133 151 l 2,24,25
 100 62 100 62 100 0 c 1,26,-1
 33 0 l 1,27,28
 33 60 33 60 61 133 c 2,29,-1
 223 563 l 2,30,31
 256 649 256 649 267 686 c 1,32,-1
 306 686 l 1,33,-1
 574 0 l 1,20,-1
279 546 m 2,34,-1
 182 284 l 1,35,-1
 383 284 l 1,36,-1
 281 553 l 1,37,38
 281 550 281 550 279 546 c 2,34,-1
EndSplineSet
Validated: 33
EndChar

StartChar: abreve
Encoding: 259 259 185
Width: 429
GlyphClass: 2
Flags: W
LayerCount: 2
Fore
SplineSet
228 490 m 0,0,1
 181 491 181 491 147.5 514 c 128,-1,2
 114 537 114 537 112 574 c 1,3,-1
 178 574 l 1,4,5
 176 574 176 574 179.5 561.5 c 128,-1,6
 183 549 183 549 195.5 536 c 128,-1,7
 208 523 208 523 228 523 c 0,8,9
 241 523 241 523 250.5 528.5 c 128,-1,10
 260 534 260 534 265 541.5 c 128,-1,11
 270 549 270 549 273.5 556.5 c 128,-1,12
 277 564 277 564 278 569 c 2,13,-1
 279 574 l 1,14,-1
 345 574 l 1,15,16
 345 537 345 537 310.5 514 c 128,-1,17
 276 491 276 491 228 490 c 0,0,1
396 0 m 1,18,-1
 323 0 l 1,19,20
 317 24 317 24 314 60 c 1,21,22
 286 34 286 34 237 12 c 128,-1,23
 188 -10 188 -10 151 -10 c 0,24,25
 134 -10 134 -10 117.5 -7.5 c 128,-1,26
 101 -5 101 -5 77.5 3.5 c 128,-1,27
 54 12 54 12 39 34 c 128,-1,28
 24 56 24 56 23 89 c 0,29,30
 26 164 26 164 112 217 c 0,31,32
 154 242 154 242 224.5 267.5 c 128,-1,33
 295 293 295 293 309 307 c 1,34,35
 302 362 302 362 277.5 387 c 128,-1,36
 253 412 253 412 212 413 c 0,37,38
 192 413 192 413 172 403 c 128,-1,39
 152 393 152 393 138 379 c 128,-1,40
 124 365 124 365 113 351 c 128,-1,41
 102 337 102 337 96 327 c 2,42,-1
 89 317 l 1,43,-1
 45 361 l 1,44,-1
 54 370 l 2,45,46
 64 380 64 380 80 393.5 c 128,-1,47
 96 407 96 407 116 420.5 c 128,-1,48
 136 434 136 434 161.5 443 c 128,-1,49
 187 452 187 452 212 452 c 0,50,51
 382 452 382 452 384 258 c 2,52,-1
 384 251 l 1,53,-1
 384 112 l 2,54,55
 385 79 385 79 396 0 c 1,18,-1
317 329 m 1,56,-1
 317 327 l 1,57,-1
 317 329 l 1,56,-1
195 45 m 0,58,59
 255 58 255 58 313 99 c 0,60,61
 313 102 313 102 312.5 108 c 128,-1,62
 312 114 312 114 312 117 c 2,63,-1
 312 251 l 1,64,-1
 312 267 l 1,65,66
 302 258 302 258 264 241.5 c 128,-1,67
 226 225 226 225 190 209.5 c 128,-1,68
 154 194 154 194 124.5 163 c 128,-1,69
 95 132 95 132 94 94 c 0,70,71
 96 64 96 64 124.5 49 c 128,-1,72
 153 34 153 34 195 45 c 0,58,59
335 123 m 1,73,-1
 335 122 l 1,74,-1
 335 123 l 1,73,-1
EndSplineSet
Validated: 41
EndChar

StartChar: Aogonek
Encoding: 260 260 186
Width: 673
GlyphClass: 2
Flags: W
LayerCount: 2
Fore
SplineSet
591 -117 m 1,0,-1
 641 -139 l 2,1,2
 642 -140 642 -140 639 -146.5 c 128,-1,3
 636 -153 636 -153 628.5 -162.5 c 128,-1,4
 621 -172 621 -172 610 -180.5 c 128,-1,5
 599 -189 599 -189 579.5 -195.5 c 128,-1,6
 560 -202 560 -202 536 -201 c 0,7,8
 496 -203 496 -203 466 -176.5 c 128,-1,9
 436 -150 436 -150 435 -106 c 0,10,11
 435 -91 435 -91 439.5 -76 c 128,-1,12
 444 -61 444 -61 452 -48 c 128,-1,13
 460 -35 460 -35 466 -27.5 c 128,-1,14
 472 -20 472 -20 481 -10 c 2,15,-1
 490 0 l 1,16,-1
 396 251 l 1,17,-1
 171 251 l 1,18,-1
 133 151 l 2,19,20
 94 49 94 49 100 0 c 1,21,-1
 33 0 l 1,22,23
 33 60 33 60 61 133 c 2,24,-1
 223 563 l 2,25,26
 239 604 239 604 253 644.5 c 128,-1,27
 267 685 267 685 267 686 c 1,28,-1
 306 686 l 1,29,-1
 574 0 l 1,30,31
 538 -18 538 -18 517.5 -47.5 c 128,-1,32
 497 -77 497 -77 497 -106 c 0,33,34
 497 -128 497 -128 509.5 -145 c 128,-1,35
 522 -162 522 -162 541 -162 c 0,36,37
 558 -162 558 -162 570.5 -151 c 128,-1,38
 583 -140 583 -140 587.5 -129.5 c 128,-1,39
 592 -119 592 -119 591 -117 c 1,0,-1
279 546 m 2,40,-1
 182 284 l 1,41,-1
 383 284 l 1,42,-1
 281 553 l 1,43,44
 281 550 281 550 279 546 c 2,40,-1
EndSplineSet
Validated: 33
EndChar

StartChar: aogonek
Encoding: 261 261 187
Width: 500
GlyphClass: 2
Flags: W
LayerCount: 2
Fore
SplineSet
419 -117 m 1,0,-1
 468 -139 l 1,1,-1
 464 -146 l 2,2,3
 461 -152 461 -152 453 -161 c 128,-1,4
 445 -170 445 -170 433.5 -179 c 128,-1,5
 422 -188 422 -188 403 -194.5 c 128,-1,6
 384 -201 384 -201 361 -201 c 0,7,8
 320 -201 320 -201 290.5 -175 c 128,-1,9
 261 -149 261 -149 262 -106 c 0,10,11
 260 -52 260 -52 323 0 c 1,12,13
 315 30 315 30 314 60 c 1,14,15
 284 34 284 34 235.5 12 c 128,-1,16
 187 -10 187 -10 151 -10 c 0,17,18
 138 -10 138 -10 125.5 -9 c 128,-1,19
 113 -8 113 -8 93 -2 c 128,-1,20
 73 4 73 4 59 13.5 c 128,-1,21
 45 23 45 23 34.5 42.5 c 128,-1,22
 24 62 24 62 23 89 c 0,23,24
 25 166 25 166 112 217 c 0,25,26
 154 242 154 242 224 267.5 c 128,-1,27
 294 293 294 293 308 307 c 1,28,29
 294 411 294 411 212 413 c 0,30,31
 192 413 192 413 172 403 c 128,-1,32
 152 393 152 393 137.5 379 c 128,-1,33
 123 365 123 365 112 351 c 128,-1,34
 101 337 101 337 95 327 c 2,35,-1
 89 317 l 1,36,-1
 45 361 l 1,37,-1
 50 366 l 2,38,39
 55 372 55 372 63.5 379.5 c 128,-1,40
 72 387 72 387 83.5 397 c 128,-1,41
 95 407 95 407 109.5 416.5 c 128,-1,42
 124 426 124 426 140 434 c 128,-1,43
 156 442 156 442 175 447 c 128,-1,44
 194 452 194 452 212 452 c 0,45,46
 382 452 382 452 384 254 c 2,47,-1
 384 251 l 1,48,-1
 384 112 l 2,49,50
 385 56 385 56 396 0 c 1,51,52
 388 -8 388 -8 375.5 -20 c 128,-1,53
 363 -32 363 -32 343 -60.5 c 128,-1,54
 323 -89 323 -89 323 -106 c 0,55,56
 322 -128 322 -128 334.5 -145 c 128,-1,57
 347 -162 347 -162 368 -162 c 0,58,59
 378 -162 378 -162 387 -157.5 c 128,-1,60
 396 -153 396 -153 401.5 -146.5 c 128,-1,61
 407 -140 407 -140 411 -133 c 128,-1,62
 415 -126 415 -126 417 -122 c 2,63,-1
 419 -117 l 1,0,-1
317 329 m 1,64,-1
 317 328 l 1,65,-1
 317 329 l 1,64,-1
195 45 m 0,66,67
 250 57 250 57 312 99 c 1,68,-1
 312 117 l 1,69,-1
 312 251 l 1,70,-1
 312 267 l 1,71,72
 302 258 302 258 263.5 241.5 c 128,-1,73
 225 225 225 225 189.5 209.5 c 128,-1,74
 154 194 154 194 124 163 c 128,-1,75
 94 132 94 132 94 94 c 0,76,77
 95 64 95 64 123.5 49 c 128,-1,78
 152 34 152 34 195 45 c 0,66,67
335 123 m 1,79,-1
 335 122 l 1,80,-1
 335 123 l 1,79,-1
EndSplineSet
Validated: 33
EndChar

StartChar: Cacute
Encoding: 262 262 188
Width: 629
GlyphClass: 2
Flags: W
LayerCount: 2
Fore
SplineSet
407 908 m 1,0,-1
 317 774 l 1,1,-1
 357 752 l 1,2,-1
 458 869 l 1,3,-1
 407 908 l 1,0,-1
345 -10 m 0,4,5
 209 -10 209 -10 120.5 86.5 c 128,-1,6
 32 183 32 183 33 340 c 0,7,8
 32 494 32 494 121 595 c 128,-1,9
 210 696 210 696 345 696 c 0,10,11
 434 696 434 696 490 654 c 128,-1,12
 546 612 546 612 596 523 c 1,13,-1
 518 474 l 1,14,15
 485 567 485 567 443.5 612 c 128,-1,16
 402 657 402 657 340 657 c 0,17,18
 251 657 251 657 184 565.5 c 128,-1,19
 117 474 117 474 117 340 c 0,20,21
 117 210 117 210 187 118.5 c 128,-1,22
 257 27 257 27 345 29 c 0,23,24
 393 30 393 30 432 58.5 c 128,-1,25
 471 87 471 87 490 133 c 1,26,-1
 591 133 l 1,27,28
 553 66 553 66 487.5 28 c 128,-1,29
 422 -10 422 -10 345 -10 c 0,4,5
EndSplineSet
Validated: 41
EndChar

StartChar: cacute
Encoding: 263 263 189
Width: 461
GlyphClass: 2
Flags: W
LayerCount: 2
Fore
SplineSet
290 664 m 1,0,-1
 201 536 l 1,1,-1
 240 507 l 1,2,-1
 340 630 l 1,3,-1
 290 664 l 1,0,-1
429 329 m 2,4,-1
 361 312 l 1,5,6
 361 315 361 315 359.5 323.5 c 128,-1,7
 358 332 358 332 350.5 348 c 128,-1,8
 343 364 343 364 331.5 378 c 128,-1,9
 320 392 320 392 297.5 402.5 c 128,-1,10
 275 413 275 413 245 413 c 0,11,12
 185 413 185 413 148.5 361.5 c 128,-1,13
 112 310 112 310 112 223 c 0,14,15
 112 133 112 133 151 81 c 128,-1,16
 190 29 190 29 251 29 c 0,17,18
 284 29 284 29 308.5 42.5 c 128,-1,19
 333 56 333 56 342 69 c 128,-1,20
 351 82 351 82 351 89 c 1,21,-1
 419 89 l 1,22,23
 418 58 418 58 372 24 c 128,-1,24
 326 -10 326 -10 251 -10 c 0,25,26
 154 -10 154 -10 93.5 55 c 128,-1,27
 33 120 33 120 33 223 c 0,28,29
 33 323 33 323 94 387.5 c 128,-1,30
 155 452 155 452 251 452 c 0,31,32
 290 452 290 452 322.5 439 c 128,-1,33
 355 426 355 426 374 409 c 128,-1,34
 393 392 393 392 406 373 c 128,-1,35
 419 354 419 354 424 342.5 c 128,-1,36
 429 331 429 331 429 329 c 2,4,-1
EndSplineSet
Validated: 9
EndChar

StartChar: Ccaron
Encoding: 268 268 190
Width: 629
GlyphClass: 2
Flags: W
LayerCount: 2
Fore
SplineSet
497 903 m 1,0,-1
 357 735 l 1,1,-1
 312 735 l 1,2,-1
 184 903 l 1,3,-1
 262 903 l 1,4,-1
 337 797 l 1,5,-1
 419 903 l 1,6,-1
 497 903 l 1,0,-1
345 29 m 0,7,8
 395 29 395 29 433.5 57.5 c 128,-1,9
 472 86 472 86 490 133 c 1,10,-1
 591 133 l 1,11,12
 552 66 552 66 488 28 c 128,-1,13
 424 -10 424 -10 345 -10 c 0,14,15
 209 -10 209 -10 121 86.5 c 128,-1,16
 33 183 33 183 33 340 c 0,17,18
 33 494 33 494 122 595 c 128,-1,19
 211 696 211 696 345 696 c 0,20,21
 435 696 435 696 490.5 653.5 c 128,-1,22
 546 611 546 611 596 523 c 1,23,-1
 518 474 l 1,24,25
 484 568 484 568 442.5 612.5 c 128,-1,26
 401 657 401 657 340 657 c 0,27,28
 250 657 250 657 183.5 565.5 c 128,-1,29
 117 474 117 474 117 340 c 0,30,31
 117 211 117 211 187.5 120 c 128,-1,32
 258 29 258 29 345 29 c 0,7,8
EndSplineSet
Validated: 1
EndChar

StartChar: ccaron
Encoding: 269 269 191
Width: 461
GlyphClass: 2
Flags: W
LayerCount: 2
Fore
SplineSet
407 669 m 1,0,-1
 267 497 l 1,1,-1
 223 497 l 1,2,-1
 94 669 l 1,3,-1
 173 669 l 1,4,-1
 245 561 l 1,5,-1
 329 669 l 1,6,-1
 407 669 l 1,0,-1
251 29 m 0,7,8
 284 29 284 29 308.5 42.5 c 128,-1,9
 333 56 333 56 342 69 c 128,-1,10
 351 82 351 82 351 89 c 1,11,-1
 419 89 l 1,12,13
 419 58 419 58 373 24 c 128,-1,14
 327 -10 327 -10 251 -10 c 0,15,16
 155 -10 155 -10 94 54.5 c 128,-1,17
 33 119 33 119 33 223 c 0,18,19
 33 323 33 323 94 387.5 c 128,-1,20
 155 452 155 452 251 452 c 0,21,22
 290 452 290 452 322.5 439.5 c 128,-1,23
 355 427 355 427 374 408.5 c 128,-1,24
 393 390 393 390 406 372 c 128,-1,25
 419 354 419 354 424 342 c 2,26,-1
 429 329 l 1,27,-1
 361 312 l 1,28,29
 361 316 361 316 359.5 323 c 128,-1,30
 358 330 358 330 350.5 347.5 c 128,-1,31
 343 365 343 365 332 378 c 128,-1,32
 321 391 321 391 298 402 c 128,-1,33
 275 413 275 413 245 413 c 0,34,35
 186 413 186 413 149 361.5 c 128,-1,36
 112 310 112 310 112 223 c 0,37,38
 112 133 112 133 151.5 81 c 128,-1,39
 191 29 191 29 251 29 c 0,7,8
EndSplineSet
Validated: 1
EndChar

StartChar: Dcaron
Encoding: 270 270 192
Width: 613
GlyphClass: 2
Flags: W
LayerCount: 2
Fore
SplineSet
400 903 m 1,0,-1
 262 735 l 1,1,-1
 217 735 l 1,2,-1
 89 903 l 1,3,-1
 167 903 l 1,4,-1
 241 797 l 1,5,-1
 323 903 l 1,6,-1
 400 903 l 1,0,-1
256 686 m 0,7,8
 330 686 330 686 392.5 654 c 128,-1,9
 455 622 455 622 495.5 570 c 128,-1,10
 536 518 536 518 558 455 c 128,-1,11
 580 392 580 392 580 329 c 0,12,13
 580 248 580 248 549.5 182.5 c 128,-1,14
 519 117 519 117 471.5 78.5 c 128,-1,15
 424 40 424 40 370 20 c 128,-1,16
 316 0 316 0 262 0 c 2,17,-1
 55 0 l 1,18,-1
 55 574 l 2,19,20
 55 658 55 658 45 686 c 1,21,-1
 128 686 l 2,22,23
 143 686 143 686 161 686 c 128,-1,24
 179 686 179 686 207 686 c 128,-1,25
 235 686 235 686 256 686 c 0,7,8
234 39 m 0,26,27
 275 39 275 39 317.5 56 c 128,-1,28
 360 73 360 73 399.5 106 c 128,-1,29
 439 139 439 139 464.5 197.5 c 128,-1,30
 490 256 490 256 490 329 c 0,31,32
 490 409 490 409 467 477.5 c 128,-1,33
 444 546 444 546 389.5 593.5 c 128,-1,34
 335 641 335 641 256 641 c 2,35,-1
 139 641 l 1,36,-1
 139 601 l 1,37,-1
 139 563 l 1,38,-1
 139 68 l 2,39,40
 142 53 142 53 171 45.5 c 128,-1,41
 200 38 200 38 234 39 c 0,26,27
EndSplineSet
Validated: 33
EndChar

StartChar: dcaron
Encoding: 271 271 193
Width: 629
GlyphClass: 2
Flags: W
LayerCount: 2
Fore
SplineSet
585 903 m 1,0,-1
 445 735 l 1,1,-1
 400 735 l 1,2,-1
 273 903 l 1,3,-1
 351 903 l 1,4,-1
 423 795 l 1,5,-1
 507 903 l 1,6,-1
 585 903 l 1,0,-1
462 125 m 1,7,-1
 462 100 l 2,8,9
 462 48 462 48 474 0 c 1,10,-1
 400 0 l 2,11,12
 335 2 335 2 262 0 c 0,13,14
 168 1 168 1 107.5 62.5 c 128,-1,15
 47 124 47 124 45 223 c 0,16,17
 47 327 47 327 107.5 389.5 c 128,-1,18
 168 452 168 452 262 452 c 0,19,20
 334 452 334 452 390 401 c 1,21,-1
 390 680 l 1,22,-1
 462 680 l 1,23,-1
 462 223 l 1,24,-1
 462 125 l 1,7,-1
390 68 m 0,25,26
 390 73 390 73 391 82 c 0,27,28
 390 89 390 89 390 106 c 2,29,-1
 390 308 l 2,30,31
 388 349 388 349 345.5 381 c 128,-1,32
 303 413 303 413 262 413 c 0,33,34
 199 413 199 413 159 362 c 128,-1,35
 119 311 119 311 117 223 c 0,36,37
 119 131 119 131 159.5 85.5 c 128,-1,38
 200 40 200 40 267 39 c 0,39,40
 390 39 390 39 390 68 c 0,25,26
EndSplineSet
Validated: 33
EndChar

StartChar: Dcroat
Encoding: 272 272 194
Width: 668
GlyphClass: 2
Flags: W
LayerCount: 2
Fore
SplineSet
312 686 m 2,0,1
 387 686 387 686 449.5 654 c 128,-1,2
 512 622 512 622 552 570.5 c 128,-1,3
 592 519 592 519 613.5 456 c 128,-1,4
 635 393 635 393 635 329 c 0,5,6
 635 247 635 247 605.5 182 c 128,-1,7
 576 117 576 117 528 78.5 c 128,-1,8
 480 40 480 40 425.5 20 c 128,-1,9
 371 0 371 0 317 0 c 2,10,-1
 112 0 l 1,11,-1
 112 351 l 1,12,-1
 33 351 l 1,13,-1
 33 400 l 1,14,-1
 112 400 l 1,15,-1
 112 574 l 2,16,17
 113 662 113 662 100 686 c 1,18,-1
 184 686 l 1,19,-1
 312 686 l 2,0,1
290 45 m 0,20,21
 330 45 330 45 372.5 61 c 128,-1,22
 415 77 415 77 455 109 c 128,-1,23
 495 141 495 141 520.5 198.5 c 128,-1,24
 546 256 546 256 546 329 c 0,25,26
 546 376 546 376 538 419 c 128,-1,27
 530 462 530 462 512 502 c 128,-1,28
 494 542 494 542 467.5 571 c 128,-1,29
 441 600 441 600 401 617.5 c 128,-1,30
 361 635 361 635 312 635 c 2,31,-1
 195 635 l 1,32,-1
 195 564 l 1,33,-1
 195 563 l 1,34,-1
 195 400 l 1,35,-1
 335 400 l 1,36,-1
 335 351 l 1,37,-1
 195 351 l 1,38,-1
 195 72 l 1,39,40
 202 45 202 45 290 45 c 0,20,21
EndSplineSet
Validated: 33
EndChar

StartChar: dcroat
Encoding: 273 273 195
Width: 623
GlyphClass: 2
Flags: W
LayerCount: 2
Fore
SplineSet
568 536 m 1,0,-1
 462 536 l 1,1,-1
 462 223 l 1,2,-1
 462 125 l 1,3,-1
 462 100 l 2,4,5
 462 48 462 48 474 0 c 1,6,-1
 400 0 l 2,7,8
 335 2 335 2 262 0 c 0,9,10
 168 1 168 1 107.5 62.5 c 128,-1,11
 47 124 47 124 45 223 c 0,12,13
 47 327 47 327 107.5 389.5 c 128,-1,14
 168 452 168 452 262 452 c 0,15,16
 334 452 334 452 390 401 c 1,17,-1
 390 536 l 1,18,-1
 267 536 l 1,19,-1
 267 585 l 1,20,-1
 390 585 l 1,21,-1
 390 680 l 1,22,-1
 462 680 l 1,23,-1
 462 585 l 1,24,-1
 568 585 l 1,25,-1
 568 536 l 1,0,-1
390 68 m 0,26,27
 390 73 390 73 391 82 c 0,28,29
 390 89 390 89 390 106 c 2,30,-1
 390 308 l 2,31,32
 388 349 388 349 345.5 381 c 128,-1,33
 303 413 303 413 262 413 c 0,34,35
 199 413 199 413 159 362 c 128,-1,36
 119 311 119 311 117 223 c 0,37,38
 119 131 119 131 159.5 85.5 c 128,-1,39
 200 40 200 40 267 39 c 0,40,41
 390 39 390 39 390 68 c 0,26,27
EndSplineSet
Validated: 33
EndChar

StartChar: Emacron
Encoding: 274 274 196
Width: 490
GlyphClass: 2
Flags: W
LayerCount: 2
Fore
SplineSet
117 836 m 1,0,-1
 390 836 l 1,1,-1
 390 786 l 1,2,-1
 117 786 l 1,3,-1
 117 836 l 1,0,-1
458 674 m 1,4,-1
 458 625 l 1,5,6
 398 635 398 635 351 635 c 2,7,-1
 135 635 l 1,8,-1
 139 568 l 1,9,-1
 139 396 l 1,10,-1
 384 396 l 1,11,-1
 384 351 l 1,12,-1
 139 351 l 1,13,-1
 139 50 l 1,14,-1
 458 50 l 1,15,-1
 458 0 l 1,16,-1
 61 0 l 1,17,-1
 61 574 l 2,18,19
 60 605 60 605 57 630.5 c 128,-1,20
 54 656 54 656 52 669 c 128,-1,21
 50 682 50 682 50 686 c 1,22,-1
 128 686 l 1,23,-1
 195 686 l 1,24,-1
 340 686 l 2,25,26
 386 686 386 686 458 674 c 1,4,-1
EndSplineSet
Validated: 1
EndChar

StartChar: emacron
Encoding: 275 275 197
Width: 467
GlyphClass: 2
Flags: W
LayerCount: 2
Fore
SplineSet
94 596 m 1,0,-1
 368 596 l 1,1,-1
 368 546 l 1,2,-1
 94 546 l 1,3,-1
 94 596 l 1,0,-1
435 228 m 0,4,5
 435 227 435 227 434 227 c 1,6,-1
 435 223 l 2,7,8
 434 222 434 222 434 223 c 1,9,-1
 106 223 l 1,10,11
 105 139 105 139 145 84.5 c 128,-1,12
 185 30 185 30 240 29 c 0,13,14
 317 30 317 30 351 78 c 1,15,-1
 419 78 l 1,16,17
 361 -10 361 -10 240 -10 c 0,18,19
 149 -10 149 -10 90.5 57.5 c 128,-1,20
 32 125 32 125 33 228 c 0,21,22
 32 327 32 327 90 389.5 c 128,-1,23
 148 452 148 452 240 452 c 0,24,25
 327 452 327 452 380 390.5 c 128,-1,26
 433 329 433 329 435 228 c 0,4,5
240 413 m 0,27,28
 190 412 190 412 152.5 371 c 128,-1,29
 115 330 115 330 108 262 c 1,30,-1
 359 262 l 1,31,32
 352 333 352 333 320.5 372.5 c 128,-1,33
 289 412 289 412 240 413 c 0,27,28
EndSplineSet
Validated: 33
EndChar

StartChar: Edotaccent
Encoding: 278 278 198
Width: 490
GlyphClass: 2
Flags: W
LayerCount: 2
Fore
SplineSet
245 730 m 0,0,1
 224 730 224 730 209.5 744.5 c 128,-1,2
 195 759 195 759 195 780 c 0,3,4
 195 802 195 802 209.5 815.5 c 128,-1,5
 224 829 224 829 245 829 c 0,6,7
 267 829 267 829 281.5 815.5 c 128,-1,8
 296 802 296 802 296 780 c 128,-1,9
 296 758 296 758 281.5 744 c 128,-1,10
 267 730 267 730 245 730 c 0,0,1
458 674 m 1,11,-1
 458 625 l 1,12,13
 457 625 457 625 441.5 627.5 c 128,-1,14
 426 630 426 630 400.5 632.5 c 128,-1,15
 375 635 375 635 351 635 c 2,16,-1
 134 635 l 1,17,18
 137 586 137 586 139 568 c 2,19,-1
 139 396 l 1,20,-1
 384 396 l 1,21,-1
 384 351 l 1,22,-1
 139 351 l 1,23,-1
 139 50 l 1,24,-1
 458 50 l 1,25,-1
 458 0 l 1,26,-1
 61 0 l 1,27,-1
 61 574 l 2,28,29
 61 606 61 606 58 631 c 128,-1,30
 55 656 55 656 52.5 669.5 c 128,-1,31
 50 683 50 683 50 686 c 1,32,-1
 128 686 l 1,33,-1
 195 686 l 1,34,-1
 340 686 l 2,35,36
 367 686 367 686 394.5 683 c 128,-1,37
 422 680 422 680 439.5 677 c 128,-1,38
 457 674 457 674 458 674 c 1,11,-1
EndSplineSet
Validated: 1
EndChar

StartChar: edotaccent
Encoding: 279 279 199
Width: 467
GlyphClass: 2
Flags: W
LayerCount: 2
Fore
SplineSet
240 507 m 0,0,1
 218 507 218 507 203.5 521.5 c 128,-1,2
 189 536 189 536 189 557 c 0,3,4
 189 579 189 579 203.5 593 c 128,-1,5
 218 607 218 607 240 607 c 0,6,7
 261 607 261 607 275.5 593 c 128,-1,8
 290 579 290 579 290 557 c 0,9,10
 290 536 290 536 275.5 521.5 c 128,-1,11
 261 507 261 507 240 507 c 0,0,1
435 228 m 0,12,13
 435 227 435 227 434 227 c 1,14,-1
 435 223 l 2,15,16
 434 222 434 222 434 223 c 1,17,-1
 106 223 l 1,18,19
 105 139 105 139 145 84.5 c 128,-1,20
 185 30 185 30 240 29 c 0,21,22
 317 30 317 30 351 78 c 1,23,-1
 419 78 l 1,24,25
 361 -10 361 -10 240 -10 c 0,26,27
 149 -10 149 -10 90.5 57.5 c 128,-1,28
 32 125 32 125 33 228 c 0,29,30
 32 327 32 327 90 389.5 c 128,-1,31
 148 452 148 452 240 452 c 0,32,33
 327 452 327 452 380 390.5 c 128,-1,34
 433 329 433 329 435 228 c 0,12,13
240 413 m 0,35,36
 190 412 190 412 152.5 371 c 128,-1,37
 115 330 115 330 108 262 c 1,38,-1
 359 262 l 1,39,40
 352 333 352 333 320.5 372.5 c 128,-1,41
 289 412 289 412 240 413 c 0,35,36
EndSplineSet
Validated: 33
EndChar

StartChar: Eogonek
Encoding: 280 280 200
Width: 556
GlyphClass: 2
Flags: W
LayerCount: 2
Fore
SplineSet
474 -117 m 2,0,-1
 523 -139 l 1,1,2
 522 -139 522 -139 518.5 -144.5 c 128,-1,3
 515 -150 515 -150 507.5 -159.5 c 128,-1,4
 500 -169 500 -169 489 -178 c 128,-1,5
 478 -187 478 -187 459.5 -193.5 c 128,-1,6
 441 -200 441 -200 419 -201 c 0,7,8
 376 -199 376 -199 345 -173 c 128,-1,9
 314 -147 314 -147 317 -106 c 0,10,11
 315 -80 315 -80 328.5 -55 c 128,-1,12
 342 -30 342 -30 355 -18.5 c 128,-1,13
 368 -7 368 -7 379 0 c 1,14,-1
 61 0 l 1,15,-1
 61 574 l 2,16,17
 60 605 60 605 57 630.5 c 128,-1,18
 54 656 54 656 52 669 c 128,-1,19
 50 682 50 682 50 686 c 1,20,-1
 128 686 l 1,21,-1
 195 686 l 1,22,-1
 340 686 l 2,23,24
 386 686 386 686 458 674 c 1,25,-1
 458 625 l 1,26,27
 398 635 398 635 351 635 c 2,28,-1
 135 635 l 1,29,-1
 139 568 l 1,30,-1
 139 396 l 1,31,-1
 384 396 l 1,32,-1
 384 351 l 1,33,-1
 139 351 l 1,34,-1
 139 50 l 1,35,-1
 458 50 l 1,36,-1
 458 0 l 1,37,38
 419 -15 419 -15 397.5 -44.5 c 128,-1,39
 376 -74 376 -74 379 -106 c 1,40,41
 376 -126 376 -126 388.5 -143.5 c 128,-1,42
 401 -161 401 -161 423 -162 c 0,43,44
 438 -161 438 -161 450 -149.5 c 128,-1,45
 462 -138 462 -138 467.5 -127 c 128,-1,46
 473 -116 473 -116 474 -117 c 2,0,-1
EndSplineSet
Validated: 33
EndChar

StartChar: eogonek
Encoding: 281 281 201
Width: 467
GlyphClass: 2
Flags: W
LayerCount: 2
Fore
SplineSet
435 228 m 0,0,1
 435 227 435 227 434 227 c 1,2,-1
 435 223 l 2,3,4
 434 222 434 222 434 223 c 1,5,-1
 106 223 l 1,6,7
 105 139 105 139 145 84.5 c 128,-1,8
 185 30 185 30 240 29 c 0,9,10
 317 30 317 30 351 78 c 1,11,-1
 419 78 l 1,12,13
 369 2 369 2 273 -9 c 1,14,15
 214 -47 214 -47 212 -106 c 0,16,17
 213 -129 213 -129 224.5 -146 c 128,-1,18
 236 -163 236 -163 256 -162 c 0,19,20
 273 -162 273 -162 285.5 -151 c 128,-1,21
 298 -140 298 -140 302.5 -129 c 128,-1,22
 307 -118 307 -118 306 -117 c 1,23,-1
 357 -139 l 2,24,25
 357 -140 357 -140 354 -146 c 128,-1,26
 351 -152 351 -152 343.5 -161.5 c 128,-1,27
 336 -171 336 -171 325 -180 c 128,-1,28
 314 -189 314 -189 294.5 -195 c 128,-1,29
 275 -201 275 -201 251 -201 c 0,30,31
 211 -202 211 -202 181.5 -176 c 128,-1,32
 152 -150 152 -150 151 -106 c 0,33,34
 152 -57 152 -57 204 -8 c 1,35,36
 127 6 127 6 79.5 70.5 c 128,-1,37
 32 135 32 135 33 228 c 0,38,39
 32 327 32 327 90 389.5 c 128,-1,40
 148 452 148 452 240 452 c 0,41,42
 327 452 327 452 380 390.5 c 128,-1,43
 433 329 433 329 435 228 c 0,0,1
240 413 m 0,44,45
 190 412 190 412 152.5 371 c 128,-1,46
 115 330 115 330 108 262 c 1,47,-1
 359 262 l 1,48,49
 352 333 352 333 320.5 372.5 c 128,-1,50
 289 412 289 412 240 413 c 0,44,45
EndSplineSet
Validated: 33
EndChar

StartChar: Ecaron
Encoding: 282 282 202
Width: 490
GlyphClass: 2
Flags: W
LayerCount: 2
Fore
SplineSet
419 903 m 1,0,-1
 279 735 l 1,1,-1
 234 735 l 1,2,-1
 106 903 l 1,3,-1
 184 903 l 1,4,-1
 258 797 l 1,5,-1
 340 903 l 1,6,-1
 419 903 l 1,0,-1
458 674 m 1,7,-1
 458 625 l 1,8,9
 457 625 457 625 441.5 627.5 c 128,-1,10
 426 630 426 630 400.5 632.5 c 128,-1,11
 375 635 375 635 351 635 c 2,12,-1
 134 635 l 1,13,14
 137 586 137 586 139 568 c 2,15,-1
 139 396 l 1,16,-1
 384 396 l 1,17,-1
 384 351 l 1,18,-1
 139 351 l 1,19,-1
 139 50 l 1,20,-1
 458 50 l 1,21,-1
 458 0 l 1,22,-1
 61 0 l 1,23,-1
 61 574 l 2,24,25
 61 606 61 606 58 631 c 128,-1,26
 55 656 55 656 52.5 669.5 c 128,-1,27
 50 683 50 683 50 686 c 1,28,-1
 128 686 l 1,29,-1
 195 686 l 1,30,-1
 340 686 l 2,31,32
 367 686 367 686 394.5 683 c 128,-1,33
 422 680 422 680 439.5 677 c 128,-1,34
 457 674 457 674 458 674 c 1,7,-1
EndSplineSet
Validated: 1
EndChar

StartChar: ecaron
Encoding: 283 283 203
Width: 467
GlyphClass: 2
Flags: W
LayerCount: 2
Fore
SplineSet
396 669 m 1,0,-1
 256 497 l 1,1,-1
 212 497 l 1,2,-1
 84 669 l 1,3,-1
 162 669 l 1,4,-1
 234 561 l 1,5,-1
 317 669 l 1,6,-1
 396 669 l 1,0,-1
435 228 m 0,7,8
 435 227 435 227 434 227 c 1,9,-1
 435 223 l 2,10,11
 434 222 434 222 434 223 c 1,12,-1
 106 223 l 1,13,14
 105 139 105 139 145 84.5 c 128,-1,15
 185 30 185 30 240 29 c 0,16,17
 317 30 317 30 351 78 c 1,18,-1
 419 78 l 1,19,20
 361 -10 361 -10 240 -10 c 0,21,22
 149 -10 149 -10 90.5 57.5 c 128,-1,23
 32 125 32 125 33 228 c 0,24,25
 32 327 32 327 90 389.5 c 128,-1,26
 148 452 148 452 240 452 c 0,27,28
 327 452 327 452 380 390.5 c 128,-1,29
 433 329 433 329 435 228 c 0,7,8
240 413 m 0,30,31
 190 412 190 412 152.5 371 c 128,-1,32
 115 330 115 330 108 262 c 1,33,-1
 359 262 l 1,34,35
 352 333 352 333 320.5 372.5 c 128,-1,36
 289 412 289 412 240 413 c 0,30,31
EndSplineSet
Validated: 33
EndChar

StartChar: uni0122
Encoding: 290 290 204
Width: 634
GlyphClass: 2
Flags: W
LayerCount: 2
Fore
SplineSet
574 345 m 1,0,1
 579 317 579 317 580 223 c 2,2,-1
 580 133 l 1,3,4
 542 65 542 65 479 27.5 c 128,-1,5
 416 -10 416 -10 340 -10 c 0,6,7
 204 -10 204 -10 118 86 c 128,-1,8
 32 182 32 182 33 340 c 0,9,10
 32 495 32 495 118.5 595.5 c 128,-1,11
 205 696 205 696 340 696 c 0,12,13
 428 696 428 696 484.5 654 c 128,-1,14
 541 612 541 612 591 523 c 1,15,-1
 507 468 l 1,16,17
 474 559 474 559 433 602 c 128,-1,18
 392 645 392 645 335 646 c 0,19,20
 247 645 247 645 187 559.5 c 128,-1,21
 127 474 127 474 128 340 c 0,22,23
 127 210 127 210 189.5 125.5 c 128,-1,24
 252 41 252 41 340 39 c 0,25,26
 386 41 386 41 432.5 66 c 128,-1,27
 479 91 479 91 497 133 c 1,28,-1
 497 223 l 2,29,30
 495 275 495 275 493 296 c 1,31,-1
 368 296 l 1,32,-1
 368 345 l 1,33,-1
 574 345 l 1,0,1
267 -201 m 1,34,-1
 228 -173 l 1,35,-1
 317 -39 l 1,36,-1
 368 -72 l 1,37,-1
 267 -201 l 1,34,-1
EndSplineSet
Validated: 33
EndChar

StartChar: uni0123
Encoding: 291 291 205
Width: 484
GlyphClass: 2
Flags: W
LayerCount: 2
Fore
SplineSet
329 702 m 1,0,-1
 368 680 l 1,1,-1
 279 546 l 1,2,-1
 228 585 l 1,3,-1
 329 702 l 1,0,-1
390 440 m 1,4,-1
 462 440 l 1,5,6
 452 390 452 390 452 329 c 2,7,-1
 452 23 l 2,8,9
 451 -88 451 -88 389 -147 c 128,-1,10
 327 -206 327 -206 234 -206 c 0,11,12
 191 -206 191 -206 153 -195.5 c 128,-1,13
 115 -185 115 -185 95.5 -174 c 128,-1,14
 76 -163 76 -163 50 -145 c 1,15,-1
 94 -100 l 1,16,17
 94 -102 94 -102 111.5 -117 c 128,-1,18
 129 -132 129 -132 164 -149 c 128,-1,19
 199 -166 199 -166 234 -167 c 0,20,21
 293 -167 293 -167 335.5 -123 c 128,-1,22
 378 -79 378 -79 379 23 c 2,23,-1
 379 41 l 1,24,25
 325 -10 325 -10 251 -10 c 0,26,27
 156 -10 156 -10 95 52 c 128,-1,28
 34 114 34 114 33 217 c 0,29,30
 34 316 34 316 95 378 c 128,-1,31
 156 440 156 440 251 440 c 2,32,-1
 390 440 l 1,4,-1
251 29 m 0,33,34
 293 29 293 29 335.5 62 c 128,-1,35
 378 95 378 95 379 137 c 2,36,-1
 379 306 l 1,37,-1
 379 312 l 1,38,-1
 379 379 l 2,39,40
 379 393 379 393 341.5 398 c 128,-1,41
 304 403 304 403 256 400 c 0,42,43
 107 392 107 392 106 217 c 0,44,45
 107 130 107 130 147 79.5 c 128,-1,46
 187 29 187 29 251 29 c 0,33,34
EndSplineSet
Validated: 33
EndChar

StartChar: Imacron
Encoding: 298 298 206
Width: 372
GlyphClass: 2
Flags: W
LayerCount: 2
Fore
SplineSet
50 836 m 1,0,-1
 323 836 l 1,1,-1
 323 786 l 1,2,-1
 50 786 l 1,3,-1
 50 836 l 1,0,-1
145 686 m 1,4,-1
 228 686 l 1,5,6
 233 661 233 661 234 568 c 2,7,-1
 234 123 l 2,8,9
 233 65 233 65 240 0 c 1,10,-1
 162 0 l 1,11,12
 155 29 155 29 156 123 c 2,13,-1
 156 574 l 2,14,15
 155 646 155 646 145 686 c 1,4,-1
EndSplineSet
Validated: 33
EndChar

StartChar: imacron
Encoding: 299 299 207
Width: 372
GlyphClass: 2
Flags: W
LayerCount: 2
Fore
SplineSet
50 596 m 1,0,-1
 323 596 l 1,1,-1
 323 546 l 1,2,-1
 50 546 l 1,3,-1
 50 596 l 1,0,-1
139 440 m 1,4,-1
 212 440 l 2,5,6
 213 440 213 440 215.5 429.5 c 128,-1,7
 218 419 218 419 222 390 c 128,-1,8
 226 361 226 361 228 323 c 2,9,-1
 228 0 l 1,10,-1
 156 0 l 1,11,-1
 156 329 l 2,12,13
 154 364 154 364 150 391.5 c 128,-1,14
 146 419 146 419 143 429.5 c 128,-1,15
 140 440 140 440 139 440 c 1,4,-1
EndSplineSet
Validated: 1
EndChar

StartChar: Iogonek
Encoding: 302 302 208
Width: 350
GlyphClass: 2
Flags: W
LayerCount: 2
Fore
SplineSet
228 -117 m 1,0,-1
 279 -139 l 1,1,-1
 278 -142 l 2,2,3
 276 -146 276 -146 272 -151.5 c 128,-1,4
 268 -157 268 -157 263 -163.5 c 128,-1,5
 258 -170 258 -170 249.5 -176.5 c 128,-1,6
 241 -183 241 -183 230.5 -188.5 c 128,-1,7
 220 -194 220 -194 205 -197.5 c 128,-1,8
 190 -201 190 -201 173 -201 c 0,9,10
 132 -201 132 -201 102 -175 c 128,-1,11
 72 -149 72 -149 72 -106 c 0,12,13
 72 -55 72 -55 133 0 c 1,14,15
 128 25 128 25 128 123 c 2,16,-1
 128 574 l 2,17,18
 128 653 128 653 117 686 c 1,19,-1
 201 686 l 1,20,21
 206 659 206 659 206 568 c 2,22,-1
 206 123 l 2,23,24
 206 114 206 114 212 0 c 1,25,26
 175 -17 175 -17 154 -46.5 c 128,-1,27
 133 -76 133 -76 133 -106 c 0,28,29
 133 -128 133 -128 145 -145 c 128,-1,30
 157 -162 157 -162 178 -162 c 0,31,32
 195 -162 195 -162 207.5 -151 c 128,-1,33
 220 -140 220 -140 224 -128 c 2,34,-1
 228 -117 l 1,0,-1
EndSplineSet
Validated: 1
EndChar

StartChar: iogonek
Encoding: 303 303 209
Width: 327
GlyphClass: 2
Flags: W
LayerCount: 2
Fore
SplineSet
178 513 m 0,0,1
 155 513 155 513 140.5 527.5 c 128,-1,2
 126 542 126 542 128 563 c 0,3,4
 126 585 126 585 140.5 599 c 128,-1,5
 155 613 155 613 178 613 c 0,6,7
 198 613 198 613 212.5 599 c 128,-1,8
 227 585 227 585 228 563 c 0,9,10
 226 542 226 542 212 527.5 c 128,-1,11
 198 513 198 513 178 513 c 0,0,1
217 -84 m 1,12,-1
 267 -106 l 1,13,-1
 264 -112 l 2,14,15
 261 -119 261 -119 254 -127.5 c 128,-1,16
 247 -136 247 -136 236 -145 c 128,-1,17
 225 -154 225 -154 205.5 -160.5 c 128,-1,18
 186 -167 186 -167 162 -167 c 0,19,20
 122 -167 122 -167 90.5 -141 c 128,-1,21
 59 -115 59 -115 61 -72 c 0,22,23
 59 -29 59 -29 88.5 2 c 128,-1,24
 118 33 118 33 151 33 c 1,25,-1
 151 329 l 2,26,27
 150 363 150 363 146.5 391.5 c 128,-1,28
 143 420 143 420 140.5 430 c 128,-1,29
 138 440 138 440 139 440 c 2,30,-1
 206 440 l 2,31,32
 208 440 208 440 211 429 c 128,-1,33
 214 418 214 418 218 389.5 c 128,-1,34
 222 361 222 361 223 323 c 2,35,-1
 223 0 l 1,36,37
 168 0 168 0 144 -23 c 128,-1,38
 120 -46 120 -46 123 -72 c 1,39,40
 121 -95 121 -95 133 -111.5 c 128,-1,41
 145 -128 145 -128 167 -128 c 0,42,43
 183 -128 183 -128 195 -117 c 128,-1,44
 207 -106 207 -106 212 -95 c 2,45,-1
 217 -84 l 1,12,-1
EndSplineSet
Validated: 33
EndChar

StartChar: uni0136
Encoding: 310 310 210
Width: 573
GlyphClass: 2
Flags: W
LayerCount: 2
Fore
SplineSet
268 378 m 1,0,-1
 452 145 l 2,1,2
 480 109 480 109 498.5 66.5 c 128,-1,3
 517 24 517 24 518 0 c 1,4,-1
 435 0 l 1,5,6
 432 40 432 40 368 133 c 1,7,-1
 226 321 l 1,8,-1
 167 242 l 1,9,-1
 167 123 l 2,10,11
 167 40 167 40 173 0 c 1,12,-1
 89 0 l 1,13,14
 84 18 84 18 84 123 c 2,15,-1
 84 574 l 2,16,17
 84 620 84 620 72 686 c 1,18,-1
 156 686 l 1,19,20
 165 660 165 660 167 568 c 2,21,-1
 167 346 l 1,22,-1
 317 552 l 2,23,24
 382 648 382 648 384 686 c 1,25,-1
 458 686 l 1,26,27
 456 663 456 663 436.5 620.5 c 128,-1,28
 417 578 417 578 390 541 c 2,29,-1
 268 378 l 1,0,-1
245 -201 m 1,30,-1
 206 -173 l 1,31,-1
 296 -39 l 1,32,-1
 345 -72 l 1,33,-1
 245 -201 l 1,30,-1
EndSplineSet
Validated: 1
EndChar

StartChar: uni0137
Encoding: 311 311 211
Width: 490
GlyphClass: 2
Flags: W
LayerCount: 2
Fore
SplineSet
307 284 m 1,0,1
 365 247 365 247 410.5 164 c 128,-1,2
 456 81 456 81 452 0 c 1,3,-1
 384 0 l 1,4,5
 384 66 384 66 350 141.5 c 128,-1,6
 316 217 316 217 269 250 c 1,7,8
 216 214 216 214 143 212 c 1,9,-1
 145 0 l 1,10,-1
 78 0 l 1,11,-1
 78 568 l 2,12,13
 78 598 78 598 75.5 626 c 128,-1,14
 73 654 73 654 70 667 c 2,15,-1
 68 680 l 1,16,-1
 128 680 l 1,17,18
 139 635 139 635 139 563 c 2,19,-1
 142 251 l 1,20,21
 209 252 209 252 252.5 308 c 128,-1,22
 296 364 296 364 296 440 c 1,23,-1
 368 440 l 1,24,25
 363 347 363 347 307 284 c 1,0,1
195 -201 m 1,26,-1
 156 -173 l 1,27,-1
 240 -39 l 1,28,-1
 296 -72 l 1,29,-1
 195 -201 l 1,26,-1
EndSplineSet
Validated: 33
EndChar

StartChar: Lacute
Encoding: 313 313 212
Width: 534
GlyphClass: 2
Flags: W
LayerCount: 2
Fore
SplineSet
117 913 m 1,0,-1
 201 786 l 1,1,-1
 162 758 l 1,2,-1
 72 881 l 1,3,-1
 117 913 l 1,0,-1
211 50 m 1,4,-1
 396 50 l 2,5,6
 422 50 422 50 447.5 52.5 c 128,-1,7
 473 55 473 55 486.5 57.5 c 128,-1,8
 500 60 500 60 502 61 c 1,9,-1
 502 10 l 1,10,11
 468 -1 468 -1 384 0 c 2,12,-1
 123 0 l 1,13,14
 123 6 123 6 124 21 c 128,-1,15
 125 36 125 36 126.5 64 c 128,-1,16
 128 92 128 92 128 123 c 2,17,-1
 128 686 l 1,18,-1
 212 686 l 1,19,-1
 212 123 l 2,20,21
 212 68 212 68 211 50 c 1,4,-1
EndSplineSet
Validated: 33
EndChar

StartChar: lacute
Encoding: 314 314 213
Width: 249
GlyphClass: 2
Flags: W
LayerCount: 2
Fore
SplineSet
145 908 m 1,0,-1
 55 774 l 1,1,-1
 94 752 l 1,2,-1
 195 869 l 1,3,-1
 145 908 l 1,0,-1
55 696 m 2,4,-1
 123 696 l 1,5,6
 137 678 137 678 139 580 c 2,7,-1
 139 0 l 1,8,-1
 68 0 l 1,9,-1
 68 585 l 2,10,11
 68 617 68 617 64 644.5 c 128,-1,12
 60 672 60 672 57 683.5 c 128,-1,13
 54 695 54 695 55 696 c 2,4,-1
EndSplineSet
Validated: 9
EndChar

StartChar: uni013B
Encoding: 315 315 214
Width: 484
GlyphClass: 2
Flags: W
LayerCount: 2
Fore
SplineSet
161 50 m 1,0,-1
 345 50 l 2,1,2
 372 50 372 50 397.5 52.5 c 128,-1,3
 423 55 423 55 436.5 57.5 c 128,-1,4
 450 60 450 60 452 61 c 1,5,-1
 452 10 l 1,6,7
 418 -1 418 -1 335 0 c 2,8,-1
 72 0 l 1,9,10
 72 1 72 1 75 40 c 128,-1,11
 78 79 78 79 78 123 c 2,12,-1
 78 686 l 1,13,-1
 162 686 l 1,14,-1
 162 123 l 2,15,16
 162 68 162 68 161 50 c 1,0,-1
212 -201 m 1,17,-1
 173 -173 l 1,18,-1
 262 -39 l 1,19,-1
 312 -72 l 1,20,-1
 212 -201 l 1,17,-1
EndSplineSet
Validated: 33
EndChar

StartChar: uni013C
Encoding: 316 316 215
Width: 249
GlyphClass: 2
Flags: W
LayerCount: 2
Fore
SplineSet
106 696 m 2,0,-1
 173 696 l 1,1,2
 187 678 187 678 189 580 c 2,3,-1
 189 0 l 1,4,-1
 117 0 l 1,5,-1
 117 585 l 2,6,7
 117 617 117 617 113.5 644.5 c 128,-1,8
 110 672 110 672 107.5 683.5 c 128,-1,9
 105 695 105 695 106 696 c 2,0,-1
145 -39 m 1,10,-1
 55 -173 l 1,11,-1
 94 -201 l 1,12,-1
 195 -72 l 1,13,-1
 145 -39 l 1,10,-1
EndSplineSet
Validated: 9
EndChar

StartChar: Lcaron
Encoding: 317 317 216
Width: 551
GlyphClass: 2
Flags: W
LayerCount: 2
Fore
SplineSet
345 903 m 1,0,-1
 206 735 l 1,1,-1
 162 735 l 1,2,-1
 33 903 l 1,3,-1
 112 903 l 1,4,-1
 183 795 l 1,5,-1
 267 903 l 1,6,-1
 345 903 l 1,0,-1
227 50 m 1,7,-1
 413 50 l 2,8,9
 439 50 439 50 464 52.5 c 128,-1,10
 489 55 489 55 502 57.5 c 128,-1,11
 515 60 515 60 518 61 c 1,12,-1
 518 10 l 1,13,14
 473 -1 473 -1 400 0 c 2,15,-1
 139 0 l 1,16,17
 138 7 138 7 139 21 c 128,-1,18
 140 35 140 35 142 64 c 128,-1,19
 144 93 144 93 145 123 c 2,20,-1
 145 686 l 1,21,-1
 228 686 l 1,22,-1
 228 123 l 2,23,24
 228 106 228 106 227.5 81.5 c 128,-1,25
 227 57 227 57 227 50 c 1,7,-1
EndSplineSet
Validated: 33
EndChar

StartChar: lcaron
Encoding: 318 318 217
Width: 356
GlyphClass: 2
Flags: W
LayerCount: 2
Fore
SplineSet
335 903 m 1,0,-1
 195 735 l 1,1,-1
 151 735 l 1,2,-1
 23 903 l 1,3,-1
 100 903 l 1,4,-1
 173 795 l 1,5,-1
 256 903 l 1,6,-1
 335 903 l 1,0,-1
139 696 m 1,7,-1
 206 696 l 1,8,9
 223 685 223 685 223 580 c 2,10,-1
 223 0 l 1,11,-1
 151 0 l 1,12,-1
 151 585 l 2,13,14
 152 606 152 606 151 624.5 c 128,-1,15
 150 643 150 643 148 655 c 128,-1,16
 146 667 146 667 144 676 c 128,-1,17
 142 685 142 685 140.5 690 c 128,-1,18
 139 695 139 695 139 696 c 1,7,-1
EndSplineSet
Validated: 33
EndChar

StartChar: Lslash
Encoding: 321 321 218
Width: 562
GlyphClass: 2
Flags: W
LayerCount: 2
Fore
SplineSet
240 50 m 1,0,-1
 423 50 l 2,1,2
 450 50 450 50 476.5 53 c 128,-1,3
 503 56 503 56 516 58 c 2,4,-1
 529 61 l 1,5,-1
 529 10 l 1,6,7
 480 0 480 0 413 0 c 2,8,-1
 151 0 l 1,9,10
 151 1 151 1 153.5 40 c 128,-1,11
 156 79 156 79 156 123 c 2,12,-1
 156 258 l 1,13,14
 135 240 135 240 123 228 c 1,15,-1
 72 279 l 1,16,17
 80 291 80 291 156 354 c 1,18,-1
 156 686 l 1,19,-1
 240 686 l 1,20,-1
 240 421 l 1,21,22
 307 480 307 480 329 507 c 1,23,-1
 379 458 l 1,24,25
 374 450 374 450 366 441 c 128,-1,26
 358 432 358 432 343 418 c 128,-1,27
 328 404 328 404 317.5 394.5 c 128,-1,28
 307 385 307 385 281 363 c 128,-1,29
 255 341 255 341 240 328 c 1,30,-1
 240 123 l 1,31,-1
 240 50 l 1,0,-1
EndSplineSet
Validated: 1
EndChar

StartChar: lslash
Encoding: 322 322 219
Width: 411
GlyphClass: 2
Flags: W
LayerCount: 2
Fore
SplineSet
312 507 m 1,0,-1
 357 458 l 1,1,2
 332 415 332 415 273 374 c 1,3,-1
 251 354 l 1,4,-1
 251 0 l 1,5,-1
 178 0 l 1,6,-1
 178 294 l 1,7,8
 119 247 119 247 100 228 c 1,9,-1
 55 279 l 1,10,11
 59 286 59 286 70 295 c 128,-1,12
 81 304 81 304 102.5 322 c 128,-1,13
 124 340 124 340 145 361 c 2,14,-1
 178 389 l 1,15,-1
 178 585 l 2,16,17
 178 680 178 680 162 696 c 1,18,-1
 234 696 l 1,19,20
 251 679 251 679 251 580 c 2,21,-1
 251 452 l 1,22,23
 270 470 270 470 289.5 487 c 128,-1,24
 309 504 309 504 312 507 c 1,0,-1
EndSplineSet
Validated: 1
EndChar

StartChar: Nacute
Encoding: 323 323 220
Width: 594
GlyphClass: 2
Flags: W
LayerCount: 2
Fore
SplineSet
368 908 m 1,0,-1
 419 869 l 1,1,-1
 317 752 l 1,2,-1
 279 774 l 1,3,-1
 368 908 l 1,0,-1
541 0 m 1,4,-1
 458 0 l 1,5,-1
 145 560 l 1,6,-1
 145 -6 l 1,7,-1
 61 -6 l 1,8,-1
 61 574 l 2,9,10
 61 626 61 626 50 686 c 1,11,-1
 133 686 l 1,12,-1
 452 115 l 1,13,-1
 452 123 l 1,14,-1
 452 574 l 2,15,16
 452 626 452 626 440 686 c 1,17,-1
 523 686 l 1,18,19
 536 647 536 647 536 568 c 2,20,-1
 536 123 l 2,21,22
 536 38 536 38 541 0 c 1,4,-1
EndSplineSet
Validated: 1
EndChar

